<svg width="16" height="13" viewBox="0 0 16 13" fill="none" xmlns="http://www.w3.org/2000/svg">
<g clip-path="url(#clip0_358_77)">
<mask id="path-1-inside-1_358_77" fill="white">
<path d="M13.688 3.04675C13.7438 3.04675 13.7974 3.02535 13.8368 2.98726C13.8763 2.94916 13.8985 2.8975 13.8985 2.84363V2.16722C13.8983 1.9908 13.8255 1.82167 13.6962 1.69692C13.567 1.57217 13.3917 1.502 13.2088 1.50178H12.0774L11.8193 0.766875C11.8018 0.716897 11.7648 0.675466 11.7161 0.651354C11.6675 0.627242 11.611 0.622341 11.5587 0.637687L5.43113 2.43494C5.38041 2.45279 5.33872 2.48873 5.31463 2.53534C5.29055 2.58196 5.28591 2.63572 5.30166 2.68554C5.31742 2.73536 5.35237 2.77746 5.39933 2.80316C5.44628 2.82887 5.50167 2.83623 5.55407 2.82372L11.4863 1.08334L12.0518 2.69413C12.0697 2.74514 12.1079 2.7872 12.1579 2.81105C12.208 2.83489 12.2658 2.83857 12.3187 2.82128C12.3716 2.80399 12.4152 2.76714 12.4399 2.71884C12.4646 2.67053 12.4684 2.61474 12.4505 2.56372L12.2202 1.90763H13.2092C13.3574 1.90763 13.4779 2.02381 13.4779 2.16681V2.84363C13.4774 2.95575 13.5718 3.04675 13.688 3.04675Z"/>
</mask>
<path d="M13.688 3.04675C13.7438 3.04675 13.7974 3.02535 13.8368 2.98726C13.8763 2.94916 13.8985 2.8975 13.8985 2.84363V2.16722C13.8983 1.9908 13.8255 1.82167 13.6962 1.69692C13.567 1.57217 13.3917 1.502 13.2088 1.50178H12.0774L11.8193 0.766875C11.8018 0.716897 11.7648 0.675466 11.7161 0.651354C11.6675 0.627242 11.611 0.622341 11.5587 0.637687L5.43113 2.43494C5.38041 2.45279 5.33872 2.48873 5.31463 2.53534C5.29055 2.58196 5.28591 2.63572 5.30166 2.68554C5.31742 2.73536 5.35237 2.77746 5.39933 2.80316C5.44628 2.82887 5.50167 2.83623 5.55407 2.82372L11.4863 1.08334L12.0518 2.69413C12.0697 2.74514 12.1079 2.7872 12.1579 2.81105C12.208 2.83489 12.2658 2.83857 12.3187 2.82128C12.3716 2.80399 12.4152 2.76714 12.4399 2.71884C12.4646 2.67053 12.4684 2.61474 12.4505 2.56372L12.2202 1.90763H13.2092C13.3574 1.90763 13.4779 2.02381 13.4779 2.16681V2.84363C13.4774 2.95575 13.5718 3.04675 13.688 3.04675Z" fill="white"/>
<path d="M13.8985 2.16722H20.8985L20.8985 2.15838L13.8985 2.16722ZM13.2088 1.50178L13.217 -5.49822H13.2088V1.50178ZM12.0774 1.50178L5.47293 3.82134L7.11674 8.50178H12.0774V1.50178ZM11.8193 0.766875L5.21441 3.08525L5.21482 3.08644L11.8193 0.766875ZM11.5587 0.637687L9.58861 -6.07936L9.58857 -6.07935L11.5587 0.637687ZM5.43113 2.43494L3.46099 -4.2821L3.28239 -4.22971L3.10683 -4.16791L5.43113 2.43494ZM5.55407 2.82372L7.17887 9.63254L7.35294 9.591L7.52466 9.54062L5.55407 2.82372ZM11.4863 1.08334L18.0911 -1.23531L15.8905 -7.50379L9.5157 -5.63356L11.4863 1.08334ZM12.0518 2.69413L5.44692 5.01278L5.44746 5.01432L12.0518 2.69413ZM12.4505 2.56372L5.84563 4.88229L5.8462 4.88391L12.4505 2.56372ZM12.2202 1.90763V-5.09237H2.34412L5.61532 4.2262L12.2202 1.90763ZM13.4779 2.84363L20.4778 2.86991L20.4779 2.85677V2.84363H13.4779ZM13.688 10.0468C15.5211 10.0468 17.3273 9.3465 18.6972 8.02476L8.97643 -2.05025C10.2674 -3.2958 11.9665 -3.95325 13.688 -3.95325V10.0468ZM18.6972 8.02476C20.0757 6.6948 20.8985 4.83648 20.8985 2.84363H6.89849C6.89849 0.958514 7.67697 -0.796473 8.97643 -2.05025L18.6972 8.02476ZM20.8985 2.84363V2.16722H6.89849V2.84363H20.8985ZM20.8985 2.15838C20.8958 0.0461203 20.0227 -1.92605 18.5567 -3.34058L8.83584 6.73443C7.62835 5.56938 6.90072 3.93548 6.8985 2.17606L20.8985 2.15838ZM18.5567 -3.34058C17.099 -4.74694 15.1744 -5.49591 13.217 -5.49821L13.2006 8.50178C11.6089 8.4999 10.0349 7.89129 8.83584 6.73443L18.5567 -3.34058ZM13.2088 -5.49822H12.0774V8.50178H13.2088V-5.49822ZM18.682 -0.81778L18.4239 -1.55269L5.21482 3.08644L5.47293 3.82134L18.682 -0.81778ZM18.4243 -1.5515C17.7851 -3.37246 16.4644 -4.80779 14.8249 -5.62046L8.60738 6.92317C7.06513 6.15872 5.81849 4.80626 5.21441 3.08525L18.4243 -1.5515ZM14.8249 -5.62046C13.1919 -6.42991 11.3215 -6.58761 9.58861 -6.07936L13.5288 7.35474C11.9006 7.83229 10.1431 7.68439 8.60738 6.92317L14.8249 -5.62046ZM9.58857 -6.07935L3.46099 -4.2821L7.40127 9.15197L13.5288 7.35472L9.58857 -6.07935ZM3.10683 -4.16791C1.4194 -3.57391 -0.0393872 -2.35209 -0.904484 -0.677531L11.5338 5.74822C10.7168 7.32954 9.34142 8.4795 7.75542 9.03779L3.10683 -4.16791ZM-0.904484 -0.677531C-1.77416 1.00589 -1.94905 2.97319 -1.37256 4.79618L11.9759 0.574898C12.5209 2.29825 12.3553 4.15804 11.5338 5.74822L-0.904484 -0.677531ZM-1.37256 4.79618C-0.798304 6.61206 0.451855 8.075 2.03797 8.9433L8.76068 -3.33698C10.2529 -2.52008 11.4331 -1.14134 11.9759 0.574898L-1.37256 4.79618ZM2.03797 8.9433C3.61762 9.80806 5.45114 10.0448 7.17887 9.63254L3.92928 -3.9851C5.55219 -4.37238 7.27494 -4.15033 8.76068 -3.33698L2.03797 8.9433ZM7.52466 9.54062L13.4569 7.80025L9.5157 -5.63356L3.58349 -3.89318L7.52466 9.54062ZM4.88145 3.402L5.44692 5.01278L18.6566 0.375466L18.0911 -1.23531L4.88145 3.402ZM5.44746 5.01432C6.1006 6.87343 7.463 8.32826 9.14766 9.13072L15.1682 -3.50862C16.7527 -2.75386 18.0388 -1.38315 18.6561 0.373931L5.44746 5.01432ZM9.14766 9.13072C10.8255 9.92992 12.7405 10.0482 14.4946 9.4745L10.1428 -3.83194C11.7912 -4.37106 13.5905 -4.26013 15.1682 -3.50862L9.14766 9.13072ZM14.4946 9.4745C16.254 8.89912 17.7816 7.64659 18.6715 5.90742L6.20828 -0.46975C7.04875 -2.11232 8.4892 -3.29114 10.1428 -3.83194L14.4946 9.4745ZM18.6715 5.90742C19.5666 4.1581 19.711 2.1113 19.0548 0.243524L5.8462 4.88391C5.22587 3.11817 5.36262 1.18297 6.20828 -0.46975L18.6715 5.90742ZM19.0554 0.245146L18.825 -0.410948L5.61532 4.2262L5.84563 4.88229L19.0554 0.245146ZM12.2202 8.90763H13.2092V-5.09237H12.2202V8.90763ZM13.2092 8.90763C9.72967 8.90763 6.47786 6.12381 6.47786 2.16681H20.4779C20.4779 -2.07618 16.9852 -5.09237 13.2092 -5.09237V8.90763ZM6.47786 2.16681V2.84363H20.4779V2.16681H6.47786ZM6.47791 2.81734C6.462 7.05558 9.95017 10.0468 13.688 10.0468V-3.95325C17.1933 -3.95325 20.4929 -1.14408 20.4778 2.86991L6.47791 2.81734Z" fill="white" mask="url(#path-1-inside-1_358_77)"/>
<mask id="path-3-inside-2_358_77" fill="white">
<path d="M15.3684 6.09354C15.3126 6.09354 15.259 6.11494 15.2196 6.15303C15.1801 6.19112 15.1579 6.24279 15.1579 6.29666C15.1579 6.35053 15.1801 6.4022 15.2196 6.44029C15.259 6.47838 15.3126 6.49979 15.3684 6.49979C15.5162 6.49979 15.5789 6.56032 15.5789 6.70291V9.14041C15.5789 9.283 15.5162 9.34354 15.3684 9.34354H12C11.8522 9.34354 11.7895 9.283 11.7895 9.14041V7.10916C11.7895 6.96657 11.8522 6.90604 12 6.90604H14.5263C14.5822 6.90604 14.6357 6.88463 14.6752 6.84654C14.7147 6.80845 14.7368 6.75678 14.7368 6.70291V4.26541C14.7368 3.89532 14.4888 3.65604 14.1053 3.65604H1.26316C0.744 3.65604 0.421053 3.34444 0.421053 2.84354C0.421053 2.34263 0.744 2.03104 1.26316 2.03104H3.40042L2.12632 2.43647C2.09911 2.44404 2.07376 2.45683 2.0518 2.47407C2.02983 2.49131 2.01169 2.51265 1.99847 2.53682C1.98525 2.56098 1.97722 2.58746 1.97486 2.61469C1.97249 2.64192 1.97585 2.66932 1.98472 2.69527C1.99359 2.72121 2.00779 2.74517 2.02648 2.76569C2.04517 2.78622 2.06795 2.8029 2.09348 2.81473C2.119 2.82656 2.14674 2.83331 2.17502 2.83456C2.20331 2.83581 2.23157 2.83154 2.25811 2.822L9.88716 0.395473C9.91342 0.387097 9.93772 0.373812 9.95866 0.356376C9.97961 0.33894 9.99678 0.317695 10.0092 0.293853C10.0217 0.270012 10.0291 0.244041 10.0311 0.217424C10.0332 0.190806 10.0297 0.164064 10.0211 0.138723C10.0124 0.113382 9.9986 0.0899385 9.98053 0.0697317C9.96246 0.049525 9.94044 0.0329504 9.91573 0.0209542C9.89102 0.00895804 9.8641 0.00177526 9.83652 -0.000184033C9.80893 -0.00214332 9.78121 0.00115925 9.75495 0.00953513L4.66021 1.63047C4.65053 1.62885 4.64168 1.62479 4.63158 1.62479H1.26316C0.507789 1.62479 0 2.11472 0 2.84354V11.781C0 12.5098 0.507789 12.9998 1.26316 12.9998H14.1053C14.4888 12.9998 14.7368 12.7605 14.7368 12.3904V10.3592C14.7368 10.3053 14.7147 10.2536 14.6752 10.2155C14.6357 10.1774 14.5822 10.156 14.5263 10.156C14.4705 10.156 14.4169 10.1774 14.3775 10.2155C14.338 10.2536 14.3158 10.3053 14.3158 10.3592V12.3904C14.3158 12.533 14.2531 12.5935 14.1053 12.5935H1.26316C0.744 12.5935 0.421053 12.2819 0.421053 11.781V3.78279C0.637053 3.95869 0.922947 4.06229 1.26316 4.06229H14.1053C14.2531 4.06229 14.3158 4.12282 14.3158 4.26541V6.49979H12C11.6164 6.49979 11.3684 6.73907 11.3684 7.10916V9.14041C11.3684 9.5105 11.6164 9.74979 12 9.74979H15.3684C15.752 9.74979 16 9.5105 16 9.14041V6.70291C16 6.33282 15.752 6.09354 15.3684 6.09354Z"/>
</mask>
<path d="M15.3684 6.09354C15.3126 6.09354 15.259 6.11494 15.2196 6.15303C15.1801 6.19112 15.1579 6.24279 15.1579 6.29666C15.1579 6.35053 15.1801 6.4022 15.2196 6.44029C15.259 6.47838 15.3126 6.49979 15.3684 6.49979C15.5162 6.49979 15.5789 6.56032 15.5789 6.70291V9.14041C15.5789 9.283 15.5162 9.34354 15.3684 9.34354H12C11.8522 9.34354 11.7895 9.283 11.7895 9.14041V7.10916C11.7895 6.96657 11.8522 6.90604 12 6.90604H14.5263C14.5822 6.90604 14.6357 6.88463 14.6752 6.84654C14.7147 6.80845 14.7368 6.75678 14.7368 6.70291V4.26541C14.7368 3.89532 14.4888 3.65604 14.1053 3.65604H1.26316C0.744 3.65604 0.421053 3.34444 0.421053 2.84354C0.421053 2.34263 0.744 2.03104 1.26316 2.03104H3.40042L2.12632 2.43647C2.09911 2.44404 2.07376 2.45683 2.0518 2.47407C2.02983 2.49131 2.01169 2.51265 1.99847 2.53682C1.98525 2.56098 1.97722 2.58746 1.97486 2.61469C1.97249 2.64192 1.97585 2.66932 1.98472 2.69527C1.99359 2.72121 2.00779 2.74517 2.02648 2.76569C2.04517 2.78622 2.06795 2.8029 2.09348 2.81473C2.119 2.82656 2.14674 2.83331 2.17502 2.83456C2.20331 2.83581 2.23157 2.83154 2.25811 2.822L9.88716 0.395473C9.91342 0.387097 9.93772 0.373812 9.95866 0.356376C9.97961 0.33894 9.99678 0.317695 10.0092 0.293853C10.0217 0.270012 10.0291 0.244041 10.0311 0.217424C10.0332 0.190806 10.0297 0.164064 10.0211 0.138723C10.0124 0.113382 9.9986 0.0899385 9.98053 0.0697317C9.96246 0.049525 9.94044 0.0329504 9.91573 0.0209542C9.89102 0.00895804 9.8641 0.00177526 9.83652 -0.000184033C9.80893 -0.00214332 9.78121 0.00115925 9.75495 0.00953513L4.66021 1.63047C4.65053 1.62885 4.64168 1.62479 4.63158 1.62479H1.26316C0.507789 1.62479 0 2.11472 0 2.84354V11.781C0 12.5098 0.507789 12.9998 1.26316 12.9998H14.1053C14.4888 12.9998 14.7368 12.7605 14.7368 12.3904V10.3592C14.7368 10.3053 14.7147 10.2536 14.6752 10.2155C14.6357 10.1774 14.5822 10.156 14.5263 10.156C14.4705 10.156 14.4169 10.1774 14.3775 10.2155C14.338 10.2536 14.3158 10.3053 14.3158 10.3592V12.3904C14.3158 12.533 14.2531 12.5935 14.1053 12.5935H1.26316C0.744 12.5935 0.421053 12.2819 0.421053 11.781V3.78279C0.637053 3.95869 0.922947 4.06229 1.26316 4.06229H14.1053C14.2531 4.06229 14.3158 4.12282 14.3158 4.26541V6.49979H12C11.6164 6.49979 11.3684 6.73907 11.3684 7.10916V9.14041C11.3684 9.5105 11.6164 9.74979 12 9.74979H15.3684C15.752 9.74979 16 9.5105 16 9.14041V6.70291C16 6.33282 15.752 6.09354 15.3684 6.09354Z" fill="white"/>
<path d="M3.40042 2.03104L5.52304 8.70145L3.40042 -4.96896V2.03104ZM2.12632 2.43647L4.00272 9.18029L4.1265 9.14585L4.24893 9.10689L2.12632 2.43647ZM1.99847 2.53682L8.13938 5.89677L1.99847 2.53682ZM2.25811 2.822L0.13639 -3.8487L0.0132361 -3.80953L-0.108388 -3.76584L2.25811 2.822ZM9.88716 0.395473L12.0089 7.06618L12.014 7.06456L9.88716 0.395473ZM9.75495 0.00953513L11.8772 6.68006L11.8818 6.67862L9.75495 0.00953513ZM4.66021 1.63047L3.50181 8.53396L5.17031 8.81393L6.7825 8.301L4.66021 1.63047ZM0.421053 3.78279L4.84135 -1.64501L-6.57895 -10.9455V3.78279H0.421053ZM14.3158 6.49979V13.4998H21.3158V6.49979H14.3158ZM15.3684 -0.906465C13.5353 -0.906465 11.7291 -0.206223 10.3592 1.11552L20.08 11.1905C18.789 12.4361 17.0899 13.0935 15.3684 13.0935V-0.906465ZM10.3592 1.11552C8.98072 2.44549 8.1579 4.30381 8.1579 6.29666H22.1579C22.1579 8.18176 21.3794 9.93675 20.08 11.1905L10.3592 1.11552ZM8.1579 6.29666C8.1579 8.28951 8.98072 10.1478 10.3592 11.4778L20.08 1.40279C21.3794 2.65657 22.1579 4.41156 22.1579 6.29666H8.1579ZM10.3592 11.4778C11.7291 12.7995 13.5353 13.4998 15.3684 13.4998V-0.500215C17.0899 -0.500215 18.789 0.157226 20.08 1.40279L10.3592 11.4778ZM15.3684 13.4998C14.704 13.4998 12.549 13.3996 10.6687 11.5854C8.72976 9.71461 8.57895 7.48155 8.57895 6.70291H22.5789C22.5789 5.78168 22.3968 3.44705 20.3895 1.51037C18.4409 -0.369734 16.1806 -0.500215 15.3684 -0.500215V13.4998ZM8.57895 6.70291V9.14041H22.5789V6.70291H8.57895ZM8.57895 9.14041C8.57895 8.36177 8.72976 6.12871 10.6687 4.25794C12.549 2.44375 14.704 2.34354 15.3684 2.34354V16.3435C16.1806 16.3435 18.4409 16.2131 20.3895 14.333C22.3968 12.3963 22.5789 10.0616 22.5789 9.14041H8.57895ZM15.3684 2.34354H12V16.3435H15.3684V2.34354ZM12 2.34354C12.6644 2.34354 14.8194 2.44375 16.6997 4.25794C18.6387 6.12871 18.7895 8.36177 18.7895 9.14041H4.78947C4.78947 10.0616 4.97166 12.3963 6.97891 14.333C8.92752 16.2131 11.1878 16.3435 12 16.3435V2.34354ZM18.7895 9.14041V7.10916H4.78947V9.14041H18.7895ZM18.7895 7.10916C18.7895 7.8878 18.6387 10.1209 16.6997 11.9916C14.8194 13.8058 12.6644 13.906 12 13.906V-0.0939648C11.1878 -0.0939648 8.92752 0.0365158 6.97891 1.91662C4.97166 3.8533 4.78947 6.18793 4.78947 7.10916H18.7895ZM12 13.906H14.5263V-0.0939648H12V13.906ZM14.5263 13.906C16.3594 13.906 18.1657 13.2058 19.5356 11.884L9.81478 1.80904C11.1057 0.563476 12.8049 -0.0939648 14.5263 -0.0939648V13.906ZM19.5356 11.884C20.914 10.5541 21.7368 8.69576 21.7368 6.70291H7.73684C7.73684 4.81781 8.51531 3.06282 9.81478 1.80904L19.5356 11.884ZM21.7368 6.70291V4.26541H7.73684V6.70291H21.7368ZM21.7368 4.26541C21.7368 2.46816 21.0966 0.397 19.4253 -1.21557C17.7792 -2.80378 15.7611 -3.34396 14.1053 -3.34396V10.656C12.833 10.656 11.1307 10.2355 9.70449 8.85944C8.25306 7.45904 7.73684 5.69257 7.73684 4.26541H21.7368ZM14.1053 -3.34396H1.26316V10.656H14.1053V-3.34396ZM1.26316 -3.34396C2.40062 -3.34396 4.07706 -2.98035 5.50783 -1.59988C6.96723 -0.191788 7.42105 1.5519 7.42105 2.84354H-6.57895C-6.57895 4.63608 -5.96365 6.78602 -4.21298 8.47513C-2.49095 10.1366 -0.393461 10.656 1.26316 10.656V-3.34396ZM7.42105 2.84354C7.42105 4.13517 6.96723 5.87886 5.50783 7.28695C4.07706 8.66742 2.40062 9.03104 1.26316 9.03104V-4.96896C-0.393461 -4.96896 -2.49095 -4.44955 -4.21298 -2.78806C-5.96365 -1.09894 -6.57895 1.05099 -6.57895 2.84354H7.42105ZM1.26316 9.03104H3.40042V-4.96896H1.26316V9.03104ZM1.2778 -4.63938L0.00369811 -4.23395L4.24893 9.10689L5.52304 8.70145L1.2778 -4.63938ZM0.24991 -4.30735C-0.655684 -4.05537 -1.5141 -3.62578 -2.27017 -3.03234L6.37376 7.98049C5.66162 8.53945 4.8539 8.94346 4.00272 9.18029L0.24991 -4.30735ZM-2.27017 -3.03234C-3.02681 -2.43846 -3.66796 -1.69032 -4.14243 -0.823142L8.13938 5.89677C7.69134 6.71563 7.08647 7.42108 6.37376 7.98049L-2.27017 -3.03234ZM-4.14243 -0.823142C-4.6173 0.0447693 -4.91202 1.00835 -4.99891 2.00925L8.94863 3.22013C8.86646 4.16658 8.58781 5.07718 8.13938 5.89677L-4.14243 -0.823142ZM-4.99891 2.00925C-5.08582 3.01036 -4.96184 4.015 -4.63897 4.9595L8.60841 0.431035C8.91354 1.32365 9.03081 2.27347 8.94863 3.22013L-4.99891 2.00925ZM-4.63897 4.9595C-4.31631 5.90341 -3.80517 6.75815 -3.14976 7.47807L7.20272 -1.94668C7.82075 -1.26782 8.30348 -0.460977 8.60841 0.431035L-4.63897 4.9595ZM-3.14976 7.47807C-2.49492 8.19737 -1.71016 8.76704 -0.850595 9.16551L5.03755 -3.53605C5.84607 -3.16124 6.58526 -2.62493 7.20272 -1.94668L-3.14976 7.47807ZM-0.850595 9.16551C0.00853871 9.56379 0.932052 9.78648 1.86615 9.82774L2.48389 -4.15863C3.36142 -4.11987 4.22946 -3.91066 5.03755 -3.53605L-0.850595 9.16551ZM1.86615 9.82774C2.8002 9.86899 3.73745 9.72853 4.6246 9.40985L-0.108388 -3.76584C0.725681 -4.06546 1.60642 -4.19738 2.48389 -4.15863L1.86615 9.82774ZM4.37982 9.49271L12.0089 7.06618L7.76544 -6.27523L0.13639 -3.8487L4.37982 9.49271ZM12.014 7.06456C12.8898 6.78525 13.7148 6.33768 14.4374 5.73602L5.47989 -5.02327C6.16068 -5.59005 6.93705 -6.01105 7.76035 -6.27361L12.014 7.06456ZM14.4374 5.73602C15.1607 5.13391 15.7691 4.38738 16.2159 3.53064L3.80251 -2.94293C4.22443 -3.75199 4.79855 -4.45603 5.47989 -5.02327L14.4374 5.73602ZM16.2159 3.53064C16.663 2.67335 16.9362 1.72815 17.0108 0.749918L3.05141 -0.31507C3.12198 -1.24007 3.3803 -2.13333 3.80251 -2.94293L16.2159 3.53064ZM17.0108 0.749918C17.0855 -0.228469 16.959 -1.20811 16.6433 -2.12984L3.39885 2.40729C3.10045 1.53624 2.98083 0.610081 3.05141 -0.31507L17.0108 0.749918ZM16.6433 -2.12984C16.3277 -3.05105 15.8324 -3.88758 15.1983 -4.59661L4.76275 4.73607C4.16479 4.06746 3.69706 3.27782 3.39885 2.40729L16.6433 -2.12984ZM15.1983 -4.59661C14.5648 -5.30502 13.8059 -5.87178 12.9728 -6.27619L6.85862 6.3181C6.07502 5.93769 5.36015 5.40407 4.76275 4.73607L15.1983 -4.59661ZM12.9728 -6.27619C12.1402 -6.68042 11.2433 -6.9179 10.3324 -6.9826L9.34061 6.98223C8.48489 6.92145 7.64184 6.69834 6.85862 6.3181L12.9728 -6.27619ZM10.3324 -6.9826C9.42157 -7.04729 8.50364 -6.93875 7.62813 -6.65955L11.8818 6.67862C11.0588 6.94107 10.1963 7.043 9.34061 6.98223L10.3324 -6.9826ZM7.63266 -6.66099L2.53792 -5.04005L6.7825 8.301L11.8772 6.68006L7.63266 -6.66099ZM5.81861 -5.27301C6.10397 -5.22513 6.32343 -5.16949 6.41104 -5.14676C6.45427 -5.13554 6.49058 -5.12561 6.48426 -5.12733C6.48408 -5.12738 6.48439 -5.12729 6.48416 -5.12735C6.4841 -5.12737 6.48401 -5.12739 6.4839 -5.12742C6.4837 -5.12748 6.48337 -5.12757 6.48296 -5.12768C6.48218 -5.12789 6.4809 -5.12824 6.47934 -5.12866C6.47628 -5.12949 6.47127 -5.13085 6.46511 -5.1325C6.45304 -5.13575 6.43318 -5.14105 6.40865 -5.14744C6.25332 -5.18785 5.55089 -5.37521 4.63158 -5.37521V8.62479C3.72237 8.62479 3.02942 8.43945 2.88346 8.40148C2.84211 8.39072 2.80647 8.38097 2.81486 8.38324C2.81501 8.38328 2.81773 8.38402 2.82098 8.3849C2.82445 8.38584 2.82983 8.3873 2.83639 8.38906C2.84927 8.39252 2.86983 8.398 2.8951 8.40456C2.98742 8.42851 3.21161 8.48526 3.50181 8.53396L5.81861 -5.27301ZM4.63158 -5.37521H1.26316V8.62479H4.63158V-5.37521ZM1.26316 -5.37521C-0.646074 -5.37521 -2.79638 -4.73204 -4.51209 -3.07665C-6.24956 -1.40027 -7 0.796399 -7 2.84354H7C7 4.16186 6.50345 5.74915 5.20872 6.99836C3.93575 8.22658 2.41702 8.62479 1.26316 8.62479V-5.37521ZM-7 2.84354V11.781H7V2.84354H-7ZM-7 11.781C-7 13.8282 -6.24956 16.0248 -4.51209 17.7012C-2.79638 19.3566 -0.646074 19.9998 1.26316 19.9998V5.99979C2.41702 5.99979 3.93575 6.39799 5.20872 7.62621C6.50345 8.87542 7 10.4627 7 11.781H-7ZM1.26316 19.9998H14.1053V5.99979H1.26316V19.9998ZM14.1053 19.9998C15.7611 19.9998 17.7792 19.4596 19.4253 17.8714C21.0966 16.2588 21.7368 14.1877 21.7368 12.3904H7.73684C7.73684 10.9633 8.25306 9.19678 9.70449 7.79638C11.1307 6.42033 12.833 5.99979 14.1053 5.99979V19.9998ZM21.7368 12.3904V10.3592H7.73684V12.3904H21.7368ZM21.7368 10.3592C21.7368 8.36631 20.914 6.50799 19.5356 5.17802L9.81478 15.253C8.51531 13.9993 7.73684 12.2443 7.73684 10.3592H21.7368ZM19.5356 5.17802C18.1657 3.85628 16.3594 3.15604 14.5263 3.15604V17.156C12.8049 17.156 11.1057 16.4986 9.81478 15.253L19.5356 5.17802ZM14.5263 3.15604C12.6932 3.15604 10.887 3.85628 9.51705 5.17802L19.2379 15.253C17.9469 16.4986 16.2478 17.156 14.5263 17.156V3.15604ZM9.51705 5.17802C8.13862 6.50799 7.31579 8.36631 7.31579 10.3592H21.3158C21.3158 12.2443 20.5373 13.9993 19.2379 15.253L9.51705 5.17802ZM7.31579 10.3592V12.3904H21.3158V10.3592H7.31579ZM7.31579 12.3904C7.31579 11.6118 7.46661 9.37871 9.40554 7.50794C11.2858 5.69375 13.4409 5.59354 14.1053 5.59354V19.5935C14.9174 19.5935 17.1777 19.4631 19.1264 17.583C21.1336 15.6463 21.3158 13.3116 21.3158 12.3904H7.31579ZM14.1053 5.59354H1.26316V19.5935H14.1053V5.59354ZM1.26316 5.59354C2.40062 5.59354 4.07706 5.95715 5.50783 7.33762C6.96723 8.74571 7.42105 10.4894 7.42105 11.781H-6.57895C-6.57895 13.5736 -5.96365 15.7235 -4.21298 17.4126C-2.49095 19.0741 -0.393461 19.5935 1.26316 19.5935V5.59354ZM7.42105 11.781V3.78279H-6.57895V11.781H7.42105ZM-3.99924 9.21058C-2.42672 10.4912 -0.542713 11.0623 1.26316 11.0623V-2.93771C2.38861 -2.93771 3.70082 -2.57384 4.84135 -1.64501L-3.99924 9.21058ZM1.26316 11.0623H14.1053V-2.93771H1.26316V11.0623ZM14.1053 11.0623C13.4409 11.0623 11.2858 10.9621 9.40554 9.14788C7.46661 7.27711 7.31579 5.04405 7.31579 4.26541H21.3158C21.3158 3.34418 21.1336 1.00955 19.1264 -0.92713C17.1777 -2.80723 14.9174 -2.93771 14.1053 -2.93771V11.0623ZM7.31579 4.26541V6.49979H21.3158V4.26541H7.31579ZM14.3158 -0.500215H12V13.4998H14.3158V-0.500215ZM12 -0.500215C10.3441 -0.500215 8.32605 0.0399678 6.67996 1.62818C5.00864 3.24075 4.36842 5.31191 4.36842 7.10916H18.3684C18.3684 8.53632 17.8522 10.3028 16.4008 11.7032C14.9746 13.0792 13.2723 13.4998 12 13.4998V-0.500215ZM4.36842 7.10916V9.14041H18.3684V7.10916H4.36842ZM4.36842 9.14041C4.36842 10.9377 5.00864 13.0088 6.67996 14.6214C8.32605 16.2096 10.3441 16.7498 12 16.7498V2.74979C13.2723 2.74979 14.9746 3.17033 16.4008 4.54638C17.8522 5.94678 18.3684 7.71325 18.3684 9.14041H4.36842ZM12 16.7498H15.3684V2.74979H12V16.7498ZM15.3684 16.7498C17.0243 16.7498 19.0424 16.2096 20.6885 14.6214C22.3598 13.0088 23 10.9377 23 9.14041H9C9 7.71325 9.51622 5.94678 10.9676 4.54638C12.3938 3.17033 14.0961 2.74979 15.3684 2.74979V16.7498ZM23 9.14041V6.70291H9V9.14041H23ZM23 6.70291C23 4.90566 22.3598 2.8345 20.6885 1.22193C19.0424 -0.366282 17.0243 -0.906465 15.3684 -0.906465V13.0935C14.0961 13.0935 12.3938 12.673 10.9676 11.2969C9.51622 9.89654 9 8.13007 9 6.70291H23Z" fill="white" mask="url(#path-3-inside-2_358_77)"/>
<path d="M13.4738 8.53125C13.7063 8.53125 13.8948 8.34937 13.8948 8.125C13.8948 7.90063 13.7063 7.71875 13.4738 7.71875C13.2412 7.71875 13.0527 7.90063 13.0527 8.125C13.0527 8.34937 13.2412 8.53125 13.4738 8.53125Z" fill="white"/>
</g>
<defs>
<clipPath id="clip0_358_77">
<rect width="16" height="13" fill="white"/>
</clipPath>
</defs>
</svg>
