<svg width="29" height="30" viewBox="0 0 29 30" fill="none" xmlns="http://www.w3.org/2000/svg">
<path d="M12.888 13.75C12.1928 13.75 11.5132 13.9699 10.9352 14.382C10.3572 14.794 9.90665 15.3797 9.64062 16.0649C9.37458 16.7502 9.30498 17.5042 9.4406 18.2316C9.57622 18.959 9.91098 19.6272 10.4026 20.1516C10.8941 20.6761 11.5204 21.0332 12.2022 21.1779C12.8841 21.3226 13.5908 21.2484 14.2331 20.9645C14.8753 20.6807 15.4243 20.2001 15.8105 19.5834C16.1967 18.9667 16.4029 18.2417 16.4029 17.5C16.4029 16.5054 16.0325 15.5516 15.3734 14.8483C14.7142 14.1451 13.8202 13.75 12.888 13.75ZM12.888 18.75C12.6562 18.75 12.4297 18.6767 12.237 18.5393C12.0444 18.402 11.8942 18.2068 11.8055 17.9784C11.7168 17.7499 11.6936 17.4986 11.7388 17.2561C11.784 17.0137 11.8956 16.7909 12.0595 16.6161C12.2233 16.4413 12.4321 16.3222 12.6594 16.274C12.8867 16.2258 13.1222 16.2505 13.3363 16.3451C13.5504 16.4398 13.7334 16.6 13.8621 16.8055C13.9909 17.0111 14.0596 17.2528 14.0596 17.5C14.0596 17.8315 13.9362 18.1495 13.7164 18.3839C13.4967 18.6183 13.1987 18.75 12.888 18.75ZM12.0561 10.8875C12.1675 11.0013 12.2989 11.0905 12.4427 11.15C12.583 11.2161 12.7346 11.2503 12.888 11.2503C13.0413 11.2503 13.1929 11.2161 13.3332 11.15C13.477 11.0905 13.6084 11.0013 13.7198 10.8875L16.4029 8.075C16.6297 7.83299 16.7571 7.50475 16.7571 7.1625C16.7571 6.82025 16.6297 6.49201 16.4029 6.25C16.176 6.00799 15.8684 5.87203 15.5476 5.87203C15.2268 5.87203 14.9191 6.00799 14.6923 6.25L14.0596 6.9875V2.5C14.0596 2.16848 13.9362 1.85054 13.7164 1.61612C13.4967 1.3817 13.1987 1.25 12.888 1.25C12.5772 1.25 12.2792 1.3817 12.0595 1.61612C11.8398 1.85054 11.7163 2.16848 11.7163 2.5V6.9875L11.0836 6.25C10.8568 6.00799 10.5491 5.87203 10.2284 5.87203C9.90756 5.87203 9.5999 6.00799 9.37306 6.25C9.14622 6.49201 9.01879 6.82025 9.01879 7.1625C9.01879 7.50475 9.14622 7.83299 9.37306 8.075L12.0561 10.8875ZM21.0894 17.5C21.0894 17.2528 21.0207 17.0111 20.8919 16.8055C20.7632 16.6 20.5802 16.4398 20.3661 16.3451C20.152 16.2505 19.9165 16.2258 19.6892 16.274C19.4619 16.3222 19.2531 16.4413 19.0893 16.6161C18.9254 16.7909 18.8138 17.0137 18.7686 17.2561C18.7234 17.4986 18.7466 17.7499 18.8353 17.9784C18.924 18.2068 19.0742 18.402 19.2668 18.5393C19.4595 18.6767 19.686 18.75 19.9178 18.75C20.2285 18.75 20.5265 18.6183 20.7462 18.3839C20.9659 18.1495 21.0894 17.8315 21.0894 17.5ZM22.261 8.75H18.7461C18.4354 8.75 18.1374 8.88169 17.9177 9.11612C17.6979 9.35054 17.5745 9.66848 17.5745 10C17.5745 10.3315 17.6979 10.6495 17.9177 10.8839C18.1374 11.1183 18.4354 11.25 18.7461 11.25H22.261C22.5718 11.25 22.8698 11.3817 23.0895 11.6161C23.3092 11.8505 23.4327 12.1685 23.4327 12.5V22.5C23.4327 22.8315 23.3092 23.1495 23.0895 23.3839C22.8698 23.6183 22.5718 23.75 22.261 23.75H3.5149C3.20416 23.75 2.90615 23.6183 2.68643 23.3839C2.4667 23.1495 2.34327 22.8315 2.34327 22.5V12.5C2.34327 12.1685 2.4667 11.8505 2.68643 11.6161C2.90615 11.3817 3.20416 11.25 3.5149 11.25H7.0298C7.34053 11.25 7.63854 11.1183 7.85826 10.8839C8.07799 10.6495 8.20143 10.3315 8.20143 10C8.20143 9.66848 8.07799 9.35054 7.85826 9.11612C7.63854 8.88169 7.34053 8.75 7.0298 8.75H3.5149C2.58269 8.75 1.68866 9.14509 1.02949 9.84835C0.370319 10.5516 0 11.5054 0 12.5V22.5C0 23.4946 0.370319 24.4484 1.02949 25.1516C1.68866 25.8549 2.58269 26.25 3.5149 26.25H22.261C23.1932 26.25 24.0873 25.8549 24.7464 25.1516C25.4056 24.4484 25.7759 23.4946 25.7759 22.5V12.5C25.7759 11.5054 25.4056 10.5516 24.7464 9.84835C24.0873 9.14509 23.1932 8.75 22.261 8.75ZM4.68653 17.5C4.68653 17.7472 4.75525 17.9889 4.88399 18.1945C5.01273 18.4 5.19571 18.5602 5.4098 18.6548C5.62389 18.7495 5.85946 18.7742 6.08674 18.726C6.31401 18.6777 6.52278 18.5587 6.68663 18.3839C6.85049 18.2091 6.96208 17.9863 7.00728 17.7439C7.05249 17.5014 7.02929 17.25 6.94061 17.0216C6.85193 16.7932 6.70176 16.598 6.50909 16.4607C6.31641 16.3233 6.08989 16.25 5.85816 16.25C5.54743 16.25 5.24942 16.3817 5.02969 16.6161C4.80997 16.8505 4.68653 17.1685 4.68653 17.5Z" fill="white"/>
</svg>
