<svg width="29" height="31" viewBox="0 0 29 31" fill="none" xmlns="http://www.w3.org/2000/svg">
<g clip-path="url(#clip0_714_193)">
<path d="M4.82125 25.4925C5.24408 25.4925 5.58684 25.2403 5.58684 24.9292C5.58684 24.6182 5.24408 24.366 4.82125 24.366C4.39843 24.366 4.05566 24.6182 4.05566 24.9292C4.05566 25.2403 4.39843 25.4925 4.82125 25.4925Z" fill="white"/>
<path d="M28.6865 23.2827L28.3834 23.0907C28.3602 23.0762 26.0443 21.5937 25.4687 19.7947L25.3403 19.3962L25.103 19.7307C25.0956 19.7412 24.7666 20.1802 23.8457 20.6952C23.1639 16.5087 20.8448 11.5107 17.797 9.37974C18.6684 9.45574 19.5424 9.37774 20.3859 9.04674C20.8939 8.84774 20.6747 7.95474 20.1621 8.15674C19.4706 8.42824 18.7777 8.50224 18.0862 8.46424C19.7839 6.78574 21.1168 4.21324 21.1168 2.33224C21.1168 1.88024 21.1168 1.03874 20.4958 1.03874C20.2464 1.03874 20.0448 1.20674 19.7663 1.43874C19.339 1.79424 18.6938 2.33224 17.7461 2.33224C17.385 2.33224 16.7241 1.92124 16.193 1.59124C15.5511 1.19274 15.141 0.948242 14.7961 0.948242C14.2252 0.948242 13.3858 1.44624 12.6452 1.88574C12.344 2.06424 11.932 2.30924 11.8467 2.33274C10.7733 2.33274 10.15 1.79874 9.73655 1.44524C9.49555 1.23824 9.32083 1.08824 9.08771 1.08824C8.47687 1.08824 8.47687 1.87874 8.47687 2.79424C8.47687 4.56124 9.7245 6.89374 11.3582 8.46124C10.3289 8.54074 9.31388 8.87624 8.60061 9.62174C8.20667 10.0327 8.80361 10.6847 9.19616 10.2747C9.78892 9.65474 10.5661 9.38924 11.3976 9.33774C11.4212 9.42924 11.45 9.51924 11.4852 9.60774C8.00182 12.3082 5.52741 18.7207 5.52741 23.0497C5.52741 23.4767 5.558 23.8632 5.60527 24.2272C4.70708 23.7967 4.37942 23.4192 4.37293 23.4107L4.13378 23.1132L4.01607 23.4882C3.4956 25.1402 1.23299 26.5732 1.21028 26.5877L0.878906 26.7952L1.21584 26.9917C1.33402 27.0607 1.45128 27.1212 1.56946 27.1867L1.35627 27.3462L1.46889 28.8662L10.2992 30.9482L13.6472 28.6377C13.9851 28.6397 14.3271 28.6407 14.6752 28.6407L18.5886 30.9482L27.4356 27.9482V26.3437L27.2016 26.1922C27.3184 26.1122 27.4352 26.0307 27.5515 25.9467L27.8615 25.7232L27.7934 25.6872L28.1878 25.5707L28.2546 23.9027L28.0265 23.7282C28.148 23.6497 28.2689 23.5697 28.3903 23.4867L28.6865 23.2827ZM9.3199 2.79424C9.3199 2.57224 9.32268 2.39924 9.32685 2.26474C9.39776 2.32474 9.48026 2.39024 9.56832 2.45774C9.83851 3.15574 10.3497 4.16074 11.2164 4.79374C12.2694 5.56374 12.1294 4.67874 12.6911 3.87074C13.2528 3.06324 13.6329 2.64024 14.5737 4.71724C14.9838 5.62274 15.6674 3.09224 16.3172 2.72274C16.4892 2.82374 16.6606 2.91774 16.8289 2.99774C17.994 5.04174 18.5339 4.40424 19.5689 2.70524C19.8534 2.52524 20.087 2.33224 20.2728 2.17774C20.2738 2.22424 20.2747 2.27574 20.2747 2.33324C20.2747 3.93824 19.059 6.24024 17.5704 7.74174C17.5001 7.54904 17.3995 7.37091 17.2729 7.21524C16.6718 6.48074 15.7323 7.29524 15.2869 7.82974C14.4967 7.55574 13.2093 6.80124 12.3704 7.23324C12.1615 7.3378 11.9696 7.47811 11.8022 7.64874C10.4304 6.29974 9.3199 4.35224 9.3199 2.79424ZM16.8298 8.28124C16.622 8.23371 16.4154 8.18036 16.2102 8.12124C16.4688 7.88074 16.7061 7.79674 16.8057 8.15424C16.8164 8.19324 16.8229 8.23774 16.8298 8.28124ZM13.3075 8.59174C13.1541 8.56024 12.9965 8.53174 12.8343 8.50924C12.7113 8.42607 12.5909 8.33852 12.4733 8.24674C12.8969 7.94024 13.6273 8.10324 14.3253 8.35874C13.9809 8.39624 13.6412 8.47724 13.3075 8.59174ZM13.5179 9.91174C13.2584 9.98174 12.9757 9.95374 12.7314 9.84874C12.8306 9.79224 12.9307 9.74324 13.0308 9.69374C13.193 9.77824 13.3552 9.84874 13.5179 9.91174ZM4.9453 28.1377C3.8399 27.7924 2.7673 27.3348 1.74187 26.7712C2.37078 26.3252 3.74077 25.2467 4.29785 23.9507C4.67974 24.2742 5.56124 24.8642 7.2779 25.3172C7.2487 25.3682 7.21301 25.4227 7.17872 25.4762C5.71326 25.0622 4.87996 24.5387 4.86652 24.5297L4.66445 24.3997L4.56758 24.6332C4.44013 24.9392 4.1412 24.9852 3.97482 24.9852C3.92847 24.9852 3.89742 24.9817 3.89325 24.9812L3.72779 24.9552L3.66754 25.1262C3.54426 25.4752 3.03817 25.9312 2.85278 26.0777L2.54319 26.3227L2.89727 26.4792C3.0289 26.5372 3.06458 26.5907 3.06644 26.6047C3.07107 26.6392 3.01499 26.7302 2.95521 26.7827L2.68547 27.0172L2.99924 27.1737C3.64205 27.4937 4.37015 27.7587 5.09825 27.9772C5.04031 28.0387 4.99026 28.0912 4.9453 28.1377ZM8.68264 26.2747C9.33056 26.3727 10.0485 26.4347 10.8326 26.4347H10.8331C10.9962 26.4347 11.1617 26.4317 11.3304 26.4262C11.3416 26.464 11.3577 26.4998 11.3781 26.5327C11.4194 26.6002 11.475 26.6562 11.5454 26.6997L10.3627 27.7902C10.3401 27.7892 10.3176 27.7887 10.295 27.7887C9.76807 27.7887 9.37505 27.9977 9.18642 28.3697C8.47175 28.2714 7.76039 28.1468 7.05358 27.9962C7.62176 27.4508 8.1654 26.8763 8.68264 26.2747ZM3.42284 26.8732C3.46918 26.7787 3.49931 26.6642 3.48309 26.5392C3.46768 26.4265 3.41757 26.3226 3.34081 26.2442C3.5489 26.0517 3.83578 25.7547 3.99336 25.4472C4.35161 25.4417 4.6473 25.2952 4.83361 25.0362C5.14737 25.2132 5.85415 25.5707 6.89832 25.8807C6.47148 26.4582 5.89632 27.1132 5.44908 27.6002C4.75204 27.4012 4.0499 27.1612 3.42284 26.8732ZM10.0276 28.9777L9.9326 28.9782C9.53356 28.9782 8.21131 28.9432 6.46452 28.5507C6.5257 28.4947 6.5892 28.4372 6.64805 28.3822C8.06532 28.7017 9.20821 28.8387 9.29395 28.8492L9.46357 28.8687L9.51594 28.6912C9.63042 28.3082 10.0526 28.2517 10.2946 28.2517C10.3608 28.2517 10.4049 28.2562 10.41 28.2567L10.4999 28.2672L12.5544 26.3732L12.0052 26.3537C11.8217 26.3467 11.7443 26.3022 11.7253 26.2717L11.8416 25.9432L11.5199 25.9577C11.2854 25.9687 11.0565 25.9742 10.8326 25.9742H10.8322C10.1852 25.9742 9.585 25.9282 9.03024 25.8557L9.15908 25.6917C10.2788 25.8532 11.6196 25.9527 13.2385 25.9402C12.8519 26.5252 11.8879 27.7687 10.0276 28.9777ZM14.6733 26.8052V27.7177C14.4096 27.7177 14.1529 27.7167 13.9017 27.7147L13.8261 26.6877L13.1986 26.7427C13.6213 26.2037 13.8016 25.8442 13.8178 25.8117L13.9879 25.4647L13.6287 25.4717C10.1907 25.5397 7.94852 25.0977 6.53312 24.6067C6.42977 24.1557 6.36998 23.6457 6.36998 23.0502C6.36998 18.9887 8.7758 12.8497 11.97 10.3617C12.5358 10.9522 13.3942 11.2107 14.2099 10.6362C14.3888 10.5102 14.5445 10.3452 14.6905 10.1697C14.7252 10.1707 14.7609 10.1792 14.7961 10.1792C14.9129 10.1792 15.0316 10.1687 15.1498 10.1527C15.2995 10.2172 15.4459 10.2822 15.5817 10.3467C16.2319 10.6557 16.7872 10.4637 17.1663 10.0377C20.0921 11.9477 22.4363 17.0002 23.0531 21.0842C21.7156 21.6612 19.5939 22.2242 16.3376 22.3232C16.98 21.9272 17.462 21.2612 17.2886 20.3862C17.1065 19.4612 16.39 19.2012 15.648 19.1587C15.6461 18.7242 15.6461 18.2907 15.6489 17.8562C15.8765 17.9647 16.0948 18.0897 16.2931 18.2232C16.6435 18.4607 16.9605 17.8452 16.6124 17.6077C16.3107 17.4031 15.9885 17.2355 15.6522 17.1082C15.6568 16.6052 15.6591 16.1032 15.6591 15.6012C15.6596 15.1412 15.026 15.1412 15.026 15.6012C15.026 16.0427 15.0232 16.4837 15.0195 16.9242C14.6823 16.8608 14.338 16.8546 13.999 16.9057C13.9439 16.5748 13.8771 16.2462 13.7988 15.9207C13.694 15.4777 13.0823 15.6652 13.1884 16.1097C13.2663 16.4292 13.3298 16.7472 13.3821 17.0697C13.3552 17.0807 13.326 17.0862 13.2996 17.0992C12.4413 17.4657 11.9176 18.4002 12.5456 19.2717C12.838 19.6777 13.2204 19.8417 13.6389 19.8962C13.6616 20.4977 13.676 21.0997 13.6922 21.7007C13.4118 21.5042 13.1564 21.2522 12.9252 20.9857C12.6387 20.6597 12.1915 21.1632 12.4775 21.4887C12.8663 21.9352 13.2746 22.2727 13.7172 22.4887C13.7371 23.0022 13.7654 23.5172 13.8118 24.0282C13.8525 24.4817 14.4866 24.4842 14.4453 24.0282C14.4062 23.5863 14.3773 23.1433 14.3586 22.6997C14.5996 22.7447 14.8527 22.7562 15.1215 22.7287C15.1516 23.2017 15.1868 23.6747 15.2369 24.1477C15.2656 24.4187 15.5057 24.5252 15.6827 24.4702L15.6433 25.4522C15.3643 25.4792 15.0798 25.5042 14.7832 25.5252L14.43 25.5502L14.6182 25.8782C14.6372 25.9112 14.8508 26.2757 15.3277 26.8062H14.6733V26.8052ZM26.2079 23.5142C25.6253 23.8097 24.8884 24.0807 24.1376 24.3172C23.676 23.8027 23.0856 23.1162 22.6448 22.5072C23.6269 22.1862 24.1766 21.8552 24.4245 21.6767C24.6206 21.8632 24.8801 21.9602 25.1874 21.9597C25.2893 21.9597 25.3797 21.9492 25.4492 21.9372C25.6717 22.2482 26.0304 22.6072 26.2547 22.8217C26.1486 22.9392 26.0971 23.0692 26.1013 23.2097C26.105 23.3297 26.1495 23.4317 26.2079 23.5142ZM22.8919 25.1572C22.9864 25.2472 23.0842 25.3392 23.1838 25.4322C21.305 25.9697 19.9067 26.0282 19.6022 26.0337C17.6566 24.7532 16.6481 23.3982 16.2593 22.7882C17.8874 22.7442 19.2333 22.5852 20.3558 22.3662C20.4015 22.4267 20.4477 22.4867 20.4944 22.5462C19.5922 22.6978 18.6829 22.7951 17.7706 22.8377L17.3966 22.8547L17.6024 23.1942C17.6019 23.1947 17.5602 23.2787 17.284 23.3367L16.8349 23.4312L19.0428 25.3597L19.1457 25.3297C19.148 25.3292 19.3427 25.2727 19.5781 25.2727C19.9178 25.2727 20.15 25.3842 20.2668 25.6022L20.341 25.7402L20.4851 25.7127C21.2924 25.554 22.095 25.3687 22.8919 25.1572ZM16.3585 23.6877L15.831 23.6567C15.8065 23.3727 15.7819 23.0887 15.7634 22.8047C15.8561 22.9707 16.0461 23.2827 16.3585 23.6877ZM15.7059 21.8572C15.6755 21.1842 15.6571 20.5106 15.6508 19.8367C15.7268 19.8397 15.8019 19.8472 15.8732 19.8582C16.6926 19.9922 16.9067 20.9752 16.2672 21.5282C16.1003 21.6707 15.908 21.7752 15.7059 21.8572ZM20.544 25.2332C20.3363 24.9567 20.0059 24.8117 19.5786 24.8117C19.4002 24.8117 19.243 24.8377 19.1439 24.8587L17.7558 23.6452C17.8712 23.5737 17.9491 23.4832 17.9917 23.3722C18.0022 23.3446 18.0103 23.316 18.0158 23.2867C19.1161 23.2217 20.043 23.1032 20.8267 22.9582C21.2067 23.4157 21.7652 24.0467 22.5058 24.7802C21.596 25.0137 20.8373 25.1737 20.544 25.2332ZM15.0168 19.8547C15.0256 20.5792 15.0422 21.3057 15.0779 22.0297C15.0181 22.0397 14.9593 22.0522 14.9004 22.0587C14.7011 22.0832 14.512 22.0652 14.3322 22.0162C14.3095 21.3162 14.2947 20.6147 14.2701 19.9142C14.5195 19.9017 14.772 19.8752 15.0168 19.8547ZM14.2381 19.2222C14.2092 18.6728 14.1613 18.1248 14.0945 17.5792C14.4017 17.5337 14.714 17.5508 15.0154 17.6297C15.012 18.1409 15.0113 18.6521 15.013 19.1632C14.8096 19.1752 14.6163 19.1962 14.4462 19.2127C14.377 19.2186 14.3076 19.2217 14.2381 19.2222ZM13.6023 19.1347C13.5629 19.1232 13.5239 19.1142 13.4836 19.0997C13.2982 19.0319 13.1303 18.9176 12.9937 18.7662C12.598 18.3677 13.1411 17.9767 13.4836 17.7912C13.5374 18.2362 13.5745 18.6852 13.6023 19.1347ZM18.7175 28.8677C16.7056 27.7587 15.6262 26.5262 15.1975 25.9552C15.5057 25.9302 15.7972 25.9002 16.086 25.8687L19.3849 28.1787L26.6195 26.0347C22.8886 28.4607 19.2027 28.8302 18.7175 28.8677ZM24.6924 24.9227C24.6331 24.8587 24.5622 24.7827 24.4783 24.6912C25.3014 24.4222 26.0976 24.1102 26.6913 23.7672L27.0523 23.5577L26.6862 23.3567C26.6042 23.3112 26.524 23.2277 26.5226 23.1962C26.5235 23.1842 26.556 23.1202 26.6964 23.0332L26.9643 22.8672L26.7261 22.6532C26.7186 22.6467 25.9757 21.9812 25.7148 21.5527L25.6286 21.4127L25.4807 21.4592C25.4794 21.4592 25.3524 21.4987 25.1874 21.4987C24.9325 21.4992 24.7415 21.4092 24.6192 21.2322L24.4838 21.0387L24.3142 21.1962C24.3054 21.2042 23.7803 21.6687 22.3719 22.1077C22.3255 22.0357 22.2808 21.9623 22.2379 21.8877C23.9458 21.3292 24.8185 20.6532 25.1966 20.2832C25.8038 21.7002 27.2493 22.8417 27.8768 23.2892C26.8687 23.9474 25.8019 24.4946 24.6924 24.9227Z" fill="white"/>
<path d="M19.5045 22.34C19.0663 22.2115 18.5719 22.2992 18.3987 22.5339C18.2269 22.7696 18.444 23.0664 18.8817 23.1958C19.3204 23.3243 19.8143 23.2361 19.9875 23.0009C20.1593 22.7653 19.9431 22.4694 19.5045 22.34Z" fill="white"/>
</g>
<defs>
<clipPath id="clip0_714_193">
<rect width="28.1273" height="30.3449" fill="white"/>
</clipPath>
</defs>
</svg>
