<svg width="6670" height="4975" viewBox="0 0 6670 4975" fill="none" xmlns="http://www.w3.org/2000/svg">
<path d="M4378.16 4966.76C4594.89 4900.62 4789.35 4833.05 5023.28 4704.8C5264.55 4572.53 6336.32 3943.04 6475.7 2853.57C6512.21 2554.98 6481.9 2252.21 6386.87 1966.17C6343.79 1842.87 6254.43 1595.24 6028.9 1350.35C5752.82 1050.38 5437.8 934.116 5253.08 868.368C4864.44 729.972 4538.48 737.263 4383.23 742.21C4215.72 747.548 3920.03 759.526 3583.94 902.87C3364.67 996.349 3228.37 1102.98 3027.51 1262.34C2709.28 1515.04 2667.41 1620.24 2110.71 2142.06C1957.87 2285.27 1832.23 2398.15 1640.45 2509.34C1507.47 2586.41 1399.98 2629.51 1201.65 2708.14C714.18 2901.48 575.386 2940.63 415.874 3049.47C105.652 3261.3 125.745 3492.3 112.408 3542.04C77.7255 3669.23 69.6964 3801.94 88.8011 3932.23C129.479 4193.53 273.654 4364.35 363.146 4467.72C485.987 4608.33 634.842 4725.1 801.939 4811.95C917.939 4871.7 1038.09 4923.43 1161.51 4966.76H4378.16Z" fill="#D5EFC8"/>
<path d="M5066.25 4782.02L5059.71 4770.68C5378.48 4595.87 6429.4 3940.55 6569.18 2847.24C6606.86 2537.2 6575.41 2222.88 6476.98 1925.82C6437.27 1812.14 6344.29 1545.93 6105.56 1286.62C5813.21 969.083 5479.45 850.242 5300.13 786.391C5010.81 684.722 4703.68 640.165 4396.57 655.307C4230.87 660.571 3922.43 670.361 3566.43 822.093L3561.09 810.167C3919.44 657.43 4241.41 647.208 4396.14 642.288C4704.95 627.085 5013.78 671.91 5304.7 774.16C5485.1 838.393 5820.91 957.958 6115.49 1277.93C6356.03 1539.2 6449.63 1807.18 6489.6 1921.62C6588.66 2220.55 6620.33 2536.85 6582.42 2848.84C6441.86 3948.22 5386.38 4606.46 5066.25 4782.02Z" fill="#D5EFC8"/>
<path d="M4244.89 0.445312H919.053C827.178 0.445312 752.698 73.1504 752.698 162.837V2548.48C752.698 2638.17 827.178 2710.87 919.053 2710.87H4244.89C4336.76 2710.87 4411.24 2638.17 4411.24 2548.48V162.837C4411.24 73.1504 4336.76 0.445312 4244.89 0.445312Z" fill="#E5E1E5"/>
<path d="M4411.24 322.527H752.698V337.304H4411.24V322.527Z" fill="#A2AEE6"/>
<path d="M959.543 247.551C1047.12 247.551 1047.27 114.688 959.543 114.688C871.965 114.688 871.82 247.551 959.543 247.551V247.551Z" fill="#FFBA55"/>
<path d="M1186.39 247.551C1273.96 247.551 1274.11 114.688 1186.39 114.688C1098.81 114.688 1098.66 247.551 1186.39 247.551V247.551Z" fill="#F73C4F"/>
<path d="M1398.13 247.551C1485.7 247.551 1485.85 114.688 1398.13 114.688C1310.55 114.688 1310.4 247.551 1398.13 247.551V247.551Z" fill="#4F66D0"/>
<path d="M4175.94 1538.43H1607.2V1553.2H4175.94V1538.43Z" fill="#A2AEE6"/>
<path d="M4175.94 1984.87H1607.2V1999.65H4175.94V1984.87Z" fill="#A2AEE6"/>
<path d="M4175.94 2437.17H1607.2V2451.95H4175.94V2437.17Z" fill="#A2AEE6"/>
<path d="M4175.94 623.051H1607.2V637.828H4175.94V623.051Z" fill="#A2AEE6"/>
<path d="M4175.94 1075.39H1607.2V1090.17H4175.94V1075.39Z" fill="#A2AEE6"/>
<path d="M4276.78 174.613H4075.12V187.633H4276.78V174.613Z" fill="#A2AEE6"/>
<path d="M4182.65 82.7344H4169.31V279.588H4182.65V82.7344Z" fill="#A2AEE6"/>
<path d="M1146.33 694.669L1056.7 618.635L1074.19 598.976L1145.05 659.087L1289.34 518.242L1308.2 536.652L1146.33 694.669Z" fill="#4F66D0"/>
<path d="M1146.33 1630.9L1056.7 1554.87L1074.19 1535.21L1145.05 1595.33L1289.34 1454.47L1308.2 1472.88L1146.33 1630.9Z" fill="#4F66D0"/>
<path d="M1146.3 1156.59L1056.66 1080.54L1074.17 1060.9L1145.02 1121.02L1289.31 980.176L1308.17 998.585L1146.3 1156.59Z" fill="#4F66D0"/>
<path d="M1182.1 2086.8C1159.99 2086.8 1138.38 2080.4 1120 2068.41C1101.62 2056.42 1087.3 2039.38 1078.84 2019.45C1070.38 1999.51 1068.17 1977.57 1072.48 1956.41C1076.79 1935.25 1087.44 1915.81 1103.07 1900.55C1118.7 1885.29 1138.61 1874.9 1160.29 1870.69C1181.97 1866.48 1204.44 1868.64 1224.87 1876.9C1245.29 1885.16 1262.74 1899.14 1275.03 1917.08C1287.31 1935.02 1293.86 1956.12 1293.86 1977.7C1293.83 2006.62 1282.04 2034.35 1261.09 2054.81C1240.14 2075.26 1211.73 2086.76 1182.1 2086.8ZM1182.1 1894.63C1165.27 1894.63 1148.82 1899.5 1134.82 1908.63C1120.83 1917.76 1109.92 1930.73 1103.48 1945.91C1097.04 1961.09 1095.36 1977.79 1098.64 1993.9C1101.93 2010.01 1110.03 2024.81 1121.93 2036.43C1133.83 2048.05 1148.99 2055.96 1165.5 2059.16C1182 2062.37 1199.11 2060.72 1214.66 2054.44C1230.21 2048.15 1243.5 2037.5 1252.85 2023.84C1262.2 2010.18 1267.19 1994.12 1267.19 1977.7C1267.16 1955.67 1258.19 1934.56 1242.23 1918.99C1226.28 1903.42 1204.66 1894.66 1182.1 1894.63Z" fill="#F73C4F"/>
<path d="M1182.08 2522.69C1159.97 2522.69 1138.36 2516.29 1119.98 2504.3C1101.6 2492.32 1087.27 2475.28 1078.81 2455.34C1070.35 2435.4 1068.13 2413.47 1072.44 2392.3C1076.76 2371.14 1087.4 2351.69 1103.03 2336.43C1118.66 2321.17 1138.58 2310.78 1160.26 2306.57C1181.94 2302.36 1204.41 2304.52 1224.84 2312.78C1245.26 2321.03 1262.72 2335.02 1275 2352.96C1287.28 2370.9 1293.84 2391.99 1293.84 2413.57C1293.81 2442.5 1282.02 2470.23 1261.07 2490.69C1240.12 2511.15 1211.71 2522.65 1182.08 2522.69ZM1182.08 2330.51C1165.24 2330.51 1148.79 2335.38 1134.8 2344.51C1120.8 2353.64 1109.89 2366.61 1103.45 2381.79C1097.01 2396.97 1095.32 2413.67 1098.61 2429.78C1101.89 2445.9 1109.99 2460.7 1121.9 2472.32C1133.8 2483.94 1148.96 2491.85 1165.47 2495.05C1181.98 2498.26 1199.09 2496.61 1214.64 2490.33C1230.19 2484.04 1243.48 2473.39 1252.83 2459.73C1262.18 2446.07 1267.17 2430 1267.16 2413.57C1267.14 2391.55 1258.16 2370.44 1242.21 2354.87C1226.26 2339.3 1204.63 2330.54 1182.08 2330.51Z" fill="#FFBA55"/>
<path d="M1280.52 2413.57C1280.48 2439.04 1270.1 2463.46 1251.65 2481.47C1233.2 2499.48 1208.19 2509.61 1182.09 2509.65C1163.53 2509.72 1168.71 2317.57 1182.09 2317.48C1195.03 2317.45 1207.84 2319.92 1219.8 2324.74C1231.75 2329.55 1242.62 2336.63 1251.76 2345.56C1260.91 2354.49 1268.16 2365.09 1273.09 2376.76C1278.03 2388.43 1280.55 2400.94 1280.52 2413.57Z" fill="#FFBA55"/>
<path d="M4724.29 834.092C4724.29 834.092 4689.91 756.24 4884.07 776.762C5078.22 797.285 5066.08 865.019 5025.61 1152.96C5025.61 1152.96 4732.01 1283.43 4724.29 834.092Z" fill="#1E1D22"/>
<path d="M4775.1 1253L4795.71 1458.64L5086.49 1538.04L5037.9 1256.78L5025.57 1152.92C5025.57 1152.92 4850.57 1157.47 4934.54 1062.52C4966.02 1026.92 4961.21 949.381 4909.95 991.221C4909.95 991.221 4841.31 1016.55 4835.3 956.488C4829.29 896.433 4844.19 871.65 4844.19 871.65C4844.19 871.65 4760.38 866.877 4724.25 834.059L4693.37 870.967C4686.37 879.325 4681.28 889.042 4678.43 899.47C4675.59 909.899 4675.05 920.8 4676.85 931.448L4679.16 945.085L4609.97 1014.17C4607.17 1016.96 4605.52 1020.65 4605.35 1024.55C4605.18 1028.45 4606.49 1032.27 4609.04 1035.28C4612.83 1039.76 4617.98 1046.23 4624.94 1055.55C4629.88 1062.74 4633.19 1070.88 4634.63 1079.41C4636.08 1087.95 4635.64 1096.69 4633.33 1105.05L4709.42 1104.87C4703.75 1121.19 4693.57 1135.66 4680 1146.68C4659.7 1160.9 4628.2 1161.74 4628.17 1166.43C4627.99 1203.82 4643.53 1277.97 4775.1 1253Z" fill="#F9977A"/>
<path d="M4767.92 952.303C4765.68 952.661 4763.38 952.216 4761.45 951.049C4759.52 949.881 4758.09 948.071 4757.42 945.953C4747.66 915.133 4698.33 897.391 4680.15 893.16C4678.95 892.88 4677.81 892.371 4676.81 891.664C4675.81 890.956 4674.96 890.063 4674.32 889.035C4673.67 888.008 4673.24 886.866 4673.04 885.675C4672.85 884.484 4672.89 883.267 4673.18 882.094C4673.47 880.921 4673.99 879.815 4674.71 878.838C4675.44 877.861 4676.35 877.034 4677.41 876.402C4678.46 875.771 4679.63 875.348 4680.85 875.158C4682.07 874.968 4683.32 875.014 4684.52 875.294C4687.61 876.021 4760.5 893.494 4775.39 940.533C4776.12 942.859 4775.88 945.375 4774.72 947.528C4773.55 949.681 4771.56 951.294 4769.18 952.014C4768.77 952.139 4768.35 952.235 4767.92 952.303Z" fill="#1E1D22"/>
<path d="M4870.15 1188.25C4843.85 1230.98 4775.14 1253.02 4775.14 1253.02L4788.09 1382.2C4824.04 1330.13 4870.15 1188.25 4870.15 1188.25Z" fill="#DD765E"/>
<path d="M4709.43 975.877C4713.63 975.735 4717.62 974.004 4720.54 971.049C4723.46 968.095 4725.1 964.148 4725.1 960.04C4725.1 955.932 4723.46 951.985 4720.54 949.031C4717.62 946.076 4713.63 944.345 4709.43 944.203C4705.22 944.345 4701.24 946.076 4698.31 949.031C4695.39 951.985 4693.76 955.932 4693.76 960.04C4693.76 964.148 4695.39 968.095 4698.31 971.049C4701.24 974.004 4705.22 975.735 4709.43 975.877Z" fill="#1E1D22"/>
<path d="M4457.37 2211.42L4366.91 2143.42C4354.05 2133.74 4338.68 2127.74 4322.53 2126.09C4294.26 2123.19 4248.77 2117.16 4228.87 2106.96C4209.56 2097.06 4199.82 2105.66 4209.68 2124.64C4215.49 2135.82 4235.92 2150.54 4289.45 2167.96L4242.87 2179.6C4235.98 2181.32 4228.8 2181.62 4221.78 2180.5C4214.75 2179.37 4208.05 2176.83 4202.09 2173.04L4150.81 2140.47C4147.63 2138.46 4143.81 2137.63 4140.05 2138.15C4136.3 2138.67 4132.86 2140.49 4130.38 2143.29L4130.38 2143.3C4128.94 2144.92 4127.87 2146.82 4127.23 2148.87C4126.6 2150.93 4126.41 2153.09 4126.68 2155.22C4126.95 2157.35 4127.68 2159.4 4128.82 2161.24C4129.96 2163.07 4131.48 2164.66 4133.28 2165.88L4225.84 2228.81C4225.84 2228.81 4216.94 2303.32 4288.18 2319.46C4359.42 2335.61 4457.37 2307.05 4457.37 2307.05V2211.42Z" fill="#F9977A"/>
<path d="M4176.49 2462.92L4484.2 2443.86L4167.49 2005.81L3866.68 2025.79L4176.49 2462.92Z" fill="#F73C4F"/>
<path d="M4485.57 2311.87L4325.47 2174.73C4325.47 2174.73 4239.26 2148.88 4189.63 2128.85C4175.8 2123.5 4160.58 2122.58 4146.17 2126.21C4131.77 2129.84 4118.91 2137.84 4109.46 2149.06C4090.89 2170.76 4091.55 2192.67 4143.2 2227.17C4220.44 2278.78 4259.81 2297.8 4283.07 2304.63C4286.88 2305.74 4298.93 2310.21 4310.6 2314.62C4327.58 2321.03 4345.83 2323.58 4363.97 2322.06L4485.57 2311.87ZM4142.79 1520.38L4040.33 1471.2C4025.75 1464.21 4013.45 1453.41 4004.8 1439.99C3989.64 1416.51 3964 1379.35 3945.84 1366.43C3928.21 1353.89 3931.8 1341.56 3953.61 1341.81C3966.45 1341.95 3989.01 1353.35 4028.66 1392.53L4018.78 1346.6C4017.31 1339.8 4014.42 1333.37 4010.28 1327.72C4006.15 1322.07 4000.85 1317.32 3994.73 1313.77L3942.15 1283.25C3938.89 1281.36 3936.44 1278.38 3935.26 1274.87C3934.08 1271.35 3934.24 1267.53 3935.72 1264.12L3935.72 1264.12C3936.58 1262.14 3937.85 1260.36 3939.46 1258.9C3941.06 1257.43 3942.97 1256.31 3945.04 1255.61C3947.12 1254.91 3949.33 1254.64 3951.52 1254.83C3953.71 1255.01 3955.83 1255.64 3957.76 1256.68L4056.48 1309.94C4056.48 1309.94 4121.02 1269.22 4167.33 1324.48C4213.64 1379.73 4230.67 1478.14 4230.67 1478.14L4142.79 1520.38Z" fill="#F9977A"/>
<path d="M4279.05 2197.74C4266.92 2195.86 4255 2192.88 4243.44 2188.85C4231.89 2184.98 4220.6 2180.43 4209.63 2175.22C4198.61 2169.99 4188 2163.98 4177.88 2157.23C4167.54 2150.58 4158.24 2142.52 4150.25 2133.29L4215.49 2163.53C4237.38 2173.63 4258.61 2185.06 4279.05 2197.74ZM4258.52 2226.54C4245.16 2225.07 4231.97 2222.31 4219.16 2218.32C4206.33 2214.48 4193.8 2209.74 4181.66 2204.14C4169.4 2198.53 4157.75 2191.71 4146.91 2183.8C4135.58 2176.2 4126.35 2166.01 4120.01 2154.11C4130.02 2162.35 4140.95 2169.46 4152.6 2175.29C4164 2181.27 4175.55 2187.07 4187.41 2192.4C4210.91 2203.54 4234.92 2213.78 4258.52 2226.54ZM4232.85 2248.84C4221.58 2248.08 4210.44 2246.06 4199.64 2242.83C4188.87 2239.74 4178.35 2235.88 4168.16 2231.28C4147.38 2222.39 4128.86 2209.14 4113.93 2192.47C4124.44 2196.85 4134.25 2201.49 4144.16 2206.04L4173.82 2219.5C4193.53 2228.67 4213.33 2237.52 4232.85 2248.84ZM4093.86 1336.28C4085.76 1335.59 4078.04 1332.65 4071.59 1327.82C4065.08 1323.21 4059.88 1317.07 4056.47 1309.96C4060.79 1309.58 4065.13 1310.23 4069.14 1311.84C4072.83 1313.22 4076.32 1315.07 4079.51 1317.35C4086.24 1322.01 4091.26 1328.64 4093.86 1336.28ZM4116.68 1325.31C4109.13 1323.16 4102.21 1319.32 4096.46 1314.09C4093.84 1311.74 4091.37 1309.24 4089.07 1306.6C4086.65 1303.94 4084.8 1301.14 4081.58 1297.89C4083.68 1297.05 4085.94 1296.63 4088.21 1296.67C4090.49 1296.71 4092.73 1297.2 4094.8 1298.12C4098.68 1299.56 4102.25 1301.68 4105.34 1304.39C4111.68 1309.72 4115.73 1317.19 4116.68 1325.31ZM4144.56 1324.37C4140.28 1320.67 4136.74 1316.22 4134.16 1311.24C4133.21 1309.26 4132.35 1307.43 4131.57 1305.42C4130.46 1302.81 4129.04 1300.33 4127.36 1298.03C4129.01 1297.03 4130.91 1296.49 4132.86 1296.44C4134.81 1296.4 4136.73 1296.86 4138.43 1297.79C4141.71 1299.46 4144.37 1302.1 4146.03 1305.33C4147.55 1308.27 4148.26 1311.55 4148.1 1314.84C4148.02 1318.31 4146.78 1321.65 4144.56 1324.37Z" fill="#DD765E"/>
<path d="M5023.83 4590.44C5023.83 4590.44 5068.35 4911.61 5044.39 4921.99C5020.44 4932.37 4415.14 4977.89 4524.21 4921.55L4705.55 4839.45C4770.33 4810.12 4821.97 4744.61 4821.35 4674.91L4830.69 4576.91L5023.83 4590.44Z" fill="#D87E6A"/>
<path d="M5182.07 2497.72L5187.38 2545.75C5202.41 2681.61 5178.56 2818.87 5118.46 2942.29V3158.37L5082.71 4585.32C5082.4 4597.47 5077.24 4609.02 5068.33 4617.51C5059.42 4626 5047.47 4630.75 5035.02 4630.75H4784.2C4772.47 4630.75 4761.15 4626.53 4752.41 4618.9C4743.66 4611.27 4738.1 4600.76 4736.79 4589.38L4636.88 3721.96C4621.55 3588.91 4616.29 3454.93 4621.13 3321.12L4650.93 2497.71L5182.07 2497.72Z" fill="#FFBA55"/>
<path d="M4253.79 1429.93C4372.63 1491.82 4535.79 1692.97 4535.79 1692.97L4741.52 1500.1L4787.67 1387.48L4931.13 1349.28C4966.27 1339.93 5014.37 1311.44 5033.82 1281.37C5038.37 1273.99 5039.83 1265.17 5037.89 1256.76C5037.79 1256.1 5037.68 1255.44 5037.57 1254.77L5124 1429.27C5204.8 1560.44 5229.3 1711.71 5217.66 1864.34L5182.04 2497.68C5182.04 2497.68 4601.94 2567.22 4627.38 2497.68L4632.01 2385.89L4568.86 2378.46L4467 2358.2C4457.27 2356.27 4448.62 2350.87 4442.74 2343.06C4436.86 2335.24 4434.17 2325.58 4435.19 2315.93L4445.72 2216.07C4446.71 2206.69 4451.13 2197.98 4458.19 2191.54C4465.24 2185.11 4474.44 2181.37 4484.09 2181.04L4591.76 2177.28L4645.19 2135.06L4650.9 1958.58L4619.34 1963.87C4575.75 1969.6 4531.38 1964.49 4490.36 1949C4449.34 1933.51 4412.99 1908.15 4384.7 1875.28L4143.47 1559.92C4139.5 1554.81 4136.9 1548.81 4135.89 1542.47C4134.89 1536.13 4135.52 1529.64 4137.72 1523.6C4151.76 1484.85 4179.21 1452.1 4215.33 1430.99C4221.11 1427.61 4227.68 1425.74 4234.42 1425.55C4241.15 1425.36 4247.82 1426.87 4253.79 1429.93Z" fill="#6C7FD8"/>
<path d="M5078.87 1356.01C5059.08 1368.48 5039.15 1380.69 5018.83 1392.21C4998.6 1403.9 4978.37 1415.58 4957.84 1426.72C4916.83 1449.09 4875.49 1470.85 4833.6 1491.63L4827.93 1494.44L4825.79 1488.96L4806.06 1438.49C4802.75 1430.09 4799.83 1421.53 4796.69 1413.06C4793.57 1404.58 4790.53 1396.07 4787.68 1387.48C4792.05 1395.44 4796.22 1403.48 4800.3 1411.56C4804.37 1419.65 4808.66 1427.64 4812.56 1435.8L4836.09 1484.68L4828.28 1482.01C4869.03 1459.19 4910.33 1437.34 4951.97 1416.11C4972.76 1405.45 4993.86 1395.33 5014.95 1385.21C5035.96 1374.93 5057.35 1365.34 5078.87 1356.01ZM4645.2 2135.06C4664.92 2126.81 4685.22 2119.96 4705.94 2114.57C4726.58 2108.9 4747.34 2103.66 4768.22 2098.86C4809.95 2089.22 4851.89 2080.48 4894.04 2072.67L4891.65 2075.55L4880.54 1825.86C4877.91 1784.04 4878.44 1742.08 4882.13 1700.34C4885.02 1657.95 4896.23 1616.49 4915.15 1578.23C4925.12 1558.79 4939.36 1541.75 4956.86 1528.31C4974.9 1515.13 4996.25 1506.94 5018.66 1504.6C5040.91 1502.37 5063.39 1505.12 5084.39 1512.65C5105.39 1520.17 5124.36 1532.27 5139.85 1548.03C5155.27 1563.72 5167.15 1582.4 5174.72 1602.85C5182.45 1622.56 5188.82 1642.75 5193.81 1663.28C5203.63 1704.19 5210.07 1745.79 5213.09 1787.7C5218.81 1871.22 5216.94 1955.08 5207.5 2038.28C5203.36 2079.85 5197.53 2121.24 5190.82 2162.47C5188.75 2183.93 5181.98 2204.72 5170.96 2223.41C5159.94 2242.1 5144.94 2258.26 5126.97 2270.79C5118 2277.04 5108.32 2282.26 5098.13 2286.34L5068.21 2297.77C5048.22 2305.18 5028.16 2312.38 5007.94 2319.17C4967.54 2332.79 4926.75 2345.41 4885.35 2355.85C4844.02 2366.57 4802.1 2374.97 4759.79 2381C4717.52 2387.36 4674.66 2389 4632.02 2385.89C4674.62 2388.05 4717.34 2385.47 4759.35 2378.2C4801.35 2371.26 4842.91 2361.98 4883.82 2350.39C4924.75 2338.9 4965.25 2326.1 5005.34 2311.98C5025.38 2304.97 5045.28 2297.55 5065.08 2289.93C5084.99 2283.49 5103.95 2274.54 5121.48 2263.3C5138.21 2251.34 5152.1 2235.98 5162.18 2218.29C5172.26 2200.6 5178.3 2180.98 5179.89 2160.79C5186.14 2119.69 5191.94 2078.51 5195.83 2037.15C5204.83 1954.62 5206.33 1871.48 5200.32 1788.69C5197.17 1747.48 5190.66 1706.57 5180.87 1666.36C5176.1 1646.34 5169.97 1626.64 5162.53 1607.4C5155.66 1588.51 5144.8 1571.23 5130.66 1556.7C5116.55 1542.23 5099.26 1531.09 5080.09 1524.12C5060.91 1517.15 5040.36 1514.54 5020 1516.48C4999.75 1518.5 4980.43 1525.81 4964.08 1537.65C4947.91 1550.01 4934.73 1565.7 4925.49 1583.61C4907.19 1620.55 4896.2 1660.53 4893.11 1701.45C4888.93 1742.68 4887.87 1784.17 4889.95 1825.55L4897.44 2075.35L4897.51 2077.83L4895.04 2078.23C4852.85 2085.16 4810.78 2092.95 4768.86 2101.62C4747.91 2105.98 4727.07 2110.75 4706.32 2115.93C4685.5 2120.86 4665.08 2127.25 4645.2 2135.06ZM4741.54 1500.1C4735.46 1518.86 4728.6 1537.32 4722.16 1555.94C4715.27 1574.43 4708.35 1592.72 4702.57 1611.39C4690.71 1648.57 4681.46 1686.5 4674.88 1724.91C4668.68 1763.46 4664.5 1802.29 4662.34 1841.26L4657.33 1899.96C4655.17 1919.5 4653.47 1939.06 4650.91 1958.58C4650.45 1938.91 4650.85 1919.28 4650.8 1899.62L4652.1 1840.73C4652.46 1821.11 4653.19 1801.53 4654.5 1781.71C4656.01 1761.98 4658.49 1742.31 4661.73 1722.76C4668.41 1683.7 4678.84 1645.33 4692.9 1608.18C4707.17 1571.07 4724.36 1535.71 4741.54 1500.1ZM4535.8 1692.96C4531.84 1716.73 4527.48 1739.35 4524.8 1762.31C4523.16 1773.73 4522.41 1785.2 4521.62 1796.75C4520.77 1808.34 4521.04 1819.89 4520.53 1832.05C4515.53 1820.94 4512.38 1809.11 4511.22 1797.03C4509.92 1784.96 4510.04 1772.79 4511.57 1760.75C4513.08 1748.75 4515.82 1736.94 4519.73 1725.47C4523.51 1713.96 4528.91 1703.01 4535.8 1692.96Z" fill="#065082"/>
<path d="M5019.23 2174.8C4999.78 2155.47 4981.18 2136.7 4960.97 2119.64C4950.91 2111.13 4940.41 2103.13 4929.51 2095.68C4918.24 2088.32 4906.58 2081.57 4894.56 2075.46C4922.63 2079.08 4948.87 2091.08 4969.69 2109.81C4980.19 2118.82 4989.75 2128.83 4998.21 2139.7C5006.79 2150.43 5013.86 2162.24 5019.23 2174.8ZM5143.9 2318.86C5140.76 2332.68 5135.3 2345.9 5127.73 2357.98C5120.25 2370.3 5111 2381.51 5100.24 2391.26C5089.22 2400.99 5076.41 2408.61 5062.49 2413.7C5048.66 2418.61 5033.81 2420.16 5019.23 2418.2C5032.78 2415.12 5045.9 2410.48 5058.32 2404.39C5070.22 2398.13 5081.3 2390.48 5091.3 2381.61C5111.37 2362.84 5129.03 2341.77 5143.9 2318.86ZM5128.64 2398.33C5123.13 2411.01 5114.72 2422.29 5104.04 2431.29C5093.48 2440.53 5081.48 2448.09 5068.51 2453.7C5055.51 2459.08 5041.78 2462.61 5027.76 2464.21C5020.82 2464.99 5013.84 2465.31 5006.86 2465.17C4999.92 2464.8 4993.01 2464.05 4986.16 2462.91C4992.95 2461.14 4999.67 2460.21 5006.28 2458.8C5012.84 2457.1 5019.46 2456.16 5025.83 2454.22C5038.57 2450.97 5051.06 2446.8 5063.18 2441.77C5087.62 2431.46 5109.83 2416.72 5128.64 2398.33ZM4591.79 2177.29C4598.6 2204.01 4602.95 2231.28 4604.8 2258.76C4607.24 2286.19 4607.15 2313.79 4604.51 2341.21C4597.68 2314.49 4593.33 2287.22 4591.51 2259.74C4589.09 2232.3 4589.19 2204.71 4591.79 2177.29ZM4305.86 1463.25C4290.21 1487.45 4272.46 1510.28 4252.81 1531.51C4233.62 1553.13 4212.53 1573.08 4189.8 1591.14C4205.42 1566.93 4223.17 1544.09 4242.84 1522.88C4262.06 1501.28 4283.14 1481.33 4305.86 1463.25Z" fill="#065082"/>
<path d="M4894.56 2523.81C4890.19 2600.6 4884.77 2677.31 4879.81 2754.06L4863.34 2984.16C4857.77 3060.86 4852.32 3137.56 4845.96 3214.2L4827.54 3444.15L4827.55 3442.66L4838.99 3591.04L4849.45 3739.5L4870.34 4036.43L4889.1 4333.49C4894.86 4432.55 4900.75 4531.6 4905.57 4630.73C4895.73 4531.96 4886.95 4433.11 4878.06 4334.28L4852.82 4037.66L4829.73 3740.89L4818.19 3592.51L4807.65 3444.06L4807.59 3443.28L4807.65 3442.56L4827.72 3212.74C4834.18 3136.12 4841.56 3059.56 4848.81 2983L4870.83 2753.34C4878.7 2676.83 4886.11 2600.28 4894.56 2523.81ZM5118.46 2942.27C5115.64 2951.01 5110.99 2959.09 5104.82 2965.99C5098.89 2972.99 5091.84 2979.01 5083.95 2983.82C5075.62 2989.03 5066.11 2992.18 5056.25 2992.97C5051.11 2993.71 5045.86 2993.01 5041.12 2990.96C5036.37 2988.91 5032.31 2985.6 5029.41 2981.39C5037.45 2982.37 5045.6 2980.97 5052.82 2977.38C5059.73 2974.05 5066.46 2970.39 5073 2966.41C5079.82 2962.28 5086.77 2957.97 5094.26 2953.9C5101.97 2949.37 5110.07 2945.48 5118.46 2942.27Z" fill="#E6952A"/>
<path d="M4741.55 2528.61C4746.13 2565.26 4748.5 2601.92 4750.01 2638.58C4750.78 2656.91 4751.24 2675.24 4751.62 2693.56C4751.68 2711.89 4752.21 2730.22 4751.89 2748.55L4749.76 2742.41C4769.59 2767.99 4789.11 2793.82 4807.79 2820.27C4826.52 2846.67 4844.81 2873.41 4861.58 2901.3C4838.33 2878.27 4816.61 2854.1 4795.34 2829.59C4774.01 2805.12 4753.52 2780.03 4733.34 2754.7L4731.27 2752.09L4731.2 2748.55C4730.88 2730.22 4731.41 2711.89 4731.48 2693.56C4731.85 2675.24 4732.32 2656.91 4733.09 2638.58C4734.6 2601.92 4736.97 2565.26 4741.55 2528.61ZM5042.05 3515.26C5047.62 3536.08 5048.68 3557.81 5045.15 3579.06C5042.11 3600.53 5035.66 3621.4 5026.02 3640.92C5016.41 3660.42 5003.83 3678.38 4988.71 3694.2C4981.3 3702.09 4973.27 3709.42 4964.69 3716.1C4956.01 3722.54 4946.91 3728.42 4937.43 3733.68C4943.79 3724.87 4951.07 3717.33 4957.41 3709.02C4963.6 3700.59 4970.42 3692.87 4975.97 3684.21L4984.73 3671.66L4992.65 3658.65C4997.96 3650.06 5002.81 3641.19 5007.15 3632.09C5016.19 3613.99 5023.58 3595.15 5029.23 3575.79C5035.16 3555.98 5039.44 3535.74 5042.05 3515.26ZM5051.67 3668.06C5045.81 3708.94 5027.69 3747.2 4999.58 3778.04C4985.02 3793.89 4966.78 3806.11 4946.4 3813.68C4925.92 3820.43 4903.72 3820.32 4883.31 3813.36C4902.98 3812.23 4922.23 3807.36 4939.98 3799.01C4956.58 3789.86 4971.52 3778.09 4984.2 3764.19C4997.46 3750.09 5009.42 3734.86 5019.93 3718.7C5030.81 3702.41 5041.17 3685.55 5051.67 3668.06Z" fill="#E6952A"/>
<path d="M4059.08 1794.84H4053.79V1948.51H4059.08V1794.84Z" fill="#7CA1B1"/>
<path d="M4456.34 2003.48L4290.88 2073.02L4292.98 2077.78L4458.44 2008.24L4456.34 2003.48Z" fill="#7CA1B1"/>
<path d="M4276.53 1793.86L4212.22 1947.55L4217.13 1949.51L4281.45 1795.81L4276.53 1793.86Z" fill="#7CA1B1"/>
<path d="M4498.44 4960.8C4468.54 4920.48 4490.04 4871.17 4547.02 4848.75L4786.7 4754.45C4790.97 4752.94 4795.57 4752.53 4800.05 4753.26C4804.53 4754 4808.74 4755.85 4812.27 4758.65L4897.74 4837.44C4901.46 4840.38 4905.92 4842.27 4910.66 4842.92C4915.4 4843.57 4920.22 4842.96 4924.63 4841.15L5025.37 4799.9C5039.04 4794.3 5056.38 4801.12 5056.35 4812.08L5055.92 4946.2C5055.89 4953.99 5046.71 4960.27 5035.4 4960.23L4498.53 4960.92L4498.44 4960.8Z" fill="#6C7FD8"/>
<path d="M2273.94 4615.44L2276.63 4731.94C2276.63 4731.94 2432.38 4854.29 2629 4887.53C2629 4887.53 2689.48 4915.27 2690.48 4958.81L2100.5 4957.37L2095.28 4731.5L2092.59 4615L2273.94 4615.44Z" fill="#F9977A"/>
<path d="M2680.4 4929.28L2100.44 4927.89C2098.62 4927.89 2096.81 4928.24 2095.13 4928.93C2093.45 4929.61 2091.92 4930.62 2090.65 4931.89C2089.37 4933.16 2088.37 4934.67 2087.7 4936.33C2087.03 4937.98 2086.7 4939.75 2086.74 4941.53L2086.81 4944.34C2086.89 4947.81 2088.36 4951.13 2090.9 4953.56C2093.45 4956 2096.87 4957.37 2100.44 4957.37L2698.59 4958.81C2698.59 4958.81 2714.84 4940.97 2680.4 4929.28Z" fill="#84382A"/>
<path d="M2444.4 4923.54C2438.57 4910.2 2437.82 4895.27 2442.29 4881.43C2453.04 4849.82 2488.98 4836.79 2493.04 4835.4C2497.56 4834.03 2502.43 4834.43 2506.66 4836.49C2510.88 4838.56 2514.12 4842.15 2515.7 4846.49C2517.27 4850.84 2517.06 4855.62 2515.11 4859.82C2513.16 4864.02 2509.61 4867.32 2505.22 4869.02C2492.48 4873.2 2481.92 4882.08 2475.78 4893.75C2474.74 4898.21 2474.72 4902.84 2475.73 4907.31C2476.74 4911.78 2478.75 4915.98 2481.61 4919.6C2484.18 4923.54 2485.05 4928.3 2484.05 4932.86C2483.04 4937.42 2480.24 4941.41 2476.24 4943.97C2474.24 4945.16 2472.01 4945.96 2469.69 4946.3C2467.37 4946.64 2465.01 4946.53 2462.73 4945.97C2460.46 4945.41 2458.32 4944.41 2456.45 4943.04C2454.57 4941.66 2452.99 4939.93 2451.81 4937.96C2448.91 4933.37 2446.43 4928.55 2444.4 4923.54ZM2078.86 4737.76C2077.46 4734.38 2077.16 4730.65 2078 4727.09C2078.85 4723.53 2080.79 4720.31 2083.58 4717.87C2085.35 4716.38 2087.41 4715.26 2089.64 4714.56C2091.87 4713.87 2094.22 4713.62 2096.55 4713.83C2098.87 4714.04 2101.13 4714.71 2103.19 4715.79C2105.25 4716.87 2107.07 4718.35 2108.53 4720.13C2130.94 4746.32 2155.05 4759.89 2180.2 4760.47C2225.87 4761.52 2262.84 4720.41 2263.21 4720.01C2264.75 4718.29 2266.62 4716.9 2268.72 4715.91C2270.81 4714.92 2273.09 4714.35 2275.42 4714.25C2277.75 4714.14 2280.07 4714.49 2282.26 4715.28C2284.44 4716.06 2286.44 4717.28 2288.14 4718.84C2291.69 4721.97 2293.87 4726.33 2294.21 4730.99C2294.56 4735.66 2293.05 4740.27 2289.99 4743.87C2288.08 4746.06 2242.48 4797.25 2180.56 4795.97C2144.64 4795.22 2111.47 4777.36 2081.96 4742.86C2080.65 4741.34 2079.6 4739.62 2078.86 4737.76Z" fill="#84382A"/>
<path d="M2078.86 4737.76C2077.61 4734.72 2077.23 4731.41 2077.77 4728.19C2078.31 4724.96 2079.75 4721.94 2081.92 4719.45C2083.46 4717.74 2085.34 4716.35 2087.45 4715.37C2089.56 4714.38 2091.84 4713.83 2094.18 4713.73C2096.51 4713.63 2098.84 4714 2101.02 4714.8C2103.2 4715.61 2105.2 4716.84 2106.88 4718.42C2111.4 4722.49 2217.39 4819.69 2192.13 4932.37C2191.66 4934.6 2190.74 4936.71 2189.41 4938.58C2188.08 4940.45 2186.38 4942.04 2184.4 4943.24C2182.42 4944.45 2180.22 4945.25 2177.91 4945.59C2175.61 4945.94 2173.26 4945.83 2171 4945.26C2166.37 4944.03 2162.4 4941.1 2159.91 4937.1C2157.42 4933.09 2156.6 4928.3 2157.62 4923.72C2178.3 4831.36 2084.52 4745.39 2083.59 4744.53C2081.51 4742.65 2079.89 4740.34 2078.86 4737.76Z" fill="#84382A"/>
<path d="M1591.78 4604.16L1570.44 4718.82C1570.44 4718.82 1605.09 4791.34 1790.85 4862.47C1790.85 4862.47 1917.24 4923.89 1909.27 4966.75L1792.25 4964.35L1351.5 4905.11L1392.88 4682.83L1414.22 4568.17L1591.78 4604.16Z" fill="#F9977A"/>
<path d="M1893.3 4931.44L1749.2 4934.78L1359.64 4876.46C1356.83 4876.04 1353.96 4876.72 1351.66 4878.36C1349.37 4880 1347.83 4882.47 1347.39 4885.21L1346.04 4893.61C1345.13 4899.33 1341.92 4908.78 1350.88 4913.2L1753.39 4966.71H1909.28C1909.28 4966.71 1924.63 4949.65 1893.3 4931.44Z" fill="#84382A"/>
<path d="M1710.98 4922.61C1708.01 4908.4 1710.35 4893.62 1717.57 4880.95C1734.61 4852.09 1772.51 4846.37 1776.77 4845.81C1781.47 4845.35 1786.17 4846.7 1789.88 4849.55C1793.59 4852.4 1796.02 4856.55 1796.67 4861.11C1797.32 4865.68 1796.13 4870.32 1793.35 4874.05C1790.58 4877.78 1786.43 4880.32 1781.78 4881.13C1768.44 4882.73 1756.26 4889.35 1747.85 4899.58C1745.91 4903.75 1744.94 4908.28 1745.01 4912.86C1745.08 4917.43 1746.18 4921.94 1748.24 4926.05C1749.95 4930.41 1749.82 4935.24 1747.9 4939.51C1745.98 4943.79 1742.41 4947.15 1737.97 4948.87C1735.76 4949.64 1733.42 4949.98 1731.07 4949.86C1728.73 4949.74 1726.44 4949.17 1724.32 4948.17C1722.21 4947.18 1720.32 4945.78 1718.77 4944.07C1717.21 4942.35 1716.02 4940.35 1715.27 4938.18C1713.38 4933.12 1711.94 4927.91 1710.98 4922.61ZM1375.52 4685.71C1374.84 4682.12 1375.32 4678.41 1376.87 4675.09C1378.43 4671.77 1381 4669 1384.23 4667.15C1386.27 4666.04 1388.53 4665.34 1390.85 4665.1C1393.18 4664.86 1395.53 4665.07 1397.77 4665.74C1400.01 4666.4 1402.08 4667.5 1403.88 4668.96C1405.67 4670.43 1407.15 4672.23 1408.21 4674.26C1424.78 4704.31 1445.6 4722.33 1470.11 4727.83C1514.64 4737.82 1559.32 4704.79 1559.77 4704.47C1561.62 4703.09 1563.74 4702.1 1566 4701.54C1568.26 4700.98 1570.61 4700.87 1572.91 4701.22C1575.21 4701.57 1577.42 4702.37 1579.4 4703.57C1581.38 4704.77 1583.09 4706.35 1584.43 4708.21C1587.26 4711.98 1588.5 4716.68 1587.87 4721.31C1587.25 4725.95 1584.82 4730.17 1581.09 4733.1C1578.77 4734.87 1523.56 4776.07 1463.17 4762.68C1428.14 4754.9 1399.32 4730.9 1377.51 4691.32C1376.53 4689.57 1375.86 4687.68 1375.52 4685.71Z" fill="#84382A"/>
<path d="M1375.56 4685.75C1374.96 4682.53 1375.27 4679.22 1376.47 4676.16C1377.66 4673.11 1379.69 4670.43 1382.33 4668.42C1384.19 4667.04 1386.32 4666.05 1388.58 4665.5C1390.85 4664.95 1393.2 4664.86 1395.51 4665.22C1397.81 4665.58 1400.02 4666.4 1401.99 4667.61C1403.97 4668.83 1405.67 4670.43 1406.99 4672.3C1410.58 4677.18 1494.41 4793.18 1446.47 4898.61C1445.56 4900.7 1444.21 4902.59 1442.53 4904.16C1440.84 4905.73 1438.85 4906.95 1436.66 4907.74C1434.48 4908.54 1432.15 4908.89 1429.82 4908.78C1427.5 4908.67 1425.22 4908.09 1423.12 4907.09C1418.84 4904.98 1415.55 4901.34 1413.93 4896.92C1412.32 4892.51 1412.5 4887.66 1414.44 4883.37C1453.71 4796.95 1379.54 4694.34 1378.8 4693.32C1377.15 4691.07 1376.04 4688.48 1375.56 4685.75Z" fill="#84382A"/>
<path d="M2640.36 3454.72L2505.21 3525.93C2490.65 3518.38 2474.04 3515.45 2457.7 3517.55C2441.36 3519.66 2426.1 3526.69 2414.04 3537.66L2382.74 3566.17L2207.43 3560.8C2345.51 3483.26 2246.52 3005.15 2184.01 2793.36C2143.47 2655.98 2121.25 2495.83 2132.7 2414.5C2143.81 2335.52 2123.95 2335.19 2083.6 2223.57C2067.85 2179.96 2089.76 2002.05 2068.38 1908.15C2041.2 1788.71 2267.4 1968.07 2289.65 2012.29C2352.28 2136.8 2392.08 2357.73 2383.17 2441.72C2362.1 2640.31 2568.91 2989.71 2595.56 3082.9C2636.73 3226.89 2683.89 3277.76 2640.36 3454.72Z" fill="#376F92"/>
<path d="M2564.38 3452.49C2562.47 3406.97 2563.17 3361.82 2563.08 3316.71C2563.31 3294.16 2562.94 3271.65 2562.54 3249.15C2562.45 3226.59 2560.73 3204.07 2557.41 3181.74C2565.83 3203.15 2571.05 3225.62 2572.93 3248.47C2575.35 3271.14 2576.51 3293.93 2576.41 3316.73C2576.52 3362.24 2572.49 3407.67 2564.38 3452.49ZM2335.07 3529.51C2337.42 3515.66 2340.37 3502 2342.86 3488.22L2351.34 3447.18L2368.36 3365.26C2374.25 3338.02 2379.37 3310.68 2384.56 3283.34C2387.27 3269.68 2389.25 3255.95 2391.28 3242.17L2393.96 3221.46L2395.6 3200.57C2396.36 3207.51 2397.14 3214.53 2397.49 3221.56L2397.79 3242.68C2397.08 3256.7 2396.22 3270.76 2394.72 3284.72C2391.88 3312.69 2387.06 3340.38 2381.42 3367.84C2375.53 3395.26 2369.17 3422.58 2361.27 3449.5C2353.53 3476.45 2345.27 3503.27 2335.07 3529.51ZM2440.23 3142.13C2435.52 3115.91 2430.98 3089.71 2425.59 3063.65C2420.69 3037.52 2415.48 3011.45 2409.73 2985.5C2398.4 2933.58 2387.03 2881.67 2372.7 2830.52C2359.21 2779.17 2343.86 2728.3 2326.01 2678.26C2321.86 2665.64 2316.64 2653.42 2312.01 2640.96L2304.84 2622.34L2296.73 2604.12C2291.25 2592.02 2286.74 2579.4 2280.43 2567.66C2274.33 2555.81 2268.34 2543.87 2262.47 2531.82C2291.6 2577.03 2316.1 2624.91 2335.63 2674.8C2354.98 2724.73 2371.65 2775.61 2385.59 2827.24C2398.93 2878.98 2410.55 2931.11 2419.76 2983.64C2428.82 3036.18 2436.42 3088.99 2440.23 3142.13Z" fill="#10394F"/>
<path d="M1659.61 2732.82L1384.23 4624.74C1382.29 4668.39 1570.42 4718.79 1588.02 4674.73L1951.28 3048.79L2061.22 4568.13C2062.06 4581.88 2072.65 4680.71 2086.76 4680.71H2274.97C2278 4680.74 2280.95 4679.75 2283.32 4677.91C2285.69 4676.07 2287.34 4673.49 2287.99 4670.6C2292.71 4640.41 2294.81 4609.88 2294.27 4579.35L2276.56 2732.82L1659.61 2732.82Z" fill="#376F92"/>
<path d="M1588.44 3718.91C1603.66 3722.61 1619.12 3725.27 1634.71 3726.85C1650.17 3728.54 1665.77 3728.82 1681.28 3727.67C1696.72 3726.49 1711.93 3723.26 1726.48 3718.09C1740.97 3712.43 1754.42 3704.5 1766.29 3694.61C1755.66 3706.22 1742.65 3715.54 1728.12 3721.97C1713.32 3727.93 1697.68 3731.68 1681.74 3733.1C1649.95 3735.12 1618.1 3730.27 1588.44 3718.91ZM1563.54 3805.72C1581.6 3805.18 1599.56 3803.73 1617.42 3801.93C1635.28 3800.25 1653.01 3797.52 1670.53 3793.78C1688.09 3790.51 1705.24 3785.43 1721.7 3778.64C1738.36 3772.15 1753.53 3762.47 1766.29 3750.16C1754.83 3764.07 1740.16 3775.14 1723.48 3782.46C1706.95 3789.98 1689.57 3795.57 1671.7 3799.11C1636.14 3806.21 1599.73 3808.43 1563.54 3805.72L1563.54 3805.72ZM2054.4 3731.03C2067.66 3733.15 2081.04 3734.51 2094.46 3735.11C2107.79 3735.77 2121.15 3735.48 2134.43 3734.23C2161.13 3732.16 2187.14 3724.88 2210.9 3712.82C2199.94 3720.72 2187.81 3726.96 2174.93 3731.31C2161.98 3735.59 2148.56 3738.39 2134.95 3739.66C2107.78 3742.07 2080.39 3739.13 2054.4 3731.03ZM2054.4 3805.87C2069.71 3810.07 2085.34 3813.01 2101.15 3814.69C2116.87 3816.52 2132.7 3817.31 2148.53 3817.04C2164.37 3816.95 2180.18 3815.86 2195.88 3813.8C2211.66 3812.05 2227.21 3808.87 2242.92 3805.87C2227.83 3811.16 2212.31 3815.2 2196.53 3817.95C2180.69 3820.68 2164.66 3822.2 2148.59 3822.49C2132.5 3822.56 2116.43 3821.33 2100.54 3818.82C2084.66 3816.43 2069.16 3812.08 2054.4 3805.87ZM1876.55 2993.23C1894.88 3007.24 1914 3020.18 1933.34 3032.66C1952.64 3045.2 1972.6 3056.71 1993.16 3067.16C2013.57 3077.8 2034.81 3086.84 2056.67 3094.22C2078.61 3101.53 2101.42 3106.1 2124.54 3107.81C2101.12 3108.12 2077.78 3104.89 2055.37 3098.22C2033.02 3091.36 2011.34 3082.58 1990.58 3071.99C1969.94 3061.27 1950.02 3049.29 1930.93 3036.12C1911.83 3023.04 1893.66 3008.71 1876.55 2993.23ZM1744.95 3107.81C1771.56 3103.62 1798.11 3099.97 1824.2 3094.22C1837.26 3091.63 1850.15 3088.27 1862.8 3084.16C1875.64 3080.57 1887.59 3074.44 1897.9 3066.14C1888.82 3076.16 1877.26 3083.72 1864.31 3088.09C1851.66 3092.89 1838.64 3096.72 1825.38 3099.55C1798.94 3105.03 1771.98 3107.8 1744.95 3107.81ZM2000.55 3086.98C2003.01 3102.92 2010.44 3117.73 2021.81 3129.42C2032.67 3141.41 2045.27 3151.77 2059.21 3160.19C2065.98 3164.72 2073.27 3168.5 2080.37 3172.54C2087.79 3176.04 2095.11 3179.76 2102.62 3183.12C2117.66 3189.86 2133.17 3195.51 2148.66 3201.56C2140.59 3199.6 2132.6 3197.29 2124.53 3195.16C2116.56 3192.76 2108.82 3189.69 2100.93 3186.98C2093.07 3184.19 2085.68 3180.27 2078.03 3176.95C2070.71 3172.97 2063.19 3169.28 2056.17 3164.75C2041.9 3155.89 2029.19 3144.86 2018.5 3132.07C2007.32 3119.54 2000.97 3103.59 2000.55 3086.98Z" fill="#10394F"/>
<path d="M1586.27 1948.51C1586.27 1948.51 1634.04 1916.96 1664.69 1796.42C1695.34 1675.88 1706.29 1577.83 1665.39 1655.75L1635.23 1715.62C1635.23 1715.62 1616.24 1617.51 1610.17 1558.09C1608.81 1542.3 1602.3 1527.36 1591.59 1515.46C1580.88 1503.56 1566.54 1495.33 1550.68 1491.99C1520.81 1486.35 1500.44 1499.44 1493.85 1569.03C1483.98 1673.12 1481.81 1728.37 1487.08 1754.77C1488.9 1763.91 1516.84 1861.26 1516.84 1861.26L1586.27 1948.51Z" fill="#F9977A"/>
<path d="M1641.84 1775.73C1640.05 1770.9 1638.67 1765.93 1637.72 1760.88C1636.7 1755.95 1635.93 1750.97 1635.41 1745.96C1634.98 1740.97 1634.53 1735.98 1634.57 1730.92C1634.44 1725.81 1634.66 1720.69 1635.24 1715.6C1637.57 1720.24 1639.35 1725.14 1640.52 1730.18C1641.77 1735.12 1642.66 1740.14 1643.16 1745.2C1643.69 1750.25 1643.86 1755.33 1643.67 1760.4C1643.59 1765.56 1642.98 1770.69 1641.84 1775.73ZM1587.23 1657.43C1584.29 1645.3 1582.1 1633.02 1580.66 1620.63C1579 1608.29 1578.15 1595.86 1577.68 1583.41C1577.22 1570.93 1577.52 1558.44 1578.57 1546C1579.43 1533.51 1581.69 1521.15 1585.31 1509.14C1583.98 1534.02 1584.65 1558.48 1585.47 1583.17L1586.61 1620.2C1586.95 1632.57 1587.34 1644.95 1587.23 1657.43ZM1549.78 1652.96C1545.85 1639.86 1542.82 1626.51 1540.72 1613.01C1538.48 1599.51 1537.06 1585.89 1536.47 1572.23C1535.76 1558.5 1536.31 1544.74 1538.11 1531.11C1539.38 1517.33 1543.67 1503.98 1550.69 1491.96C1546.54 1504.81 1544.31 1518.18 1544.08 1531.65C1543.58 1545.04 1543.53 1558.47 1544.25 1571.92C1545.27 1598.85 1547.88 1625.74 1549.78 1652.96ZM1515.98 1640.65C1512.4 1629.77 1509.68 1618.63 1507.85 1607.34C1505.9 1596.07 1504.63 1584.7 1504.04 1573.29C1503.47 1561.85 1503.7 1550.39 1504.71 1538.98C1505.7 1527.55 1507.88 1516.25 1511.24 1505.27C1510.95 1516.72 1510.56 1527.95 1510.7 1539.21C1511.03 1550.47 1511.17 1561.69 1511.82 1572.92L1513.78 1606.67L1515.98 1640.65Z" fill="#DD765E"/>
<path d="M1581.36 1854.38L1503.11 1837.02L1399.2 2200.62C1364.8 2320.98 1524.38 2400.56 1604.27 2302.92C1636.04 2264.08 1658.38 2231.49 1663.17 2212.01L1680.95 2416.87L1503.83 3595.25C1625.56 3657.67 1760.45 3691.69 1897.92 3694.64C2046.7 3694.9 2193.43 3660.85 2326.17 3595.25C2320.93 3182.91 2276.03 2830.99 2277.76 2423.5C2277.9 2390.6 2307.3 2110 2306.97 2083.54L2466.48 2288.19C2541.72 2375.21 2680.44 2375.21 2748.03 2222.43L2854.73 1993.27L2705.34 1902.99L2598.64 2069.65L2382.67 1750.91C2357.21 1713.34 2322.61 1682.51 2281.96 1661.18C2241.32 1639.85 2195.89 1628.69 2149.74 1628.69H1824.13C1794.44 1628.69 1765.24 1636.03 1739.25 1650.02C1713.25 1664.02 1691.31 1684.21 1675.48 1708.72L1581.36 1854.38Z" fill="#FFBA55"/>
<path d="M1421.68 2121.85C1443.76 2074.69 1469.32 2029.52 1495.75 1984.84C1522.52 1940.35 1550.16 1896.36 1581.33 1854.38C1559.28 1901.55 1533.71 1946.72 1507.26 1991.39C1480.47 2035.86 1452.82 2079.85 1421.68 2121.85ZM1663.14 2212.01C1660.39 2182.21 1659.1 2152.41 1658.03 2122.6C1656.81 2092.8 1656.64 2063 1656.48 2033.2C1656.62 2003.39 1656.8 1973.59 1658.01 1943.79L1659.87 1899.08C1660.98 1884.18 1661.63 1869.28 1663.14 1854.38C1664.65 1869.28 1665.3 1884.18 1666.41 1899.08L1668.27 1943.79C1669.48 1973.59 1669.66 2003.39 1669.81 2033.2C1669.64 2063 1669.47 2092.8 1668.25 2122.6C1667.18 2152.41 1665.89 2182.21 1663.14 2212.01ZM2306.94 2083.54C2285.06 2053.07 2264.38 2021.9 2243.92 1990.6C2223.3 1959.39 2203.57 1927.65 2183.86 1895.91L2183.53 1895.38L2183.36 1894.9C2176.8 1876.37 2172.35 1857.19 2170.09 1837.72C2167.77 1818.29 2168 1798.65 2170.77 1779.28C2173.83 1759.92 2180.22 1741.2 2189.68 1723.93C2199.63 1707.16 2212.89 1692.49 2228.69 1680.77C2214.94 1694.1 2203.73 1709.7 2195.58 1726.86C2187.68 1743.83 2182.77 1761.97 2181.05 1780.52C2179.51 1799.08 2180.06 1817.74 2182.69 1836.18C2185.13 1854.59 2189.51 1872.71 2195.77 1890.24L2195.27 1889.24C2214.68 1921.15 2234.08 1953.07 2252.59 1985.52C2271.25 2017.87 2289.7 2050.36 2306.94 2083.54ZM1705.82 2635.62C1726.35 2642.22 1746.99 2648.15 1767.97 2652.81C1778.38 2655.4 1788.91 2657.49 1799.36 2659.85L1831 2665.55C1873.22 2672.4 1915.92 2676.09 1958.72 2676.59C1980.11 2677.47 2001.42 2675.87 2022.77 2675C2033.41 2674.16 2044 2672.82 2054.64 2671.76L2070.57 2670.02L2086.37 2667.37C2096.89 2665.52 2107.52 2664.02 2118 2661.88L2149.15 2654.1C2154.35 2652.81 2159.67 2651.84 2164.79 2650.28L2180.09 2645.33C2190.28 2641.97 2200.55 2638.73 2210.9 2635.62C2172 2654.48 2130.8 2668.46 2088.29 2677.21L2072.36 2680.79C2067.01 2681.69 2061.6 2682.29 2056.21 2683.06C2045.42 2684.45 2034.65 2686.12 2023.82 2687.28C2002.09 2688.56 1980.34 2690.27 1958.55 2689.6C1915.01 2689.1 1871.64 2684.32 1829.08 2675.34C1786.58 2666.72 1745.23 2653.39 1705.82 2635.62ZM2687.53 2121.85C2677.16 2104.54 2664.4 2088.71 2649.61 2074.8C2643.01 2068.54 2634.55 2064.5 2625.44 2063.23C2621.21 2063.41 2617.06 2064.45 2613.26 2066.3C2609.47 2068.14 2606.12 2070.75 2603.43 2073.95L2603.05 2064.99C2612.67 2074.66 2620.59 2085.81 2626.51 2097.99C2632.42 2109.79 2636.96 2122.21 2640.02 2135C2645.68 2160.34 2646.11 2186.52 2641.29 2212.01L2640.01 2192.97C2639.17 2186.68 2638.73 2180.4 2637.58 2174.22C2635.74 2161.89 2632.97 2149.72 2629.3 2137.8C2625.58 2126.05 2620.79 2114.65 2615 2103.74C2609.41 2093.08 2602.41 2083.19 2594.17 2074.32L2589.09 2069.07L2593.79 2065.36C2597.94 2061.13 2602.77 2057.59 2608.09 2054.89C2610.8 2053.32 2613.82 2052.33 2616.96 2051.98C2620.05 2051.24 2623.26 2051.11 2626.41 2051.59C2638.04 2053.47 2648.63 2059.27 2656.33 2067.99C2663.55 2075.77 2669.78 2084.38 2674.85 2093.64C2679.93 2102.66 2684.17 2112.1 2687.53 2121.85Z" fill="#E6952A"/>
<path d="M2724.18 1914.35L2802.59 1718.95L2926.22 1558.04C2927.73 1556.08 2929.62 1554.42 2931.79 1553.17C2933.96 1551.92 2936.36 1551.1 2938.86 1550.76C2941.35 1550.42 2943.89 1550.57 2946.33 1551.19C2948.77 1551.81 2951.06 1552.9 2953.06 1554.38C2956.94 1557.26 2959.55 1561.47 2960.35 1566.16C2961.15 1570.85 2960.09 1575.67 2957.37 1579.62L2887.96 1680.76C2887.96 1680.76 2984.42 1614.35 2991.29 1730.1C2991.76 1737.93 2989.3 1745.65 2984.38 1751.84C2979.46 1758.03 2972.4 1762.27 2964.52 1763.76C2952.99 1765.81 2941.92 1769.84 2931.83 1775.66C2931.83 1775.66 2943.68 1885.62 2870.17 1889.09L2839.37 1983.95L2724.18 1914.35Z" fill="#F9977A"/>
<path d="M2784.7 1763.5C2784.7 1763.5 2795.97 1683.71 2788.32 1663.31C2786.44 1657.74 2786.84 1651.66 2789.45 1646.37C2797.48 1628.81 2814.24 1606.93 2828.32 1685.45L2802.57 1718.96L2784.7 1763.5ZM1870.21 1634.33L1861.31 1174.27H2211.67V1447.72C2211.67 1476.5 2199.96 1504.1 2179.11 1524.46C2158.26 1544.81 2129.98 1556.24 2100.5 1556.24H2092.51L2094.29 1634.33H1870.21Z" fill="#F9977A"/>
<path d="M2092.48 1556.24H2036.47L2094.26 1634.33L2092.48 1556.24Z" fill="#DD765E"/>
<path d="M1868.67 1556.23C1868.67 1556.23 1925.63 1640.67 2101.38 1384.33C2101.38 1384.33 2029.11 1345.84 2092.93 1301.24C2098.63 1297.23 2105.39 1294.89 2112.41 1294.5C2125.19 1293.85 2144.65 1295.74 2145.84 1313.15L2211.64 1174.26C2211.64 1174.26 2279.22 1189.88 2275.67 1111.76C2275.67 1111.76 2345.03 1071.83 2259.66 1037.11C2259.66 1037.11 2263.22 939.886 2168.96 1011.07C2168.96 1011.07 2104.93 866.97 1941.32 1071.83C1941.32 1071.83 1674.55 1094.4 1800.82 1311.41L1868.67 1556.23Z" fill="#1E1D22"/>
<path d="M2091.75 1447.2C2112.26 1447.2 2128.88 1430.97 2128.88 1410.95C2128.88 1390.94 2112.26 1374.71 2091.75 1374.71C2071.25 1374.71 2054.62 1390.94 2054.62 1410.95C2054.62 1430.97 2071.25 1447.2 2091.75 1447.2Z" fill="#F73C4F"/>
<path d="M2191.32 3515.58L2042.48 3552.53C2030.25 3541.75 2014.87 3534.96 1998.49 3533.11C1982.12 3531.27 1965.56 3534.46 1951.13 3542.24L1913.66 3562.45L1744.97 3515.58C1898.23 3473.19 1921.46 2985.94 1913.66 2765.66C1908.6 2622.78 1926.99 2462.17 1958.38 2386.01C1988.86 2312.04 1969.67 2307 1958.38 2189.16C1953.98 2143.11 2019.6 1975.76 2022.29 1879.61C2025.71 1757.3 2045.89 1610.98 2162.52 1595.3C2241.96 1584.6 2296.77 1652.26 2313.78 1680.71C2313.78 1680.71 2277.92 1652.92 2245.44 1664.3C2174.27 1689.21 2200.38 1985.03 2210.92 2033.21C2240.61 2168.85 2224.11 2392.59 2194.52 2471.94C2124.56 2659.55 2238.01 3047.59 2240.61 3144.3C2244.63 3293.74 2277.68 3354.29 2191.32 3515.58Z" fill="#376F92"/>
<path d="M2118.2 3495.36C2127.71 3450.75 2139.64 3407.13 2150.81 3363.35C2156.65 3341.53 2161.91 3319.62 2167.14 3297.7C2172.67 3275.8 2176.63 3253.54 2178.97 3231.1C2181.8 3253.86 2181.26 3276.89 2177.38 3299.5C2174.07 3322.07 2169.52 3344.45 2163.73 3366.53C2152.49 3410.7 2137.25 3453.81 2118.2 3495.36ZM1876.58 3515.55C1882.32 3502.68 1888.59 3490.13 1894.44 3477.36L1912.9 3439.57L1949.84 3364.16C1962.35 3339.14 1974.13 3313.84 1985.98 3288.56C1992.02 3275.95 1997.36 3263.1 2002.77 3250.22L2010.53 3230.77L2017.34 3210.9C2016.34 3217.82 2015.34 3224.81 2013.93 3231.71L2008.96 3252.26C2004.77 3265.7 2000.43 3279.13 1995.49 3292.32C1985.77 3318.76 1974.18 3344.47 1961.87 3369.77C1949.31 3394.96 1936.33 3419.94 1921.95 3444.18C1907.73 3468.48 1893.02 3492.53 1876.58 3515.55Z" fill="#10394F"/>
<path d="M1792.84 1136.81C1730.43 1174.27 1676.49 1191.45 1653.6 1328.3C1641.05 1403.37 1641.05 1403.37 1644 1550.15C1651.06 1900.6 1612.31 1973.04 1595.99 2000.1C1557.3 2064.26 1535.66 2054.26 1480.75 2143.84C1438.05 2213.51 1395.04 2283.68 1397.53 2371.94C1400.35 2471.7 1461.26 2593.03 1570.38 2637.53C1722.59 2699.62 1903.83 2585.79 1980.1 2468.8C2076.36 2321.15 2046.61 2105.31 2037.71 2040.72C2030.97 1991.8 2015.5 1916.12 2031.31 1812.62C2033.03 1801.36 2037.15 1776.5 2066.52 1678.26C2133.16 1455.38 2026.87 1351.92 1964.09 1268.93C1912.13 1200.24 1828.97 1115.13 1792.84 1136.81Z" fill="#1E1D22"/>
<path d="M2118.23 2368.81L2126.57 2239.75C2129.07 2196.75 2132.01 2153.83 2133.99 2110.87C2136.05 2067.93 2137.39 2024.98 2137.6 1982.05C2137.32 1960.61 2137.05 1939.13 2135.11 1917.79C2133.94 1896.35 2130.41 1875.08 2124.6 1854.37C2141.87 1894.51 2144.93 1938.84 2147.86 1981.78C2150.08 2025.05 2149.07 2068.32 2147.3 2111.48C2144.97 2154.63 2141.69 2197.7 2136.74 2240.6C2131.91 2283.51 2126.18 2326.32 2118.23 2368.81ZM2075.23 3164.83C2077.2 3138.28 2079.33 3111.78 2080.6 3085.23C2082.36 3058.72 2083.81 3032.19 2084.71 3005.66C2086.67 2952.61 2088.59 2899.56 2087.44 2846.54C2087.17 2793.53 2084.97 2740.55 2080.13 2687.77C2079.26 2674.54 2077.25 2661.45 2075.86 2648.26L2073.55 2628.5L2070.23 2608.91C2067.93 2595.86 2066.71 2582.55 2063.51 2569.66C2060.55 2556.72 2057.72 2543.71 2055.04 2530.64C2072.01 2581.4 2083.83 2633.67 2090.33 2686.7C2096.64 2739.73 2100.13 2793.04 2100.77 2846.43C2100.8 2899.78 2099.07 2953.1 2094.9 3006.24C2090.58 3059.36 2084.78 3112.38 2075.23 3164.83Z" fill="#10394F"/>
<path d="M1561.1 3582.69C1566.29 3582.52 1571.2 3580.38 1574.81 3576.74C1578.41 3573.1 1580.43 3568.23 1580.43 3563.16C1580.43 3558.1 1578.41 3553.23 1574.81 3549.59C1571.2 3545.94 1566.29 3543.81 1561.1 3543.64C1555.92 3543.81 1551 3545.94 1547.4 3549.59C1543.79 3553.23 1541.78 3558.1 1541.78 3563.16C1541.78 3568.23 1543.79 3573.1 1547.4 3576.74C1551 3580.38 1555.92 3582.52 1561.1 3582.69ZM1640.33 3610.82C1645.51 3610.64 1650.43 3608.51 1654.03 3604.86C1657.64 3601.22 1659.65 3596.35 1659.65 3591.29C1659.65 3586.22 1657.64 3581.35 1654.03 3577.71C1650.43 3574.07 1645.51 3571.93 1640.33 3571.76C1635.14 3571.93 1630.23 3574.07 1626.62 3577.71C1623.02 3581.35 1621 3586.22 1621 3591.29C1621 3596.35 1623.02 3601.22 1626.62 3604.86C1630.23 3608.51 1635.14 3610.64 1640.33 3610.82ZM1729.15 3638.94C1734.34 3638.76 1739.25 3636.63 1742.86 3632.98C1746.46 3629.34 1748.48 3624.47 1748.48 3619.41C1748.48 3614.34 1746.46 3609.48 1742.86 3605.83C1739.25 3602.19 1734.34 3600.05 1729.15 3599.88C1723.97 3600.05 1719.05 3602.19 1715.45 3605.83C1711.84 3609.48 1709.83 3614.34 1709.83 3619.41C1709.83 3624.47 1711.84 3629.34 1715.45 3632.98C1719.05 3636.63 1723.97 3638.76 1729.15 3638.94ZM1822.78 3653C1827.96 3652.82 1832.88 3650.69 1836.48 3647.05C1840.09 3643.4 1842.1 3638.53 1842.1 3633.47C1842.1 3628.4 1840.09 3623.54 1836.48 3619.89C1832.88 3616.25 1827.96 3614.12 1822.78 3613.94C1817.59 3614.12 1812.68 3616.25 1809.07 3619.89C1805.47 3623.54 1803.45 3628.4 1803.45 3633.47C1803.45 3638.53 1805.47 3643.4 1809.07 3647.05C1812.68 3650.69 1817.59 3652.82 1822.78 3653ZM1930.81 3657.69C1935.99 3657.51 1940.91 3655.38 1944.51 3651.73C1948.12 3648.09 1950.13 3643.22 1950.13 3638.16C1950.13 3633.09 1948.12 3628.22 1944.51 3624.58C1940.91 3620.94 1935.99 3618.8 1930.81 3618.63C1925.62 3618.8 1920.71 3620.94 1917.1 3624.58C1913.5 3628.22 1911.48 3633.09 1911.48 3638.16C1911.48 3643.22 1913.5 3648.09 1917.1 3651.73C1920.71 3655.38 1925.62 3657.51 1930.81 3657.69ZM2048.44 3645.97C2053.63 3645.79 2058.54 3643.66 2062.15 3640.01C2065.75 3636.37 2067.77 3631.5 2067.77 3626.44C2067.77 3621.37 2065.75 3616.51 2062.15 3612.86C2058.54 3609.22 2053.63 3607.08 2048.44 3606.91C2043.26 3607.08 2038.34 3609.22 2034.74 3612.86C2031.13 3616.51 2029.12 3621.37 2029.12 3626.44C2029.12 3631.5 2031.13 3636.37 2034.74 3640.01C2038.34 3643.66 2043.26 3645.79 2048.44 3645.97ZM2161.27 3620.19C2166.46 3620.01 2171.37 3617.88 2174.98 3614.24C2178.58 3610.59 2180.6 3605.73 2180.6 3600.66C2180.6 3595.59 2178.58 3590.73 2174.98 3587.08C2171.37 3583.44 2166.46 3581.31 2161.27 3581.13C2156.09 3581.31 2151.18 3583.44 2147.57 3587.08C2143.97 3590.73 2141.95 3595.59 2141.95 3600.66C2141.95 3605.73 2143.97 3610.59 2147.57 3614.24C2151.18 3617.88 2156.09 3620.01 2161.27 3620.19ZM2254.9 3594.41C2260.09 3594.24 2265 3592.1 2268.61 3588.46C2272.21 3584.81 2274.23 3579.95 2274.23 3574.88C2274.23 3569.82 2272.21 3564.95 2268.61 3561.31C2265 3557.66 2260.09 3555.53 2254.9 3555.35C2249.72 3555.53 2244.8 3557.66 2241.2 3561.31C2237.59 3564.95 2235.58 3569.82 2235.58 3574.88C2235.58 3579.95 2237.59 3584.81 2241.2 3588.46C2244.8 3592.1 2249.72 3594.24 2254.9 3594.41ZM2713.43 1982.08C2718.62 1981.91 2723.53 1979.77 2727.14 1976.13C2730.74 1972.49 2732.76 1967.62 2732.76 1962.56C2732.76 1957.49 2730.74 1952.62 2727.14 1948.98C2723.53 1945.34 2718.62 1943.2 2713.43 1943.03C2708.25 1943.2 2703.33 1945.34 2699.73 1948.98C2696.12 1952.62 2694.11 1957.49 2694.11 1962.56C2694.11 1967.62 2696.12 1972.49 2699.73 1976.13C2703.33 1979.77 2708.25 1981.91 2713.43 1982.08ZM2761.45 2010.21C2766.63 2010.03 2771.55 2007.9 2775.15 2004.25C2778.76 2000.61 2780.77 1995.74 2780.77 1990.68C2780.77 1985.61 2778.76 1980.74 2775.15 1977.1C2771.55 1973.46 2766.63 1971.32 2761.45 1971.15C2756.26 1971.32 2751.35 1973.46 2747.74 1977.1C2744.14 1980.74 2742.12 1985.61 2742.12 1990.68C2742.12 1995.74 2744.14 2000.61 2747.74 2004.25C2751.35 2007.9 2756.26 2010.03 2761.45 2010.21ZM2809.46 2038.33C2814.65 2038.15 2819.56 2036.02 2823.17 2032.38C2826.77 2028.73 2828.79 2023.86 2828.79 2018.8C2828.79 2013.73 2826.77 2008.87 2823.17 2005.22C2819.56 2001.58 2814.65 1999.45 2809.46 1999.27C2804.27 1999.45 2799.36 2001.58 2795.76 2005.22C2792.15 2008.87 2790.14 2013.73 2790.14 2018.8C2790.14 2023.86 2792.15 2028.73 2795.76 2032.38C2799.36 2036.02 2804.27 2038.15 2809.46 2038.33ZM1527.49 1895.37C1532.68 1895.2 1537.59 1893.07 1541.2 1889.42C1544.8 1885.78 1546.82 1880.91 1546.82 1875.85C1546.82 1870.78 1544.8 1865.91 1541.2 1862.27C1537.59 1858.63 1532.68 1856.49 1527.49 1856.32C1522.31 1856.49 1517.39 1858.63 1513.79 1862.27C1510.18 1865.91 1508.17 1870.78 1508.17 1875.85C1508.17 1880.91 1510.18 1885.78 1513.79 1889.42C1517.39 1893.07 1522.31 1895.2 1527.49 1895.37Z" fill="#376F92"/>
<path d="M1411.44 4623.16C1416.62 4622.98 1421.53 4620.85 1425.14 4617.2C1428.74 4613.56 1430.76 4608.69 1430.76 4603.63C1430.76 4598.56 1428.74 4593.69 1425.14 4590.05C1421.53 4586.41 1416.62 4584.27 1411.44 4584.1C1406.25 4584.27 1401.34 4586.41 1397.73 4590.05C1394.13 4593.69 1392.11 4598.56 1392.11 4603.63C1392.11 4608.69 1394.13 4613.56 1397.73 4617.2C1401.34 4620.85 1406.25 4622.98 1411.44 4623.16ZM1481.63 4658.31C1486.82 4658.13 1491.73 4656 1495.34 4652.36C1498.94 4648.71 1500.96 4643.84 1500.96 4638.78C1500.96 4633.71 1498.94 4628.85 1495.34 4625.2C1491.73 4621.56 1486.82 4619.43 1481.63 4619.25C1476.45 4619.43 1471.53 4621.56 1467.93 4625.2C1464.32 4628.85 1462.31 4633.71 1462.31 4638.78C1462.31 4643.84 1464.32 4648.71 1467.93 4652.36C1471.53 4656 1476.45 4658.13 1481.63 4658.31ZM1561.88 4663.78C1567.06 4663.6 1571.98 4661.47 1575.58 4657.82C1579.19 4654.18 1581.2 4649.31 1581.2 4644.25C1581.2 4639.18 1579.19 4634.31 1575.58 4630.67C1571.98 4627.03 1567.06 4624.89 1561.88 4624.72C1556.69 4624.89 1551.78 4627.03 1548.17 4630.67C1544.57 4634.31 1542.55 4639.18 1542.55 4644.25C1542.55 4649.31 1544.57 4654.18 1548.17 4657.82C1551.78 4661.47 1556.69 4663.6 1561.88 4663.78ZM2115.64 4661.43C2120.82 4661.26 2125.74 4659.12 2129.34 4655.48C2132.95 4651.84 2134.96 4646.97 2134.96 4641.9C2134.96 4636.84 2132.95 4631.97 2129.34 4628.33C2125.74 4624.68 2120.82 4622.55 2115.64 4622.37C2110.45 4622.55 2105.54 4624.68 2101.93 4628.33C2098.33 4631.97 2096.31 4636.84 2096.31 4641.9C2096.31 4646.97 2098.33 4651.84 2101.93 4655.48C2105.54 4659.12 2110.45 4661.26 2115.64 4661.43ZM2189.26 4661.43C2194.44 4661.26 2199.36 4659.12 2202.96 4655.48C2206.57 4651.84 2208.58 4646.97 2208.58 4641.9C2208.58 4636.84 2206.57 4631.97 2202.96 4628.33C2199.36 4624.68 2194.44 4622.55 2189.26 4622.37C2184.07 4622.55 2179.16 4624.68 2175.55 4628.33C2171.95 4631.97 2169.93 4636.84 2169.93 4641.9C2169.93 4646.97 2171.95 4651.84 2175.55 4655.48C2179.16 4659.12 2184.07 4661.26 2189.26 4661.43ZM2259.68 4656.75C2264.86 4656.57 2269.78 4654.44 2273.38 4650.79C2276.99 4647.15 2279 4642.28 2279 4637.22C2279 4632.15 2276.99 4627.28 2273.38 4623.64C2269.78 4620 2264.86 4617.86 2259.68 4617.69C2254.49 4617.86 2249.58 4620 2245.97 4623.64C2242.37 4627.28 2240.35 4632.15 2240.35 4637.22C2240.35 4642.28 2242.37 4647.15 2245.97 4650.79C2249.58 4654.44 2254.49 4656.57 2259.68 4656.75Z" fill="#FFBA55"/>
<path d="M5529.69 1283.53V4961.76H6381.56V1283.53C6381.56 1272.95 6377.25 1262.8 6369.58 1255.32C6361.92 1247.83 6351.52 1243.63 6340.68 1243.63H5570.57C5559.73 1243.63 5549.33 1247.83 5541.66 1255.32C5534 1262.8 5529.69 1272.95 5529.69 1283.53Z" fill="#935B50"/>
<path d="M6293.66 1912.83H5617.58C5595 1912.83 5576.7 1930.7 5576.7 1952.74V2422.39C5576.7 2444.43 5595 2462.29 5617.58 2462.29H6293.66C6316.24 2462.29 6334.54 2444.43 6334.54 2422.39V1952.74C6334.54 1930.7 6316.24 1912.83 6293.66 1912.83Z" fill="#E19974"/>
<path d="M6293.66 1303.48H5617.58C5595 1303.48 5576.7 1321.34 5576.7 1343.38V1813.03C5576.7 1835.07 5595 1852.94 5617.58 1852.94H6293.66C6316.24 1852.94 6334.54 1835.07 6334.54 1813.03V1343.38C6334.54 1321.34 6316.24 1303.48 6293.66 1303.48Z" fill="#E19974"/>
<path d="M6286.4 1783.26C6289.29 1785.29 6291.6 1788.01 6293.13 1791.15C6294.66 1794.29 6295.35 1797.76 6295.15 1801.23C6294.8 1807.85 6291.95 1814.12 6287.15 1818.82C6282.34 1823.51 6275.93 1826.31 6269.14 1826.67C6265.58 1826.87 6262.02 1826.19 6258.8 1824.69C6255.58 1823.19 6252.8 1820.92 6250.72 1818.09C6253.94 1813.62 6256.9 1808.99 6259.61 1804.21C6260.96 1801.57 6262.7 1799.13 6264.76 1796.96C6267.01 1794.97 6269.52 1793.29 6272.22 1791.95C6277.11 1789.31 6281.85 1786.41 6286.4 1783.26ZM6250.72 1338.43C6252.81 1335.62 6255.59 1333.36 6258.8 1331.87C6262.02 1330.37 6265.57 1329.7 6269.13 1329.9C6275.92 1330.24 6282.34 1333.02 6287.15 1337.71C6291.96 1342.4 6294.82 1348.66 6295.19 1355.28C6295.4 1358.76 6294.7 1362.23 6293.17 1365.38C6291.63 1368.52 6289.3 1371.24 6286.4 1373.27C6281.83 1370.13 6277.08 1367.23 6272.18 1364.59C6269.48 1363.27 6266.98 1361.57 6264.76 1359.56C6262.72 1357.37 6261 1354.92 6259.62 1352.28C6256.92 1347.5 6253.95 1342.88 6250.72 1338.43ZM5624.83 1373.27C5621.95 1371.23 5619.63 1368.52 5618.1 1365.38C5616.58 1362.24 5615.88 1358.77 5616.09 1355.3C5616.44 1348.67 5619.29 1342.41 5624.09 1337.71C5628.89 1333.01 5635.3 1330.22 5642.09 1329.86C5645.65 1329.65 5649.21 1330.33 5652.43 1331.83C5655.66 1333.33 5658.44 1335.6 5660.52 1338.43C5657.3 1342.9 5654.33 1347.54 5651.63 1352.32C5650.27 1354.96 5648.54 1357.4 5646.48 1359.56C5644.23 1361.55 5641.72 1363.24 5639.01 1364.58C5634.13 1367.22 5629.39 1370.12 5624.83 1373.27ZM5660.52 1818.09C5658.43 1820.91 5655.65 1823.17 5652.43 1824.66C5649.21 1826.15 5645.66 1826.83 5642.11 1826.63C5635.32 1826.28 5628.9 1823.5 5624.09 1818.81C5619.28 1814.13 5616.41 1807.87 5616.05 1801.24C5615.84 1797.76 5616.53 1794.29 5618.07 1791.15C5619.61 1788 5621.93 1785.29 5624.83 1783.26C5629.41 1786.39 5634.16 1789.29 5639.05 1791.93C5641.76 1793.26 5644.26 1794.95 5646.48 1796.96C5648.51 1799.16 5650.24 1801.61 5651.62 1804.25C5654.32 1809.02 5657.29 1813.64 5660.52 1818.09ZM6286.4 2392.57C6289.29 2394.61 6291.6 2397.32 6293.13 2400.46C6294.66 2403.6 6295.35 2407.07 6295.15 2410.54C6294.8 2417.17 6291.95 2423.43 6287.15 2428.13C6282.35 2432.83 6275.93 2435.62 6269.14 2435.98C6265.58 2436.18 6262.02 2435.51 6258.8 2434.01C6255.58 2432.51 6252.8 2430.23 6250.72 2427.4C6253.94 2422.93 6256.9 2418.3 6259.61 2413.52C6260.96 2410.88 6262.7 2408.44 6264.76 2406.27C6267.01 2404.29 6269.52 2402.6 6272.22 2401.26C6277.11 2398.62 6281.85 2395.72 6286.4 2392.57ZM6250.72 1947.75C6252.81 1944.93 6255.59 1942.67 6258.81 1941.18C6262.02 1939.69 6265.57 1939.01 6269.13 1939.21C6275.92 1939.55 6282.34 1942.34 6287.15 1947.02C6291.96 1951.71 6294.82 1957.97 6295.19 1964.6C6295.4 1968.07 6294.7 1971.55 6293.17 1974.69C6291.63 1977.84 6289.3 1980.55 6286.4 1982.58C6281.83 1979.44 6277.08 1976.55 6272.18 1973.91C6269.48 1972.58 6266.98 1970.89 6264.76 1968.88C6262.72 1966.68 6261 1964.23 6259.62 1961.59C6256.92 1956.82 6253.95 1952.2 6250.72 1947.75ZM5624.83 1982.58C5621.95 1980.54 5619.63 1977.83 5618.1 1974.69C5616.58 1971.55 5615.88 1968.08 5616.09 1964.61C5616.44 1957.99 5619.29 1951.72 5624.09 1947.02C5628.89 1942.32 5635.3 1939.53 5642.09 1939.17C5645.65 1938.97 5649.21 1939.65 5652.43 1941.15C5655.66 1942.64 5658.44 1944.92 5660.52 1947.75C5657.3 1952.22 5654.34 1956.85 5651.63 1961.63C5650.27 1964.27 5648.54 1966.71 5646.48 1968.88C5644.23 1970.87 5641.72 1972.55 5639.01 1973.89C5634.13 1976.53 5629.39 1979.43 5624.83 1982.58ZM5660.52 2427.4C5658.43 2430.22 5655.65 2432.48 5652.43 2433.97C5649.21 2435.46 5645.66 2436.14 5642.11 2435.94C5635.32 2435.6 5628.9 2432.82 5624.09 2428.13C5619.28 2423.44 5616.41 2417.18 5616.05 2410.56C5615.84 2407.08 5616.53 2403.6 5618.07 2400.46C5619.61 2397.32 5621.93 2394.6 5624.83 2392.57C5629.41 2395.71 5634.16 2398.6 5639.05 2401.24C5641.76 2402.57 5644.26 2404.26 5646.48 2406.27C5648.51 2408.47 5650.24 2410.92 5651.62 2413.56C5654.32 2418.33 5657.29 2422.95 5660.52 2427.4Z" fill="#D6694B"/>
<path d="M6293.66 3131.46H5617.58C5595 3131.46 5576.7 3149.33 5576.7 3171.37V3641.02C5576.7 3663.05 5595 3680.92 5617.58 3680.92H6293.66C6316.24 3680.92 6334.54 3663.05 6334.54 3641.02V3171.37C6334.54 3149.33 6316.24 3131.46 6293.66 3131.46Z" fill="#E19974"/>
<path d="M6293.66 3740.77H5617.58C5595 3740.77 5576.7 3758.64 5576.7 3780.67V4250.32C5576.7 4272.36 5595 4290.23 5617.58 4290.23H6293.66C6316.24 4290.23 6334.54 4272.36 6334.54 4250.32V3780.67C6334.54 3758.64 6316.24 3740.77 6293.66 3740.77Z" fill="#E19974"/>
<path d="M6056.26 1503.42H5854.92C5846.18 1503.42 5839.09 1510.34 5839.09 1518.87V1571.76C5839.09 1580.29 5846.18 1587.21 5854.92 1587.21H6056.26C6065 1587.21 6072.09 1580.29 6072.09 1571.76V1518.87C6072.09 1510.34 6065 1503.42 6056.26 1503.42Z" fill="#D6694B"/>
<path d="M6056.26 3331.36H5854.92C5846.18 3331.36 5839.09 3338.28 5839.09 3346.81V3399.7C5839.09 3408.23 5846.18 3415.15 5854.92 3415.15H6056.26C6065 3415.15 6072.09 3408.23 6072.09 3399.7V3346.81C6072.09 3338.28 6065 3331.36 6056.26 3331.36Z" fill="#D6694B"/>
<path d="M6056.26 3940.68H5854.92C5846.18 3940.68 5839.09 3947.59 5839.09 3956.13V4009.01C5839.09 4017.55 5846.18 4024.47 5854.92 4024.47H6056.26C6065 4024.47 6072.09 4017.55 6072.09 4009.01V3956.13C6072.09 3947.59 6065 3940.68 6056.26 3940.68Z" fill="#D6694B"/>
<path d="M6056.26 2112.73H5854.92C5846.18 2112.73 5839.09 2119.65 5839.09 2128.18V2181.07C5839.09 2189.6 5846.18 2196.52 5854.92 2196.52H6056.26C6065 2196.52 6072.09 2189.6 6072.09 2181.07V2128.18C6072.09 2119.65 6065 2112.73 6056.26 2112.73Z" fill="#D6694B"/>
<path d="M6286.4 3611.16C6289.29 3613.19 6291.6 3615.91 6293.13 3619.05C6294.66 3622.19 6295.35 3625.65 6295.15 3629.12C6294.8 3635.75 6291.95 3642.02 6287.15 3646.72C6282.35 3651.41 6275.93 3654.21 6269.14 3654.57C6265.58 3654.77 6262.02 3654.09 6258.8 3652.59C6255.58 3651.09 6252.8 3648.82 6250.72 3645.99C6253.94 3641.52 6256.9 3636.89 6259.61 3632.11C6260.97 3629.47 6262.7 3627.03 6264.76 3624.86C6267.01 3622.87 6269.52 3621.19 6272.22 3619.85C6277.11 3617.21 6281.85 3614.31 6286.4 3611.16ZM6250.72 3166.33C6252.81 3163.52 6255.59 3161.26 6258.81 3159.77C6262.02 3158.27 6265.57 3157.6 6269.13 3157.8C6275.92 3158.14 6282.33 3160.92 6287.15 3165.61C6291.96 3170.3 6294.82 3176.55 6295.19 3183.18C6295.4 3186.66 6294.7 3190.13 6293.17 3193.28C6291.63 3196.42 6289.3 3199.14 6286.4 3201.17C6281.83 3198.03 6277.08 3195.13 6272.18 3192.49C6269.48 3191.17 6266.98 3189.48 6264.76 3187.47C6262.72 3185.27 6261 3182.82 6259.62 3180.18C6256.92 3175.4 6253.95 3170.78 6250.72 3166.33ZM5624.83 3201.17C5621.95 3199.13 5619.63 3196.42 5618.1 3193.27C5616.58 3190.13 5615.88 3186.67 5616.09 3183.2C5616.44 3176.57 5619.29 3170.31 5624.09 3165.61C5628.89 3160.91 5635.3 3158.12 5642.09 3157.76C5645.65 3157.55 5649.21 3158.23 5652.43 3159.73C5655.66 3161.23 5658.44 3163.5 5660.52 3166.33C5657.3 3170.8 5654.34 3175.44 5651.63 3180.22C5650.27 3182.86 5648.54 3185.3 5646.48 3187.47C5644.23 3189.45 5641.72 3191.14 5639.01 3192.48C5634.13 3195.11 5629.39 3198.02 5624.83 3201.17ZM5660.52 3645.99C5658.43 3648.81 5655.65 3651.07 5652.43 3652.56C5649.21 3654.05 5645.66 3654.73 5642.11 3654.52C5635.32 3654.18 5628.9 3651.4 5624.09 3646.71C5619.28 3642.03 5616.41 3635.77 5616.05 3629.14C5615.84 3625.66 5616.53 3622.19 5618.07 3619.04C5619.61 3615.9 5621.93 3613.19 5624.83 3611.16C5629.41 3614.29 5634.16 3617.19 5639.05 3619.83C5641.76 3621.16 5644.26 3622.85 5646.48 3624.86C5648.51 3627.06 5650.24 3629.51 5651.62 3632.15C5654.32 3636.92 5657.29 3641.54 5660.52 3645.99ZM6286.4 4220.47C6289.29 4222.51 6291.6 4225.22 6293.13 4228.36C6294.66 4231.5 6295.35 4234.97 6295.15 4238.44C6294.8 4245.07 6291.95 4251.33 6287.15 4256.03C6282.34 4260.73 6275.93 4263.52 6269.14 4263.88C6265.58 4264.08 6262.02 4263.41 6258.8 4261.91C6255.58 4260.41 6252.8 4258.14 6250.72 4255.3C6253.94 4250.84 6256.9 4246.2 6259.61 4241.42C6260.96 4238.78 6262.7 4236.34 6264.76 4234.17C6267.01 4232.19 6269.52 4230.5 6272.22 4229.16C6277.11 4226.52 6281.85 4223.62 6286.4 4220.47ZM6250.72 3775.65C6252.81 3772.83 6255.59 3770.57 6258.8 3769.08C6262.02 3767.59 6265.57 3766.91 6269.13 3767.11C6275.92 3767.45 6282.34 3770.24 6287.15 3774.92C6291.96 3779.61 6294.82 3785.87 6295.19 3792.49C6295.4 3795.97 6294.7 3799.45 6293.17 3802.59C6291.63 3805.74 6289.3 3808.45 6286.4 3810.48C6281.83 3807.34 6277.08 3804.45 6272.18 3801.81C6269.48 3800.48 6266.98 3798.79 6264.76 3796.78C6262.72 3794.58 6261 3792.13 6259.62 3789.49C6256.92 3784.72 6253.95 3780.1 6250.72 3775.65ZM5624.83 3810.48C5621.95 3808.44 5619.63 3805.73 5618.1 3802.59C5616.58 3799.45 5615.88 3795.98 5616.09 3792.51C5616.44 3785.89 5619.29 3779.62 5624.09 3774.92C5628.89 3770.22 5635.3 3767.43 5642.09 3767.07C5645.65 3766.87 5649.21 3767.55 5652.43 3769.05C5655.66 3770.54 5658.44 3772.82 5660.52 3775.65C5657.3 3780.12 5654.34 3784.75 5651.63 3789.53C5650.27 3792.17 5648.54 3794.61 5646.48 3796.78C5644.23 3798.77 5641.72 3800.45 5639.01 3801.79C5634.13 3804.43 5629.39 3807.33 5624.83 3810.48ZM5660.52 4255.3C5658.43 4258.12 5655.65 4260.38 5652.43 4261.87C5649.21 4263.36 5645.66 4264.04 5642.11 4263.84C5635.32 4263.5 5628.9 4260.72 5624.09 4256.03C5619.28 4251.34 5616.41 4245.08 5616.05 4238.46C5615.84 4234.98 5616.53 4231.51 5618.07 4228.36C5619.61 4225.21 5621.93 4222.5 5624.83 4220.47C5629.41 4223.61 5634.16 4226.5 5639.05 4229.14C5641.76 4230.47 5644.26 4232.16 5646.48 4234.17C5648.51 4236.37 5650.24 4238.82 5651.62 4241.46C5654.32 4246.23 5657.29 4250.85 5660.52 4255.3Z" fill="#D6694B"/>
<path d="M5776.83 4084.94C5776.83 4084.94 6192.65 4093.18 6255.82 4024.59C6255.82 4024.59 6119.65 4500.83 6222.45 4734.49L5759.96 4686.81C5759.96 4686.81 5814.05 4317.98 5776.83 4084.94Z" fill="#7CA1B1"/>
<path d="M5674.99 4143.32C5674.99 4143.32 6090.81 4151.56 6153.98 4082.97C6153.98 4082.97 6017.81 4559.21 6120.61 4792.87L5658.13 4745.2C5658.13 4745.2 5712.21 4376.36 5674.99 4143.32Z" fill="#F65B2B"/>
<path d="M5727.02 4188.13C5727.02 4188.13 6142.84 4196.37 6206.01 4127.78C6206.01 4127.78 6069.84 4604.02 6172.64 4837.68L5710.15 4790C5710.15 4790 5764.24 4421.16 5727.02 4188.13Z" fill="white"/>
<path d="M5777.92 2285.58C5777.92 2285.58 6193.73 2293.82 6256.9 2225.23C6256.9 2225.23 6120.74 2701.47 6223.53 2935.13L5761.05 2887.46C5761.05 2887.46 5815.13 2518.62 5777.92 2285.58Z" fill="#FFBA55"/>
<path d="M5676.12 2343.89C5676.12 2343.89 6091.94 2352.12 6155.11 2283.54C6155.11 2283.54 6018.94 2759.78 6121.74 2993.44L5659.26 2945.76C5659.26 2945.76 5713.34 2576.92 5676.12 2343.89Z" fill="#F65B2B"/>
<path d="M5728.1 2388.73C5728.1 2388.73 6143.92 2396.96 6207.09 2328.38C6207.09 2328.38 6070.92 2804.62 6173.72 3038.28L5711.24 2990.6C5711.24 2990.6 5765.32 2621.76 5728.1 2388.73Z" fill="white"/>
<path d="M6293.66 4350.08H5617.58C5595 4350.08 5576.7 4367.95 5576.7 4389.99V4859.64C5576.7 4881.68 5595 4899.54 5617.58 4899.54H6293.66C6316.24 4899.54 6334.54 4881.68 6334.54 4859.64V4389.99C6334.54 4367.95 6316.24 4350.08 6293.66 4350.08Z" fill="#E19974"/>
<path d="M6056.26 4549.99H5854.92C5846.18 4549.99 5839.09 4556.91 5839.09 4565.44V4618.33C5839.09 4626.86 5846.18 4633.78 5854.92 4633.78H6056.26C6065 4633.78 6072.09 4626.86 6072.09 4618.33V4565.44C6072.09 4556.91 6065 4549.99 6056.26 4549.99Z" fill="#D6694B"/>
<path d="M6286.4 4829.78C6289.29 4831.82 6291.6 4834.54 6293.13 4837.68C6294.66 4840.82 6295.35 4844.28 6295.15 4847.75C6294.8 4854.38 6291.95 4860.65 6287.15 4865.34C6282.34 4870.04 6275.93 4872.84 6269.14 4873.19C6265.58 4873.4 6262.02 4872.72 6258.8 4871.22C6255.58 4869.72 6252.8 4867.45 6250.72 4864.62C6253.94 4860.15 6256.9 4855.51 6259.61 4850.74C6260.96 4848.09 6262.7 4845.65 6264.76 4843.49C6267.01 4841.5 6269.52 4839.81 6272.22 4838.47C6277.11 4835.84 6281.85 4832.93 6286.4 4829.78ZM6250.72 4384.96C6252.81 4382.14 6255.59 4379.88 6258.8 4378.39C6262.02 4376.9 6265.57 4376.22 6269.13 4376.43C6275.92 4376.77 6282.34 4379.55 6287.15 4384.24C6291.96 4388.92 6294.82 4395.18 6295.19 4401.81C6295.4 4405.29 6294.7 4408.76 6293.17 4411.91C6291.63 4415.05 6289.3 4417.76 6286.4 4419.79C6281.83 4416.66 6277.08 4413.76 6272.18 4411.12C6269.48 4409.79 6266.98 4408.1 6264.76 4406.09C6262.72 4403.9 6261 4401.44 6259.62 4398.8C6256.92 4394.03 6253.95 4389.41 6250.72 4384.96ZM5624.83 4419.79C5621.95 4417.76 5619.63 4415.04 5618.1 4411.9C5616.58 4408.76 5615.88 4405.3 5616.09 4401.83C5616.44 4395.2 5619.29 4388.93 5624.09 4384.24C5628.89 4379.54 5635.3 4376.74 5642.09 4376.39C5645.65 4376.18 5649.21 4376.86 5652.43 4378.36C5655.66 4379.86 5658.44 4382.13 5660.52 4384.96C5657.3 4389.43 5654.33 4394.06 5651.63 4398.84C5650.27 4401.49 5648.54 4403.92 5646.48 4406.09C5644.23 4408.08 5641.72 4409.77 5639.01 4411.1C5634.13 4413.74 5629.39 4416.64 5624.83 4419.79ZM5660.52 4864.62C5658.43 4867.43 5655.65 4869.69 5652.43 4871.19C5649.21 4872.68 5645.66 4873.35 5642.11 4873.15C5635.32 4872.81 5628.9 4870.03 5624.09 4865.34C5619.28 4860.66 5616.41 4854.4 5616.05 4847.77C5615.84 4844.29 5616.53 4840.82 5618.07 4837.67C5619.61 4834.53 5621.93 4831.81 5624.83 4829.78C5629.41 4832.92 5634.16 4835.82 5639.05 4838.46C5641.76 4839.78 5644.26 4841.48 5646.48 4843.49C5648.51 4845.68 5650.24 4848.13 5651.62 4850.77C5654.32 4855.55 5657.29 4860.17 5660.52 4864.62Z" fill="#D6694B"/>
<path d="M6293.66 2522.11H5617.58C5595 2522.11 5576.7 2539.97 5576.7 2562.01V3031.66C5576.7 3053.7 5595 3071.56 5617.58 3071.56H6293.66C6316.24 3071.56 6334.54 3053.7 6334.54 3031.66V2562.01C6334.54 2539.97 6316.24 2522.11 6293.66 2522.11Z" fill="#E19974"/>
<path d="M6056.26 2722.05H5854.92C5846.18 2722.05 5839.09 2728.97 5839.09 2737.5V2790.39C5839.09 2798.92 5846.18 2805.84 5854.92 2805.84H6056.26C6065 2805.84 6072.09 2798.92 6072.09 2790.39V2737.5C6072.09 2728.97 6065 2722.05 6056.26 2722.05Z" fill="#D6694B"/>
<path d="M6286.4 3001.89C6289.29 3003.92 6291.6 3006.64 6293.13 3009.78C6294.66 3012.92 6295.35 3016.38 6295.15 3019.85C6294.8 3026.48 6291.95 3032.75 6287.15 3037.45C6282.35 3042.14 6275.93 3044.94 6269.14 3045.29C6265.58 3045.5 6262.02 3044.82 6258.8 3043.32C6255.58 3041.82 6252.8 3039.55 6250.72 3036.72C6253.94 3032.25 6256.9 3027.62 6259.61 3022.84C6260.96 3020.2 6262.7 3017.76 6264.76 3015.59C6267.01 3013.6 6269.52 3011.92 6272.22 3010.58C6277.11 3007.94 6281.84 3005.04 6286.4 3001.89ZM6250.72 2557.06C6252.81 2554.25 6255.59 2551.99 6258.81 2550.5C6262.02 2549 6265.57 2548.33 6269.13 2548.53C6275.92 2548.87 6282.34 2551.65 6287.15 2556.34C6291.96 2561.03 6294.82 2567.28 6295.19 2573.91C6295.4 2577.39 6294.7 2580.86 6293.17 2584.01C6291.63 2587.15 6289.3 2589.87 6286.4 2591.9C6281.83 2588.76 6277.08 2585.86 6272.18 2583.22C6269.48 2581.9 6266.98 2580.2 6264.76 2578.19C6262.72 2576 6261 2573.55 6259.62 2570.91C6256.92 2566.14 6253.95 2561.51 6250.72 2557.06ZM5624.83 2591.9C5621.95 2589.86 5619.63 2587.15 5618.1 2584.01C5616.58 2580.86 5615.88 2577.4 5616.09 2573.93C5616.44 2567.3 5619.29 2561.03 5624.09 2556.34C5628.89 2551.64 5635.3 2548.84 5642.09 2548.49C5645.65 2548.28 5649.21 2548.96 5652.43 2550.46C5655.66 2551.96 5658.44 2554.23 5660.52 2557.06C5657.3 2561.53 5654.34 2566.17 5651.63 2570.95C5650.27 2573.59 5648.54 2576.03 5646.48 2578.19C5644.23 2580.18 5641.72 2581.87 5639.01 2583.21C5634.13 2585.85 5629.39 2588.75 5624.83 2591.9ZM5660.52 3036.72C5658.43 3039.54 5655.65 3041.8 5652.43 3043.29C5649.21 3044.78 5645.66 3045.46 5642.11 3045.26C5635.32 3044.91 5628.9 3042.13 5624.09 3037.44C5619.28 3032.76 5616.41 3026.5 5616.05 3019.87C5615.84 3016.39 5616.53 3012.92 5618.07 3009.78C5619.61 3006.63 5621.93 3003.92 5624.83 3001.89C5629.41 3005.02 5634.16 3007.92 5639.05 3010.56C5641.76 3011.89 5644.26 3013.58 5646.48 3015.59C5648.51 3017.78 5650.24 3020.23 5651.62 3022.87C5654.32 3027.65 5657.29 3032.27 5660.52 3036.72Z" fill="#D6694B"/>
<path d="M773.058 4614.72C768.072 4605.13 274.533 3650.33 305.143 3266.26L288.651 3265.02C257.681 3653.6 737.847 4582.68 758.306 4622.04L773.058 4614.72Z" fill="#8B9D36"/>
<path d="M297.398 3287.3C308.953 3265.51 316.051 3241.74 318.295 3217.3C320.533 3195.22 319.776 3172.95 316.044 3151.07C312.387 3129.18 305.735 3107.86 296.265 3087.7L295.96 3087.07C292.771 3080.7 287.558 3075.5 281.099 3072.25C274.639 3069.01 267.279 3067.88 260.112 3069.05C252.946 3070.22 246.357 3073.61 241.326 3078.73C236.296 3083.85 233.092 3090.41 232.193 3097.45L232.113 3098.14C229.86 3120.21 230.654 3142.48 234.473 3164.35C238.218 3186.23 244.905 3207.54 254.362 3227.71C264.608 3250.11 279.225 3270.35 297.398 3287.3ZM331.17 3533.62C357.125 3530.37 381.502 3519.65 401.195 3502.82C420.365 3486.94 435.769 3467.18 446.336 3444.91C457.297 3421.99 462.327 3396.79 460.984 3371.53L460.936 3370.69C460.303 3363.71 457.382 3357.11 452.605 3351.88C447.828 3346.65 441.451 3343.06 434.419 3341.64C427.387 3340.23 420.075 3341.06 413.568 3344.02C407.06 3346.99 401.704 3351.92 398.294 3358.08C397.843 3358.89 397.39 3359.69 396.935 3360.49C387.272 3377.79 379.418 3394.15 371.166 3411.25C362.723 3429.06 355.201 3447.26 348.629 3465.8C340.706 3487.84 334.862 3510.54 331.17 3533.62ZM301.071 3378.74C327.027 3375.49 351.403 3364.77 371.096 3347.94C390.267 3332.06 405.67 3312.3 416.238 3290.03C427.199 3267.11 432.228 3241.91 430.885 3216.65L430.838 3215.81C430.205 3208.83 427.283 3202.23 422.506 3197C417.73 3191.77 411.352 3188.18 404.32 3186.76C397.288 3185.35 389.976 3186.18 383.469 3189.14C376.962 3192.1 371.606 3197.04 368.196 3203.2C367.744 3204.01 367.291 3204.81 366.836 3205.61C357.174 3222.91 349.319 3239.26 341.068 3256.37C332.624 3274.17 325.102 3292.38 318.53 3310.92C310.607 3332.96 304.763 3355.66 301.071 3378.74ZM305.693 3421.25C302.404 3396.15 294.259 3371.9 281.693 3349.77C270.454 3329.52 256.622 3310.75 240.531 3293.92C224.504 3277.02 206.302 3262.23 186.381 3249.9L185.076 3249.11C178.856 3245.48 171.593 3243.91 164.383 3244.66C157.173 3245.4 150.406 3248.42 145.105 3253.24C139.803 3258.07 136.254 3264.45 134.992 3271.42C133.731 3278.39 134.826 3285.57 138.112 3291.88L138.825 3293.21C150.049 3313.47 163.913 3332.21 180.07 3348.99C196.166 3365.82 214.388 3380.59 234.298 3392.94C256.046 3406.7 280.273 3416.31 305.693 3421.25ZM393.815 3742.8C415.868 3729.45 435.126 3712.15 450.566 3691.79C464.798 3673.39 476.58 3653.31 485.629 3632.01C494.753 3610.75 501.024 3588.42 504.285 3565.59C504.396 3564.74 504.505 3563.88 504.611 3563.02C505.412 3556.05 503.874 3549.02 500.226 3542.99C496.579 3536.95 491.021 3532.23 484.389 3529.55C477.758 3526.86 470.412 3526.36 463.459 3528.1C456.506 3529.85 450.323 3533.75 445.84 3539.23C445.291 3539.91 444.745 3540.59 444.202 3541.27C429.957 3559.66 418.207 3579.77 409.242 3601.09C400.199 3622.39 393.964 3644.73 390.684 3667.56C386.838 3692.61 387.9 3718.14 393.815 3742.8ZM456.37 3928.38C478.842 3913 498.271 3893.77 513.714 3871.62C528.133 3851.38 540.039 3829.54 549.182 3806.55C558.405 3783.61 564.752 3759.65 568.085 3735.22C568.175 3734.5 568.263 3733.77 568.348 3733.05C569.127 3725.99 567.498 3718.87 563.714 3712.8C559.93 3706.72 554.201 3702.04 547.415 3699.47C540.629 3696.9 533.163 3696.58 526.174 3698.57C519.185 3700.56 513.062 3704.74 508.753 3710.46C508.315 3711.06 507.88 3711.65 507.447 3712.24C493.019 3732.47 481.148 3754.33 472.09 3777.34C462.953 3800.32 456.642 3824.28 453.291 3848.71C449.374 3875.23 450.417 3902.23 456.37 3928.38ZM526.338 4097.84C551.036 4082.07 572.798 4062.3 590.689 4039.38C607.573 4018.22 622.039 3995.33 633.83 3971.1C645.714 3946.91 654.807 3921.51 660.939 3895.36L661.298 3893.73C662.78 3886.66 661.791 3879.3 658.488 3872.84C655.186 3866.38 649.761 3861.18 643.079 3858.08C636.397 3854.98 628.844 3854.16 621.626 3855.74C614.407 3857.32 607.94 3861.22 603.256 3866.8L602.191 3868.1C585.292 3889.26 570.854 3912.18 559.142 3936.44C547.342 3960.67 538.287 3986.08 532.139 4012.22C525.235 4040.23 523.273 4069.19 526.338 4097.84ZM596.753 4267.73C622.114 4252.73 644.681 4233.62 663.49 4211.24C681.24 4190.57 696.637 4168.07 709.41 4144.16C722.275 4120.28 732.394 4095.09 739.583 4069.05L739.584 4069.04C741.451 4061.92 740.797 4054.39 737.727 4047.67C734.656 4040.96 729.35 4035.45 722.67 4032.05C715.991 4028.65 708.329 4027.55 700.93 4028.94C693.532 4030.32 686.83 4034.11 681.914 4039.68C664.15 4060.35 648.781 4082.86 636.087 4106.82C623.307 4130.74 613.223 4155.94 606.014 4181.98C597.978 4209.85 594.846 4238.84 596.753 4267.73ZM658.911 4409.02C686.599 4394.89 711.753 4376.46 733.392 4354.45C753.931 4334.01 772.272 4311.58 788.129 4287.49C804.076 4263.46 817.415 4237.88 827.928 4211.15L827.929 4211.14C830.565 4204.2 830.691 4196.58 828.288 4189.56C825.885 4182.53 821.095 4176.52 814.713 4172.51C808.331 4168.5 800.739 4166.74 793.193 4167.53C785.648 4168.31 778.601 4171.58 773.221 4176.8C752.669 4197.23 734.354 4219.69 718.573 4243.83C702.703 4267.91 689.399 4293.51 678.87 4320.23C667.337 4348.58 660.597 4378.57 658.911 4409.02ZM736.325 4562.16C762.715 4543.95 786.001 4521.8 805.327 4496.51C823.809 4472.87 839.859 4447.51 853.245 4420.79C866.727 4394.12 877.434 4366.2 885.204 4337.45L885.205 4337.44C887.066 4330.23 886.331 4322.61 883.123 4315.86C879.915 4309.11 874.428 4303.64 867.583 4300.37C860.737 4297.1 852.949 4296.23 845.521 4297.9C838.094 4299.56 831.479 4303.67 826.784 4309.53C808.287 4333.16 792.267 4358.55 778.966 4385.3C765.565 4412.01 754.894 4439.94 747.107 4468.69C738.507 4499.1 734.868 4530.65 736.325 4562.16ZM348.253 3611.19C340.141 3584.27 327.28 3558.94 310.249 3536.33C294.681 3515.2 276.726 3495.86 256.722 3478.66C236.786 3461.38 214.889 3446.4 191.457 3433.99L189.78 3433.13C183.231 3429.86 175.752 3428.81 168.524 3430.15C161.296 3431.49 154.732 3435.15 149.868 3440.53C145.004 3445.92 142.118 3452.74 141.665 3459.91C141.212 3467.07 143.218 3474.19 147.367 3480.12L148.451 3481.63C164.006 3502.76 181.99 3522.09 202.052 3539.22C222.048 3556.43 243.966 3571.38 267.391 3583.8C292.509 3597.45 319.873 3606.72 348.253 3611.19ZM403.836 3787.81C394.88 3763.58 381.356 3741.19 363.963 3721.81C348.249 3703.96 330.321 3688.09 310.591 3674.56C290.915 3660.96 269.552 3649.85 247.014 3641.5L246.318 3641.25C239.41 3638.88 231.895 3638.77 224.92 3640.95C217.944 3643.13 211.89 3647.48 207.68 3653.33C203.471 3659.18 201.337 3666.21 201.603 3673.36C201.87 3680.5 204.522 3687.37 209.157 3692.9L209.632 3693.46C225.33 3711.32 243.285 3727.17 263.066 3740.62C282.796 3754.14 304.173 3765.22 326.705 3773.59C351.28 3782.99 377.442 3787.82 403.836 3787.81ZM464.152 3955.23C450.257 3931.49 432.139 3910.36 410.648 3892.82C390.972 3876.44 369.417 3862.33 346.415 3850.79C323.454 3839.17 299.168 3830.24 274.061 3824.19C266.784 3822.54 259.151 3823.31 252.373 3826.37C245.594 3829.44 240.059 3834.63 236.645 3841.11C233.231 3847.6 232.133 3855.01 233.527 3862.18C234.92 3869.34 238.724 3875.85 244.336 3880.66C263.997 3897.06 285.573 3911.14 308.618 3922.59C331.621 3934.13 355.918 3943.03 381.02 3949.1C408.137 3955.95 436.289 3958.03 464.152 3955.23ZM539.452 4135.43C522.541 4112.67 501.697 4092.97 477.855 4077.21C455.902 4062.36 432.309 4049.96 407.521 4040.25C382.769 4030.46 356.952 4023.46 330.572 4019.38L328.702 4019.12C321.408 4018.17 313.996 4019.62 307.64 4023.24C301.283 4026.86 296.344 4032.44 293.603 4039.11C290.862 4045.78 290.475 4053.15 292.503 4060.05C294.531 4066.96 298.86 4073.01 304.803 4077.24L306.34 4078.31C328.284 4093.18 351.897 4105.54 376.718 4115.17C401.507 4124.88 427.333 4131.84 453.713 4135.93C482.106 4140.62 511.119 4140.45 539.452 4135.43ZM602.65 4285.54C579.65 4264.26 553.305 4246.72 524.617 4233.58C497.775 4220.94 469.698 4210.98 440.81 4203.83C411.951 4196.59 382.407 4192.25 352.643 4190.89H352.637C345.04 4190.63 337.58 4192.92 331.5 4197.37C325.419 4201.83 321.084 4208.18 319.215 4215.37C317.347 4222.57 318.058 4230.17 321.23 4236.91C324.402 4243.66 329.844 4249.14 336.651 4252.44C363.483 4265.09 391.575 4275.03 420.484 4282.08C449.368 4289.24 478.916 4293.54 508.683 4294.91C540.317 4296.71 572.042 4293.54 602.65 4285.54Z" fill="#8B9D36"/>
<path d="M665.397 4413.26C642.807 4394.94 617.172 4380.53 589.601 4370.66C564.049 4361.21 537.511 4354.53 510.465 4350.73C483.434 4346.85 456.042 4345.92 428.801 4347.98H428.799C421.306 4348.64 414.261 4351.75 408.802 4356.8C403.344 4361.86 399.792 4368.56 398.721 4375.83C397.65 4383.1 399.123 4390.51 402.901 4396.86C406.68 4403.21 412.542 4408.13 419.541 4410.83C445.088 4420.29 471.639 4426.94 498.698 4430.64C525.743 4434.44 553.134 4435.33 580.378 4433.29C609.681 4431.4 638.437 4424.62 665.397 4413.26ZM710.529 4516.32C681.765 4500.29 650.641 4488.68 618.255 4481.91C587.704 4475.18 556.562 4471.33 525.258 4470.41C493.962 4469.38 462.636 4471.33 431.728 4476.24L431.723 4476.24C424.191 4477.52 417.343 4481.29 412.333 4486.93C407.324 4492.57 404.46 4499.72 404.227 4507.18C403.993 4514.64 406.404 4521.95 411.051 4527.87C415.698 4533.8 422.298 4537.98 429.736 4539.7C460.283 4546.45 491.432 4550.26 522.738 4551.1C554.038 4552.04 585.36 4550.05 616.271 4545.16C649.022 4540.33 680.815 4530.6 710.529 4516.32ZM476.266 4595.06C469.193 4597.71 463.264 4602.65 459.466 4609.05C455.667 4615.45 454.229 4622.93 455.389 4630.24C456.55 4637.55 460.24 4644.25 465.845 4649.22C471.45 4654.2 478.633 4657.15 486.196 4657.59H486.199C516.072 4658.95 546.01 4657.38 575.562 4652.89C605.126 4648.52 634.154 4641.21 662.194 4631.07C692.151 4620.63 720.183 4605.54 745.205 4586.37C715.411 4575.5 684.014 4569.41 652.227 4568.32C622.359 4566.95 592.425 4568.55 562.892 4573.12C533.337 4577.59 504.317 4584.94 476.267 4595.06H476.266Z" fill="#8B9D36"/>
<path d="M536.312 4428.44C538.389 4416.26 742.191 3205.4 573.347 2795.25L590.962 2788.36C761.788 3203.31 563.564 4381.54 555.037 4431.49L536.312 4428.44Z" fill="#5F7D37"/>
<path d="M589.258 2815.68C568.933 2795.71 552.786 2772.07 541.719 2746.08C531.49 2722.66 524.471 2698.03 520.845 2672.82C517.133 2647.63 516.905 2622.06 520.165 2596.81L520.278 2596.02C521.524 2587.98 525.399 2580.54 531.325 2574.81C537.252 2569.09 544.913 2565.39 553.169 2564.26C561.424 2563.13 569.833 2564.63 577.143 2568.55C584.452 2572.46 590.273 2578.57 593.737 2585.97L594.067 2586.7C604.311 2610.11 611.29 2634.75 614.815 2659.97C618.426 2685.18 618.612 2710.74 615.369 2736C612.047 2763.96 603.179 2791.03 589.258 2815.68ZM639.088 3096.65C609.529 3101.81 579.068 3098.26 551.584 3086.45C525.003 3075.51 501.179 3059.05 481.763 3038.22C461.688 3016.81 447.304 2990.92 439.874 2962.81L439.63 2961.88C437.863 2954.02 438.736 2945.82 442.121 2938.49C445.506 2931.16 451.221 2925.09 458.42 2921.18C465.619 2917.27 473.917 2915.73 482.084 2916.78C490.251 2917.84 497.851 2921.44 503.757 2927.04C504.534 2927.77 505.312 2928.5 506.092 2929.22C522.766 2944.91 537.127 2960.18 552.188 2976.14C567.703 2992.79 582.352 3010.19 596.078 3028.28C612.517 3049.74 626.914 3072.63 639.088 3096.65ZM617.459 2917.01C587.901 2922.16 557.44 2918.61 529.955 2906.81C503.374 2895.86 479.55 2879.4 460.134 2858.57C440.06 2837.16 425.675 2811.27 418.245 2783.17L418.001 2782.23C416.234 2774.38 417.107 2766.18 420.492 2758.85C423.877 2751.51 429.593 2745.44 436.791 2741.53C443.99 2737.62 452.288 2736.08 460.455 2737.14C468.622 2738.19 476.222 2741.79 482.128 2747.4C482.905 2748.13 483.683 2748.85 484.464 2749.57C501.137 2765.27 515.498 2780.54 530.559 2796.49C546.074 2813.14 560.723 2830.54 574.449 2848.63C590.888 2870.1 605.285 2892.99 617.459 2917.01ZM627.379 2965.09C622.136 2936.52 622.504 2907.23 628.462 2878.79C633.63 2852.85 642.158 2827.67 653.838 2803.83C665.43 2779.96 680.14 2757.65 697.601 2737.46L698.754 2736.17C704.281 2730.1 711.68 2725.95 719.835 2724.34C727.99 2722.73 736.459 2723.76 743.964 2727.27C751.468 2730.77 757.602 2736.56 761.438 2743.77C765.275 2750.98 766.607 2759.2 765.233 2767.21L764.922 2768.91C759.772 2794.85 751.202 2820.03 739.427 2843.81C727.739 2867.64 712.996 2889.93 695.554 2910.13C676.598 2932.5 653.463 2951.15 627.379 2965.09ZM644.222 3346.66C615.381 3339.46 588.201 3326.98 564.127 3309.88C542.066 3294.52 522.091 3276.49 504.682 3256.22C487.202 3236.01 472.471 3213.68 460.856 3189.78C460.432 3188.88 460.01 3187.98 459.592 3187.07C456.26 3179.72 455.467 3171.5 457.332 3163.67C459.197 3155.84 463.62 3148.81 469.933 3143.64C476.246 3138.48 484.109 3135.46 492.335 3135.03C500.561 3134.61 508.706 3136.8 515.541 3141.29C516.383 3141.85 517.221 3142.42 518.056 3142.98C540.127 3158.33 560.074 3176.39 577.402 3196.72C594.806 3217 609.502 3239.36 621.137 3263.25C634.173 3289.37 642.007 3317.68 644.222 3346.66ZM641.142 3570.81C611.123 3561.52 583.078 3546.99 558.368 3527.93C535.453 3510.61 514.724 3490.71 496.618 3468.62C478.437 3446.6 463.049 3422.51 450.79 3396.88C450.437 3396.12 450.087 3395.36 449.738 3394.6C446.396 3387.12 445.67 3378.78 447.673 3370.87C449.676 3362.95 454.297 3355.9 460.819 3350.81C467.341 3345.71 475.401 3342.86 483.752 3342.69C492.103 3342.52 500.279 3345.04 507.015 3349.86C507.701 3350.36 508.386 3350.86 509.068 3351.37C531.99 3368.67 552.687 3388.6 570.709 3410.75C588.81 3432.84 604.16 3456.95 616.438 3482.57C630.071 3510.28 638.442 3540.18 641.142 3570.81ZM624.265 3779.8C591.671 3770.83 560.884 3756.5 533.225 3737.42C507.287 3719.93 483.383 3699.72 461.939 3677.16C440.408 3654.67 421.504 3629.92 405.577 3603.35L404.611 3601.69C400.496 3594.45 398.986 3586.06 400.324 3577.88C401.662 3569.7 405.77 3562.19 411.992 3556.55C418.213 3550.91 426.19 3547.47 434.649 3546.78C443.108 3546.09 451.56 3548.18 458.657 3552.73L460.28 3553.79C486.231 3571.27 510.112 3591.51 531.484 3614.14C552.937 3636.7 571.803 3661.47 587.746 3688.03C605.173 3716.37 617.523 3747.41 624.265 3779.8ZM607.052 3989.41C574.002 3981.5 542.569 3968.17 514.093 3949.98C487.378 3933.32 462.598 3913.86 440.189 3891.97C417.694 3870.16 397.742 3845.98 380.695 3819.89L380.693 3819.88C376.138 3812.71 374.201 3804.25 375.195 3795.86C376.19 3787.48 380.058 3779.68 386.171 3773.71C392.285 3767.74 400.285 3763.97 408.872 3763C417.459 3762.04 426.129 3763.93 433.474 3768.38C460.199 3785.03 484.956 3804.52 507.295 3826.48C529.712 3848.37 549.629 3872.57 566.696 3898.66C585.313 3926.46 598.958 3957.15 607.052 3989.41ZM588.798 4164.95C553.508 4158.77 519.48 4147.04 488.039 4130.22C458.355 4114.74 430.372 4096.34 404.527 4075.3C378.603 4054.35 354.987 4030.82 334.061 4005.1L334.058 4005.09C328.725 3998.37 325.903 3990.08 326.058 3981.58C326.213 3973.09 329.337 3964.89 334.911 3958.37C340.486 3951.84 348.177 3947.36 356.712 3945.68C365.246 3944 374.113 3945.22 381.843 3949.13C411.538 3964.59 439.501 3983.03 465.28 4004.15C491.136 4025.18 514.72 4048.73 535.662 4074.45C558.275 4101.61 576.221 4132.17 588.798 4164.95ZM558.019 4358.57C522.715 4347.5 489.418 4331.07 459.354 4309.88C430.792 4290.2 404.286 4267.83 380.219 4243.08C356.065 4218.42 334.507 4191.45 315.869 4162.58L315.866 4162.58C311.287 4155.3 309.406 4146.72 310.54 4138.25C311.673 4129.79 315.752 4121.96 322.093 4116.08C328.434 4110.2 336.652 4106.63 345.37 4105.96C354.088 4105.29 362.776 4107.57 369.98 4112.41C398.555 4132.06 425.035 4154.47 449.023 4179.29C473.102 4204.03 494.626 4231.02 513.281 4259.88C533.411 4290.28 548.508 4323.58 558.019 4358.57ZM647.722 3187.3C647.115 3155.11 652.266 3123.06 662.942 3092.59C672.54 3064.24 685.378 3037.04 701.212 3011.49C716.949 2985.89 735.638 2962.13 756.915 2940.68L758.449 2939.18C764.465 2933.4 772.282 2929.74 780.666 2928.78C789.05 2927.82 797.523 2929.61 804.746 2933.88C811.969 2938.14 817.53 2944.64 820.552 2952.33C823.573 2960.02 823.883 2968.48 821.431 2976.37L820.779 2978.39C811.198 3006.74 798.321 3033.93 782.398 3059.43C766.573 3084.98 747.85 3108.71 726.585 3130.17C703.9 3153.54 677.212 3172.88 647.722 3187.3ZM649.115 3399.3C650.378 3369.76 657.294 3340.72 669.503 3313.66C680.414 3288.85 694.446 3265.45 711.277 3244.02C728.024 3222.53 747.493 3203.2 769.22 3186.48L769.894 3185.98C776.619 3181.06 784.807 3178.42 793.211 3178.46C801.615 3178.5 809.773 3181.23 816.443 3186.22C823.113 3191.21 827.928 3198.2 830.154 3206.11C832.38 3214.02 831.895 3222.42 828.773 3230.04L828.449 3230.81C817.558 3255.63 803.489 3279 786.576 3300.37C769.745 3321.8 750.248 3341.1 728.534 3357.83C704.945 3376.38 678.008 3390.44 649.115 3399.3ZM642.084 3602.81C648.928 3572.16 661.313 3542.94 678.66 3516.53C694.424 3491.99 713.049 3469.31 734.161 3448.96C755.201 3428.53 778.638 3410.6 803.987 3395.54C811.371 3391.29 819.997 3389.57 828.497 3390.65C836.998 3391.73 844.885 3395.55 850.908 3401.5C856.931 3407.46 860.744 3415.2 861.744 3423.52C862.743 3431.83 860.871 3440.22 856.424 3447.38C840.682 3471.93 822.023 3494.58 800.835 3514.86C779.72 3535.22 756.259 3553.11 730.922 3568.19C703.653 3584.8 673.57 3596.52 642.084 3602.81ZM623.154 3825.35C633.647 3794.76 649.522 3766.2 670.065 3740.93C688.863 3717.3 710.319 3695.81 734.031 3676.86C757.675 3657.83 783.469 3641.5 810.911 3628.18L812.864 3627.27C820.514 3623.78 829.137 3622.88 837.371 3624.7C845.604 3626.53 852.979 3630.99 858.329 3637.36C863.679 3643.74 866.699 3651.68 866.912 3659.92C867.125 3668.16 864.519 3676.23 859.505 3682.87L858.201 3684.55C839.417 3708.19 817.927 3729.66 794.149 3748.53C770.436 3767.48 744.619 3783.78 717.184 3797.11C687.757 3811.78 655.938 3821.33 623.154 3825.35ZM606.869 4010.88C624.549 3979.87 647.206 3951.82 673.978 3927.8C698.907 3904.96 726.13 3884.62 755.235 3867.1C784.273 3849.49 815.084 3834.82 847.186 3823.33L847.192 3823.33C855.416 3820.5 864.388 3820.49 872.613 3823.33C880.839 3826.16 887.823 3831.66 892.403 3838.91C896.983 3846.15 898.883 3854.71 897.787 3863.16C896.691 3871.61 892.665 3879.43 886.379 3885.34C861.465 3908.2 834.215 3928.5 805.057 3945.93C775.962 3963.46 745.132 3978.09 713.033 3989.59C679.038 4002.18 643.195 4009.37 606.869 4010.88Z" fill="#5F7D37"/>
<path d="M583.247 4171.8C601.52 4144.16 624.504 4119.78 651.205 4099.71C675.846 4080.79 702.54 4064.56 730.809 4051.33C759.028 4038 788.686 4027.79 819.23 4020.89H819.232C827.667 4019.1 836.475 4020.14 844.231 4023.84C851.987 4027.54 858.237 4033.68 861.971 4041.28C865.705 4048.88 866.704 4057.48 864.806 4065.71C862.908 4073.93 858.224 4081.28 851.513 4086.58C826.883 4105.52 800.161 4121.71 771.845 4134.85C743.58 4148.09 713.91 4158.26 683.37 4165.17C650.628 4172.94 616.764 4175.18 583.247 4171.8ZM570.158 4299.76C595.997 4272.56 625.976 4249.4 659.041 4231.11C690.113 4213.49 722.844 4198.82 756.786 4187.3C790.68 4175.66 825.657 4167.28 861.22 4162.27L861.226 4162.27C869.921 4161.14 878.749 4162.98 886.219 4167.47C893.689 4171.95 899.344 4178.82 902.228 4186.91C905.112 4195 905.049 4203.81 902.05 4211.85C899.05 4219.9 893.298 4226.69 885.765 4231.08C854.702 4248.71 821.951 4263.35 787.976 4274.77C754.046 4286.32 719.06 4294.66 683.499 4299.68C645.947 4305.39 607.718 4305.42 570.158 4299.76ZM854.338 4307.3C863.015 4307.83 871.245 4311.24 877.658 4316.97C884.071 4322.7 888.28 4330.4 889.585 4338.79C890.89 4347.18 889.212 4355.75 884.83 4363.08C880.448 4370.41 873.627 4376.06 865.501 4379.08L865.499 4379.08C833.277 4390.6 799.952 4398.93 766.024 4403.94C732.121 4409.08 697.769 4410.82 663.503 4409.14C627.035 4407.78 591.032 4400.67 556.889 4388.09C585.671 4366.19 617.891 4348.97 652.303 4337.11C684.512 4325.57 717.846 4317.28 751.783 4312.37C785.708 4307.33 820.065 4305.63 854.337 4307.3H854.338Z" fill="#5F7D37"/>
<path d="M520.169 4679.76C524.262 4671.89 929.373 3888.17 904.248 3572.9L917.785 3571.89C943.207 3890.85 549.072 4653.46 532.278 4685.77L520.169 4679.76Z" fill="#C4CE6E"/>
<path d="M910.641 3590.2C901.156 3572.31 895.33 3552.8 893.488 3532.74C891.651 3514.62 892.272 3496.34 895.336 3478.38C898.337 3460.41 903.798 3442.91 911.571 3426.36L911.821 3425.84C914.439 3420.61 918.718 3416.35 924.02 3413.68C929.322 3411.02 935.364 3410.09 941.247 3411.05C947.129 3412.01 952.537 3414.8 956.667 3419C960.796 3423.2 963.425 3428.59 964.163 3434.36L964.228 3434.93C966.078 3453.05 965.427 3471.33 962.291 3489.28C959.218 3507.24 953.729 3524.72 945.967 3541.28C937.557 3559.67 925.558 3576.28 910.641 3590.2ZM882.92 3792.39C861.615 3789.71 841.606 3780.91 825.442 3767.11C809.706 3754.07 797.062 3737.85 788.388 3719.57C779.391 3700.75 775.262 3680.07 776.365 3659.34L776.404 3658.65C776.924 3652.92 779.322 3647.5 783.242 3643.21C787.163 3638.91 792.398 3635.96 798.17 3634.8C803.942 3633.64 809.944 3634.33 815.285 3636.76C820.627 3639.19 825.023 3643.24 827.822 3648.3C828.193 3648.96 828.565 3649.62 828.938 3650.27C836.87 3664.47 843.316 3677.9 850.09 3691.94C857.021 3706.55 863.195 3721.5 868.589 3736.72C875.092 3754.81 879.889 3773.44 882.92 3792.39ZM907.626 3665.25C886.321 3662.58 866.312 3653.78 850.147 3639.97C834.411 3626.94 821.768 3610.72 813.094 3592.44C804.096 3573.62 799.968 3552.94 801.071 3532.21L801.11 3531.52C801.629 3525.79 804.028 3520.37 807.948 3516.08C811.869 3511.78 817.104 3508.83 822.876 3507.67C828.648 3506.51 834.65 3507.2 839.991 3509.63C845.333 3512.06 849.729 3516.1 852.528 3521.17C852.898 3521.83 853.27 3522.48 853.644 3523.14C861.575 3537.34 868.022 3550.77 874.795 3564.81C881.726 3579.42 887.9 3594.37 893.294 3609.58C899.798 3627.68 904.595 3646.31 907.626 3665.25ZM903.832 3700.15C906.532 3679.55 913.218 3659.64 923.532 3641.47C932.758 3624.85 944.111 3609.45 957.319 3595.63C970.475 3581.76 985.415 3569.62 1001.77 3559.5L1002.84 3558.85C1007.94 3555.87 1013.91 3554.58 1019.82 3555.19C1025.74 3555.81 1031.3 3558.28 1035.65 3562.24C1040 3566.21 1042.91 3571.44 1043.95 3577.16C1044.98 3582.88 1044.09 3588.78 1041.39 3593.96L1040.8 3595.05C1031.59 3611.68 1020.21 3627.06 1006.95 3640.83C993.735 3654.65 978.778 3666.77 962.435 3676.91C944.584 3688.21 924.697 3696.09 903.832 3700.15ZM831.499 3964.08C813.397 3953.13 797.59 3938.92 784.916 3922.22C773.233 3907.12 763.562 3890.63 756.135 3873.15C748.645 3855.7 743.498 3837.37 740.822 3818.63C740.73 3817.92 740.641 3817.22 740.555 3816.51C739.897 3810.8 741.16 3805.03 744.153 3800.07C747.147 3795.12 751.709 3791.25 757.153 3789.04C762.596 3786.84 768.626 3786.42 774.333 3787.85C780.041 3789.29 785.116 3792.49 788.795 3796.99C789.247 3797.54 789.695 3798.11 790.141 3798.67C801.833 3813.76 811.478 3830.26 818.836 3847.77C826.259 3865.25 831.377 3883.58 834.069 3902.32C837.226 3922.88 836.354 3943.84 831.499 3964.08ZM780.152 4116.42C761.707 4103.79 745.759 4088 733.082 4069.82C721.247 4053.21 711.474 4035.28 703.969 4016.42C696.399 3997.58 691.189 3977.92 688.453 3957.86L688.237 3956.08C687.598 3950.28 688.935 3944.44 692.041 3939.46C695.147 3934.47 699.849 3930.63 705.42 3928.52C710.99 3926.41 717.118 3926.15 722.855 3927.78C728.592 3929.41 733.618 3932.84 737.155 3937.54L738.226 3939C750.069 3955.61 759.814 3973.55 767.248 3992.43C774.748 4011.3 779.928 4030.96 782.679 4051.02C785.895 4072.79 785.038 4094.95 780.152 4116.42ZM722.72 4255.51C702.447 4242.57 684.584 4226.34 669.899 4207.53C656.04 4190.16 644.166 4171.37 634.487 4151.48C624.733 4131.63 617.269 4110.77 612.235 4089.31L611.941 4087.98C610.725 4082.17 611.537 4076.13 614.247 4070.83C616.958 4065.52 621.411 4061.26 626.896 4058.71C632.38 4056.17 638.58 4055.49 644.505 4056.79C650.43 4058.09 655.739 4061.28 659.584 4065.87L660.458 4066.94C674.329 4084.3 686.18 4103.11 695.794 4123.03C705.48 4142.92 712.912 4163.78 717.959 4185.24C723.626 4208.23 725.236 4231.99 722.72 4255.51ZM664.922 4394.97C644.104 4382.65 625.581 4366.97 610.142 4348.6C595.572 4331.63 582.933 4313.16 572.45 4293.53C561.889 4273.93 553.583 4253.26 547.683 4231.88L547.682 4231.88C546.149 4226.03 546.686 4219.85 549.206 4214.33C551.727 4208.82 556.082 4204.3 561.565 4201.51C567.048 4198.72 573.336 4197.82 579.409 4198.96C585.482 4200.09 590.983 4203.2 595.019 4207.78C609.599 4224.74 622.214 4243.22 632.634 4262.89C643.125 4282.52 651.402 4303.2 657.319 4324.58C663.915 4347.45 666.486 4371.25 664.922 4394.97ZM613.9 4510.94C591.173 4499.34 570.526 4484.21 552.764 4466.15C535.905 4449.37 520.85 4430.95 507.835 4411.18C494.744 4391.46 483.796 4370.46 475.166 4348.52L475.165 4348.52C473.002 4342.81 472.898 4336.56 474.87 4330.79C476.843 4325.03 480.774 4320.09 486.013 4316.8C491.252 4313.51 497.484 4312.07 503.678 4312.71C509.871 4313.35 515.655 4316.04 520.072 4320.33C536.941 4337.09 551.975 4355.53 564.928 4375.34C577.955 4395.11 588.875 4416.12 597.518 4438.06C606.984 4461.33 612.517 4485.94 613.9 4510.94ZM550.357 4636.64C528.695 4621.69 509.581 4603.51 493.717 4582.75C478.547 4563.35 465.372 4542.53 454.385 4520.6C443.318 4498.71 434.53 4475.79 428.152 4452.19L428.152 4452.19C426.624 4446.26 427.227 4440.01 429.86 4434.47C432.493 4428.93 436.997 4424.44 442.616 4421.76C448.235 4419.07 454.628 4418.36 460.725 4419.72C466.822 4421.09 472.251 4424.46 476.105 4429.28C491.288 4448.67 504.437 4469.51 515.355 4491.47C526.355 4513.39 535.114 4536.32 541.506 4559.92C548.565 4584.88 551.552 4610.77 550.357 4636.64ZM868.898 3856.06C875.557 3833.96 886.114 3813.16 900.093 3794.61C912.872 3777.27 927.61 3761.39 944.029 3747.27C960.393 3733.09 978.368 3720.79 997.601 3710.61L998.978 3709.9C1004.35 3707.22 1010.49 3706.35 1016.43 3707.45C1022.36 3708.55 1027.75 3711.55 1031.74 3715.98C1035.73 3720.4 1038.1 3725.99 1038.47 3731.88C1038.84 3737.76 1037.2 3743.6 1033.79 3748.47L1032.9 3749.71C1020.13 3767.06 1005.37 3782.92 988.905 3796.98C972.491 3811.11 954.5 3823.38 935.272 3833.58C914.655 3844.78 892.193 3852.39 868.898 3856.06ZM823.274 4001.03C830.626 3981.14 841.726 3962.76 856.003 3946.86C868.901 3932.2 883.617 3919.18 899.812 3908.07C915.963 3896.91 933.499 3887.79 951.999 3880.93L952.57 3880.73C958.24 3878.78 964.408 3878.69 970.134 3880.48C975.86 3882.27 980.829 3885.84 984.284 3890.64C987.74 3895.45 989.492 3901.22 989.273 3907.08C989.054 3912.95 986.877 3918.58 983.073 3923.13L982.683 3923.58C969.797 3938.24 955.059 3951.25 938.823 3962.29C922.628 3973.4 905.081 3982.49 886.586 3989.36C866.413 3997.08 844.939 4001.04 823.274 4001.03ZM773.764 4138.46C785.169 4118.97 800.041 4101.62 817.682 4087.23C833.832 4073.78 851.525 4062.2 870.407 4052.73C889.253 4043.19 909.188 4035.86 929.796 4030.89C935.769 4029.54 942.035 4030.17 947.599 4032.68C953.162 4035.2 957.706 4039.46 960.508 4044.78C963.311 4050.11 964.212 4056.19 963.068 4062.07C961.924 4067.96 958.801 4073.3 954.195 4077.25C938.057 4090.71 920.346 4102.26 901.431 4111.67C882.549 4121.14 862.605 4128.44 842 4133.43C819.742 4139.05 796.635 4140.75 773.764 4138.46ZM711.956 4286.36C725.837 4267.69 742.947 4251.52 762.517 4238.58C780.537 4226.39 799.902 4216.21 820.249 4208.24C840.566 4200.2 861.758 4194.46 883.411 4191.11L884.946 4190.9C890.933 4190.12 897.016 4191.31 902.234 4194.28C907.451 4197.25 911.506 4201.83 913.756 4207.31C916.006 4212.78 916.324 4218.83 914.659 4224.49C912.994 4230.16 909.441 4235.13 904.562 4238.61L903.302 4239.48C885.289 4251.68 865.907 4261.83 845.533 4269.74C825.185 4277.71 803.986 4283.42 782.333 4286.78C759.027 4290.63 735.213 4290.49 711.956 4286.36ZM660.081 4409.58C678.961 4392.11 700.585 4377.72 724.133 4366.93C746.165 4356.56 769.212 4348.38 792.924 4342.51C816.613 4336.57 840.863 4333.01 865.294 4331.89H865.299C871.535 4331.68 877.659 4333.56 882.65 4337.21C887.642 4340.87 891.2 4346.08 892.734 4351.99C894.268 4357.89 893.684 4364.13 891.08 4369.67C888.476 4375.2 884.009 4379.7 878.421 4382.41C856.396 4392.8 833.338 4400.95 809.608 4406.74C785.9 4412.62 761.645 4416.15 737.212 4417.28C711.245 4418.75 685.205 4416.15 660.081 4409.58Z" fill="#C4CE6E"/>
<path d="M608.591 4514.39C627.134 4499.36 648.176 4487.53 670.807 4479.43C691.781 4471.67 713.564 4466.19 735.764 4463.07C757.952 4459.88 780.436 4459.12 802.796 4460.81H802.797C808.948 4461.35 814.731 4463.91 819.212 4468.05C823.692 4472.2 826.608 4477.71 827.487 4483.67C828.366 4489.64 827.157 4495.72 824.055 4500.94C820.954 4506.15 816.142 4510.19 810.397 4512.4C789.427 4520.17 767.634 4525.62 745.422 4528.66C723.223 4531.78 700.74 4532.51 678.377 4530.84C654.324 4529.28 630.721 4523.72 608.591 4514.39ZM571.545 4598.99C595.156 4585.83 620.703 4576.3 647.287 4570.75C672.364 4565.22 697.926 4562.06 723.622 4561.31C749.311 4560.46 775.023 4562.06 800.394 4566.09L800.398 4566.09C806.58 4567.14 812.202 4570.24 816.314 4574.87C820.426 4579.5 822.776 4585.37 822.968 4591.49C823.159 4597.61 821.181 4603.61 817.366 4608.48C813.551 4613.34 808.134 4616.77 802.029 4618.19C776.955 4623.72 751.387 4626.85 725.69 4627.54C699.998 4628.31 674.288 4626.68 648.915 4622.66C622.032 4618.7 595.936 4610.71 571.545 4598.99ZM763.836 4663.63C769.641 4665.8 774.508 4669.85 777.626 4675.11C780.744 4680.36 781.925 4686.5 780.972 4692.5C780.019 4698.5 776.99 4704 772.389 4708.08C767.788 4712.17 761.893 4714.59 755.685 4714.95H755.683C731.161 4716.07 706.587 4714.77 682.33 4711.1C658.064 4707.5 634.237 4701.5 611.221 4693.18C586.631 4684.61 563.622 4672.23 543.083 4656.49C567.538 4647.57 593.31 4642.57 619.402 4641.68C643.918 4640.55 668.489 4641.87 692.731 4645.61C716.99 4649.28 740.811 4655.31 763.835 4663.62L763.836 4663.63Z" fill="#C4CE6E"/>
<path d="M781.962 4948.77H438.911L328.547 4377.2C327.897 4373.93 327.995 4370.55 328.834 4367.31C329.672 4364.08 331.231 4361.06 333.399 4358.48C335.567 4355.9 338.292 4353.82 341.378 4352.38C344.465 4350.94 347.837 4350.19 351.257 4350.17H869.616C873.035 4350.19 876.408 4350.94 879.495 4352.38C882.581 4353.82 885.305 4355.9 887.473 4358.48C889.641 4361.06 891.2 4364.08 892.039 4367.31C892.877 4370.55 892.975 4373.93 892.325 4377.2L781.962 4948.77Z" fill="#E19974"/>
<path d="M884.352 4418.5L892.327 4377.2C892.977 4373.93 892.879 4370.55 892.041 4367.31C891.202 4364.08 889.643 4361.06 887.475 4358.48C885.307 4355.9 882.583 4353.82 879.496 4352.38C876.41 4350.94 873.037 4350.19 869.618 4350.17H351.257C347.837 4350.19 344.464 4350.94 341.378 4352.38C338.292 4353.82 335.567 4355.9 333.399 4358.48C331.231 4361.06 329.672 4364.08 328.834 4367.31C327.995 4370.55 327.897 4373.93 328.547 4377.2L336.522 4418.5H884.352Z" fill="#D6694B"/>
<path d="M466.341 4786.92L393.867 4715.51L466.341 4644.11L538.802 4715.51L466.341 4786.92Z" fill="#D6694B"/>
<path d="M611.298 4786.92L538.824 4715.51L611.298 4644.11L683.759 4715.51L611.298 4786.92Z" fill="#D6694B"/>
<path d="M754.581 4786.92L682.107 4715.51L754.581 4644.11L827.042 4715.51L754.581 4786.92Z" fill="#D6694B"/>
<path d="M6669.48 4948.79H0.90625V4974.82H6669.48V4948.79Z" fill="#935B50"/>
</svg>
