<svg width="238" height="52" viewBox="0 0 238 52" fill="none" xmlns="http://www.w3.org/2000/svg">
<circle cx="26" cy="26" r="26" fill="#18454F"/>
<circle cx="26.5" cy="23.5" r="22.5" fill="white"/>
<circle cx="119" cy="26" r="26" fill="#18454F"/>
<circle cx="118.5" cy="28.5" r="22.5" fill="white"/>
<circle cx="212" cy="26" r="26" fill="#18454F"/>
<circle cx="212.5" cy="23.5" r="22.5" fill="white"/>
<rect x="51" y="24" width="43" height="1" rx="0.5" fill="#18454F"/>
<rect x="144" y="25" width="43" height="1" rx="0.5" fill="#18454F"/>
<path d="M217.175 17.938C218.695 17.6004 220.675 16.0915 220.976 15.3484C221.153 14.9134 220.272 14.2337 220.036 13.9596C219.497 13.3343 219.714 13.0261 219.923 12.2807C220.161 11.4334 219.597 10.4977 218.797 10.1307C217.997 9.76363 217.041 9.87918 216.237 10.2371C215.432 10.5951 214.746 11.1706 214.073 11.737C213.581 11.4266 212.797 10.0559 211.529 10.9463C210.652 11.5603 210.573 12.897 210.686 13.9641C210.951 16.4268 211.558 17.7046 212.702 18.049C214.148 18.484 215.747 18.2552 217.175 17.938Z" fill="#FFCA28"/>
<path d="M219.644 10.8533C219.451 14.1724 216.214 16.3746 214.678 17.3443L215.675 18.2007C215.675 18.2007 216.307 18.2143 217.172 17.9379C218.656 17.4666 220.824 16.1344 220.974 15.3483C221.194 14.2041 220.02 14.4533 219.755 13.5494C219.617 13.0713 220.428 12.1673 219.644 10.8533V10.8533ZM214.075 11.7391C214.075 11.7391 213.497 11.1478 213.069 10.8782C212.856 11.2792 212.704 11.7142 212.63 12.1628C212.496 12.9512 212.63 14.0705 212.945 14.9042C212.994 15.0333 213.18 15.013 213.201 14.877C213.472 13.0849 214.075 11.7391 214.075 11.7391V11.7391Z" fill="#E2A610"/>
<path d="M210.038 17.6457C210.038 17.6457 202.971 18.4092 199.784 24.5445C196.596 30.6798 199.305 34.4 202.174 35.7548C205.042 37.1096 212.269 37.5877 216.971 36.473C221.672 35.3583 222.848 33.0474 222.628 30.8157C222.308 27.5578 219.281 25.555 219.281 25.555C219.281 25.555 219.402 21.5312 216.28 18.9189C213.509 16.5989 210.038 17.6457 210.038 17.6457V17.6457Z" fill="#FFCA28"/>
<path d="M212.938 27.9702C211.422 26.058 209.632 25.802 209.059 25.1155C208.746 24.7417 208.563 24.3633 208.633 23.8943C208.708 23.3959 209.286 23.0515 209.734 22.9677C210.258 22.868 211.506 22.9201 212.555 23.9192C212.804 24.1549 212.714 24.5219 212.707 24.8504C212.689 25.555 213.697 26.2392 214.512 25.6502C215.33 25.0588 214.703 23.7425 214.175 23.1036C213.776 22.621 212.331 21.5584 210.534 21.3908C210.029 21.3432 207.996 21.0419 206.823 23.2735C206.485 23.9147 206.361 25.4644 208.128 26.7739C208.497 27.0481 210.414 28.0223 210.946 28.6544C211.868 29.7487 211.236 30.7116 210.516 30.8384C208.552 31.1828 207.439 30.1202 207.233 29.538C207.086 29.1234 207.24 28.6748 207.049 28.2851C206.855 27.8841 206.456 27.7255 206.034 27.8592C204.652 28.2987 205.092 29.8099 205.704 30.6413C206.358 31.5317 207.163 32.0687 208.067 32.3632C211.44 33.462 213.062 31.7266 213.346 30.4556C213.554 29.5244 213.531 28.7178 212.938 27.9702Z" fill="#6B4B46"/>
<path d="M212.122 20.0994C209.252 26.2301 208.758 33.9718 208.758 33.9718" stroke="#6B4B46" stroke-width="2" stroke-miterlimit="10"/>
<path d="M214.503 16.2411C216.415 16.8641 216.839 18.5928 216.701 19.064C216.536 19.6168 214.417 17.4645 211.268 17.5936C210.167 17.6389 210.486 16.9638 210.996 16.5741C211.669 16.0598 212.8 15.6882 214.503 16.2411Z" fill="#6D4C41"/>
<path d="M214.503 16.2411C216.415 16.8641 216.839 18.5928 216.701 19.064C216.536 19.6168 214.417 17.4645 211.268 17.5936C210.167 17.6389 210.486 16.9638 210.996 16.5741C211.669 16.0598 212.8 15.6882 214.503 16.2411Z" fill="#6B4B46"/>
<path d="M217.861 22.3355C218.101 22.1701 218.908 22.4556 219.134 24.0347C219.245 24.8073 219.279 25.555 219.279 25.555C219.279 25.555 218.328 24.7008 218.013 24.1004C217.616 23.3414 217.462 22.6074 217.861 22.3355V22.3355Z" fill="#E2A610"/>
<path d="M20.771 16.5107V13.72C20.771 12.7815 21.4268 12.0208 22.2358 12.0208H34.9312C35.7402 12.0208 36.396 12.7815 36.396 13.72V28.4465C36.396 29.385 35.7402 30.1458 34.9312 30.1458H32.4982" stroke="black" stroke-width="2" stroke-linecap="round" stroke-linejoin="round"/>
<path d="M30.7644 16.854H18.0691C17.2601 16.854 16.6042 17.6148 16.6042 18.5532V33.2798C16.6042 34.2182 17.2601 34.979 18.0691 34.979H30.7644C31.5734 34.979 32.2292 34.2182 32.2292 33.2798V18.5532C32.2292 17.6148 31.5734 16.854 30.7644 16.854Z" fill="#5A929D" stroke="black" stroke-width="2" stroke-linejoin="round"/>
<path d="M119 41.3334C122.682 41.3334 126.015 39.841 128.428 37.4281C130.841 35.0153 132.333 31.6819 132.333 28.0001C132.333 24.3182 130.841 20.9849 128.428 18.572C126.015 16.1591 122.682 14.6667 119 14.6667C115.318 14.6667 111.985 16.1591 109.572 18.572C107.159 20.9849 105.667 24.3182 105.667 28.0001C105.667 31.6819 107.159 35.0153 109.572 37.4281C111.985 39.841 115.318 41.3334 119 41.3334Z" fill="#23C26F" stroke="black" stroke-width="2" stroke-linejoin="round"/>
<path d="M113.667 28L117.667 32L125.667 24" fill="#23C26F"/>
<path d="M113.667 28L117.667 32L125.667 24" stroke="white" stroke-width="3" stroke-linecap="round" stroke-linejoin="round"/>
</svg>
