<svg width="10" height="11" viewBox="0 0 10 11" fill="none" xmlns="http://www.w3.org/2000/svg">
<g clip-path="url(#clip0_467_245)">
<path d="M8.88881 3.027H8.61103V1.40334C8.61103 1.33157 8.58176 1.26274 8.52967 1.21199C8.47758 1.16124 8.40692 1.13273 8.33325 1.13273H1.66658C1.60081 1.13378 1.53679 1.11205 1.48592 1.07141C1.43505 1.03077 1.40064 0.973871 1.3888 0.910831V0.813411C1.40064 0.750371 1.43505 0.693467 1.48592 0.652831C1.53679 0.612196 1.60081 0.590466 1.66658 0.591512H8.21658C8.29025 0.591512 8.36091 0.563001 8.413 0.512252C8.4651 0.461503 8.49436 0.392672 8.49436 0.320902C8.49436 0.249132 8.4651 0.180302 8.413 0.129553C8.36091 0.0788036 8.29025 0.050293 8.21658 0.050293H1.66658C1.44557 0.050293 1.23361 0.135825 1.07733 0.288072C0.921047 0.440319 0.833249 0.646811 0.833249 0.862121C0.8313 0.894566 0.8313 0.927095 0.833249 0.95954V6.52597C0.83434 6.67168 0.864879 6.81574 0.923123 6.94995C0.981367 7.08415 1.06618 7.20587 1.17271 7.30814C1.27924 7.41041 1.4054 7.49124 1.544 7.54601C1.6826 7.60078 1.83091 7.62842 1.98047 7.62735H8.33325C8.40692 7.62735 8.47758 7.59884 8.52967 7.54809C8.58176 7.49735 8.61103 7.42851 8.61103 7.35674V5.73309H8.88881C8.96248 5.73309 9.03313 5.70458 9.08522 5.65383C9.13732 5.60308 9.16658 5.53425 9.16658 5.46248V3.2976C9.16658 3.22583 9.13732 3.157 9.08522 3.10626C9.03313 3.05551 8.96248 3.027 8.88881 3.027ZM8.05547 7.08614H1.98047C1.82597 7.08759 1.67713 7.02955 1.56633 6.92465C1.45553 6.81975 1.39173 6.67647 1.3888 6.52597V1.64148C1.47897 1.66693 1.57279 1.6779 1.66658 1.67395H8.05547V3.027H6.11103C5.74267 3.027 5.3894 3.16955 5.12893 3.42329C4.86847 3.67704 4.72214 4.02119 4.72214 4.38004C4.72214 4.73889 4.86847 5.08305 5.12893 5.33679C5.3894 5.59054 5.74267 5.73309 6.11103 5.73309H8.05547V7.08614ZM8.61103 5.19187H6.11103C5.89001 5.19187 5.67805 5.10634 5.52177 4.95409C5.36549 4.80184 5.27769 4.59535 5.27769 4.38004C5.27769 4.16473 5.36549 3.95824 5.52177 3.80599C5.67805 3.65375 5.89001 3.56821 6.11103 3.56821H8.61103V5.19187Z" fill="black"/>
<path d="M6.39176 4.78595C6.62188 4.78595 6.80843 4.60421 6.80843 4.38003C6.80843 4.15585 6.62188 3.97412 6.39176 3.97412C6.16165 3.97412 5.9751 4.15585 5.9751 4.38003C5.9751 4.60421 6.16165 4.78595 6.39176 4.78595Z" fill="black"/>
</g>
<defs>
<clipPath id="clip0_467_245">
<rect width="10" height="9.74194" fill="white" transform="translate(0 0.967773)"/>
</clipPath>
</defs>
</svg>
