<svg width="3333" height="145" viewBox="0 0 3333 145" fill="none" xmlns="http://www.w3.org/2000/svg">
<path d="M0 8C0 3.58172 3.58172 0 8 0H3325C3329.42 0 3333 3.58172 3333 8V38.8547C3333 43.0914 3329.7 46.5934 3325.47 46.841L1649.08 145L7.52255 46.8498C3.29726 46.5971 0 43.0969 0 38.864V8Z" fill="#FE000B"/>
<path d="M1555.39 86.9458H1568.2C1568.03 90.6567 1567.03 93.9282 1565.2 96.7603C1563.37 99.5923 1560.83 101.802 1557.58 103.389C1554.36 104.951 1550.55 105.732 1546.16 105.732C1542.59 105.732 1539.41 105.134 1536.6 103.938C1533.82 102.742 1531.45 101.021 1529.5 98.7744C1527.57 96.5283 1526.09 93.8062 1525.06 90.6079C1524.06 87.4097 1523.56 83.8086 1523.56 79.8047V76.9116C1523.56 72.9077 1524.09 69.3066 1525.14 66.1084C1526.21 62.8857 1527.73 60.1514 1529.68 57.9053C1531.66 55.6348 1534.02 53.9014 1536.78 52.7051C1539.54 51.5088 1542.61 50.9106 1545.98 50.9106C1550.61 50.9106 1554.53 51.7407 1557.73 53.4009C1560.93 55.061 1563.41 57.3438 1565.17 60.249C1566.92 63.1299 1567.96 66.4136 1568.28 70.1001H1555.46C1555.41 68.0981 1555.07 66.4258 1554.44 65.083C1553.8 63.7158 1552.8 62.6904 1551.43 62.0068C1550.06 61.3232 1548.25 60.9814 1545.98 60.9814C1544.39 60.9814 1543.01 61.2744 1541.84 61.8604C1540.67 62.4463 1539.69 63.374 1538.91 64.6436C1538.13 65.9131 1537.54 67.561 1537.15 69.5874C1536.78 71.5894 1536.6 74.0063 1536.6 76.8384V79.8047C1536.6 82.6367 1536.77 85.0537 1537.11 87.0557C1537.46 89.0576 1538 90.6934 1538.76 91.9629C1539.52 93.2324 1540.49 94.1724 1541.69 94.7827C1542.91 95.3687 1544.4 95.6616 1546.16 95.6616C1548.11 95.6616 1549.76 95.3564 1551.1 94.7461C1552.45 94.1113 1553.48 93.1592 1554.22 91.8896C1554.95 90.5957 1555.34 88.9478 1555.39 86.9458ZM1609.51 95.1123V105H1582.56V95.1123H1609.51ZM1587.14 51.6797V105H1574.28V51.6797H1587.14ZM1657.71 77.2778V79.4385C1657.71 83.5156 1657.13 87.1777 1655.99 90.4248C1654.86 93.6475 1653.26 96.4062 1651.19 98.7012C1649.11 100.972 1646.66 102.717 1643.83 103.938C1641 105.134 1637.87 105.732 1634.45 105.732C1631.01 105.732 1627.86 105.134 1625 103.938C1622.17 102.717 1619.71 100.972 1617.61 98.7012C1615.53 96.4062 1613.92 93.6475 1612.77 90.4248C1611.65 87.1777 1611.09 83.5156 1611.09 79.4385V77.2778C1611.09 73.2007 1611.65 69.5386 1612.77 66.2915C1613.92 63.0444 1615.52 60.2856 1617.57 58.0151C1619.65 55.7202 1622.1 53.9746 1624.93 52.7783C1627.79 51.5576 1630.94 50.9473 1634.38 50.9473C1637.8 50.9473 1640.92 51.5576 1643.75 52.7783C1646.61 53.9746 1649.08 55.7202 1651.15 58.0151C1653.23 60.2856 1654.84 63.0444 1655.99 66.2915C1657.13 69.5386 1657.71 73.2007 1657.71 77.2778ZM1644.67 79.4385V77.2046C1644.67 74.5679 1644.44 72.2485 1643.97 70.2466C1643.53 68.2202 1642.88 66.5234 1642 65.1562C1641.12 63.7891 1640.03 62.7637 1638.74 62.0801C1637.47 61.3721 1636.01 61.0181 1634.38 61.0181C1632.67 61.0181 1631.18 61.3721 1629.91 62.0801C1628.64 62.7637 1627.58 63.7891 1626.73 65.1562C1625.87 66.5234 1625.22 68.2202 1624.78 70.2466C1624.37 72.2485 1624.16 74.5679 1624.16 77.2046V79.4385C1624.16 82.0508 1624.37 84.3701 1624.78 86.3965C1625.22 88.3984 1625.87 90.0952 1626.73 91.4868C1627.6 92.8784 1628.68 93.9282 1629.95 94.6362C1631.24 95.3442 1632.74 95.6982 1634.45 95.6982C1636.09 95.6982 1637.54 95.3442 1638.81 94.6362C1640.08 93.9282 1641.14 92.8784 1642 91.4868C1642.88 90.0952 1643.53 88.3984 1643.97 86.3965C1644.44 84.3701 1644.67 82.0508 1644.67 79.4385ZM1691.84 90.8276C1691.84 89.9976 1691.72 89.2529 1691.47 88.5938C1691.23 87.9102 1690.78 87.2754 1690.12 86.6895C1689.46 86.1035 1688.5 85.5176 1687.26 84.9316C1686.04 84.3213 1684.43 83.6865 1682.43 83.0273C1680.08 82.2461 1677.82 81.3672 1675.65 80.3906C1673.48 79.3896 1671.54 78.23 1669.83 76.9116C1668.12 75.5688 1666.76 74.0063 1665.76 72.2241C1664.76 70.4175 1664.26 68.3179 1664.26 65.9253C1664.26 63.6304 1664.77 61.5674 1665.8 59.7363C1666.83 57.8809 1668.25 56.3062 1670.08 55.0122C1671.94 53.6938 1674.11 52.6929 1676.6 52.0093C1679.09 51.3013 1681.82 50.9473 1684.77 50.9473C1688.68 50.9473 1692.12 51.6309 1695.1 52.998C1698.1 54.3408 1700.44 56.2573 1702.13 58.7476C1703.84 61.2134 1704.69 64.1309 1704.69 67.5H1691.91C1691.91 66.1572 1691.63 64.9731 1691.07 63.9478C1690.53 62.9224 1689.71 62.1167 1688.61 61.5308C1687.52 60.9448 1686.14 60.6519 1684.48 60.6519C1682.87 60.6519 1681.51 60.896 1680.41 61.3843C1679.31 61.8726 1678.48 62.5317 1677.92 63.3618C1677.36 64.1675 1677.08 65.0586 1677.08 66.0352C1677.08 66.8408 1677.3 67.5732 1677.74 68.2324C1678.2 68.8672 1678.85 69.4653 1679.68 70.0269C1680.53 70.5884 1681.56 71.1255 1682.76 71.6382C1683.98 72.1509 1685.34 72.6514 1686.86 73.1396C1689.69 74.043 1692.2 75.0562 1694.4 76.1792C1696.62 77.2778 1698.49 78.5352 1700 79.9512C1701.54 81.3428 1702.7 82.9297 1703.48 84.7119C1704.29 86.4941 1704.69 88.5083 1704.69 90.7544C1704.69 93.147 1704.23 95.271 1703.3 97.1265C1702.37 98.9819 1701.04 100.557 1699.31 101.851C1697.57 103.12 1695.5 104.084 1693.08 104.744C1690.67 105.403 1687.97 105.732 1684.99 105.732C1682.25 105.732 1679.56 105.391 1676.9 104.707C1674.26 103.999 1671.87 102.925 1669.72 101.484C1667.57 100.02 1665.85 98.1519 1664.55 95.8813C1663.29 93.5864 1662.65 90.8643 1662.65 87.7148H1675.54C1675.54 89.2773 1675.75 90.5957 1676.16 91.6699C1676.58 92.7441 1677.19 93.6108 1677.99 94.27C1678.8 94.9048 1679.79 95.3687 1680.96 95.6616C1682.13 95.9302 1683.48 96.0645 1684.99 96.0645C1686.62 96.0645 1687.94 95.8325 1688.94 95.3687C1689.95 94.8804 1690.68 94.2456 1691.14 93.4644C1691.61 92.6587 1691.84 91.7798 1691.84 90.8276ZM1748.01 95.1123V105H1719.6V95.1123H1748.01ZM1724.17 51.6797V105H1711.32V51.6797H1724.17ZM1744.35 72.8467V82.4048H1719.6V72.8467H1744.35ZM1748.12 51.6797V61.604H1719.6V51.6797H1748.12ZM1770.61 105H1758.78L1758.85 95.1123H1770.61C1773.05 95.1123 1775.11 94.5264 1776.8 93.3545C1778.51 92.1826 1779.8 90.437 1780.68 88.1177C1781.58 85.7739 1782.04 82.8931 1782.04 79.4751V77.168C1782.04 74.6045 1781.78 72.3584 1781.27 70.4297C1780.78 68.4766 1780.05 66.853 1779.07 65.5591C1778.09 64.2407 1776.87 63.252 1775.41 62.5928C1773.97 61.9336 1772.31 61.604 1770.43 61.604H1758.56V51.6797H1770.43C1774.04 51.6797 1777.35 52.3022 1780.35 53.5474C1783.38 54.7681 1785.99 56.5259 1788.19 58.8208C1790.41 61.0913 1792.12 63.7891 1793.31 66.9141C1794.54 70.0146 1795.15 73.457 1795.15 77.2412V79.4751C1795.15 83.2349 1794.54 86.6772 1793.31 89.8022C1792.12 92.9272 1790.42 95.625 1788.22 97.8955C1786.03 100.166 1783.43 101.924 1780.42 103.169C1777.45 104.39 1774.17 105 1770.61 105ZM1766.14 51.6797V105H1753.29V51.6797H1766.14Z" fill="black"/>
</svg>
