<svg width="20" height="16" viewBox="0 0 20 16" fill="none" xmlns="http://www.w3.org/2000/svg">
<g clip-path="url(#clip0_1104_132)">
<path d="M4.54547 15.9213V7.7215L2.14898 5.39503L0 4.104V14.4742C0 15.2749 0.611328 15.9213 1.36367 15.9213H4.54547V15.9213Z" fill="#4285F4"/>
<path d="M15.4546 15.9212H18.6364C19.391 15.9212 20.0001 15.2724 20.0001 14.4742V4.104L17.566 5.58272L15.4546 7.72141V15.9212V15.9212Z" fill="#34A853"/>
<path d="M4.54558 7.72151L4.21948 4.51762L4.54558 1.45117L10.0001 5.79223L15.4546 1.45117L15.8194 4.35206L15.4546 7.72151L10.0001 12.0626L4.54558 7.72151Z" fill="#EA4335"/>
<path d="M15.4546 1.45108V7.72143L20.0001 4.10393V2.17457C20.0001 0.385135 18.0751 -0.634969 16.7274 0.438192L15.4546 1.45108Z" fill="#FBBC04"/>
<path d="M0 4.10397L2.09055 5.76781L4.54547 7.72146V1.45112L3.27266 0.43823C1.92266 -0.635014 0 0.385173 0 2.17452V4.10389V4.10397Z" fill="#C5221F"/>
</g>
<defs>
<clipPath id="clip0_1104_132">
<rect width="20" height="16" fill="white"/>
</clipPath>
</defs>
</svg>
