<svg width="16" height="16" viewBox="0 0 16 16" fill="none" xmlns="http://www.w3.org/2000/svg">
<path d="M5.69678 3.78911L10.4355 1L12.0191 3.79612L5.69678 3.78911Z" stroke="white" stroke-linecap="round" stroke-linejoin="round"/>
<path d="M0.896484 4.50005C0.896484 4.11344 1.20391 3.80005 1.58313 3.80005H13.9428C14.322 3.80005 14.6295 4.11344 14.6295 4.50005V14.3C14.6295 14.6867 14.322 15 13.9428 15H1.58313C1.20391 15 0.896484 14.6867 0.896484 14.3V4.50005Z" fill="#2F88FF" stroke="white" stroke-linejoin="round"/>
<path d="M11.625 11.1504H14.629V7.65039H11.625C10.6295 7.65039 9.82251 8.4339 9.82251 9.40039C9.82251 10.3669 10.6295 11.1504 11.625 11.1504Z" fill="#43CCF8" stroke="white" stroke-linejoin="round"/>
<path d="M14.6294 5.375V13.775" stroke="white" stroke-linecap="round"/>
<path d="M12.177 10C12.4479 10 12.6674 9.77614 12.6674 9.5C12.6674 9.22386 12.4479 9 12.177 9C11.9061 9 11.6865 9.22386 11.6865 9.5C11.6865 9.77614 11.9061 10 12.177 10Z" fill="white"/>
</svg>
