<svg width="16" height="20" viewBox="0 0 16 20" fill="none" xmlns="http://www.w3.org/2000/svg">
<path d="M6.59635 19.5506C4.55042 17.0363 0 10.9424 0 7.51946C0 3.36652 3.36912 0 7.52525 0C11.6798 0 15.0505 3.36652 15.0505 7.51946C15.0505 10.9424 10.4648 17.0363 8.45415 19.5506C7.97206 20.1498 7.07844 20.1498 6.59635 19.5506V19.5506ZM7.52525 10.0259C8.9088 10.0259 10.0337 8.90194 10.0337 7.51946C10.0337 6.13698 8.9088 5.01297 7.52525 5.01297C6.1417 5.01297 5.01683 6.13698 5.01683 7.51946C5.01683 8.90194 6.1417 10.0259 7.52525 10.0259Z" fill="#114A55"/>
</svg>
