<svg width="3333" height="145" viewBox="0 0 3333 145" fill="none" xmlns="http://www.w3.org/2000/svg">
<path d="M0 8C0 3.58172 3.58172 0 8 0H3325C3329.42 0 3333 3.58172 3333 8V38.8547C3333 43.0914 3329.7 46.5934 3325.47 46.841L1649.08 145L7.52255 46.8498C3.29726 46.5971 0 43.0969 0 38.864V8Z" fill="#01F776"/>
<path d="M1593.18 80.2778V82.4385C1593.18 86.5156 1592.61 90.1777 1591.46 93.4248C1590.34 96.6475 1588.74 99.4062 1586.66 101.701C1584.59 103.972 1582.13 105.717 1579.3 106.938C1576.47 108.134 1573.35 108.732 1569.93 108.732C1566.49 108.732 1563.34 108.134 1560.48 106.938C1557.65 105.717 1555.18 103.972 1553.08 101.701C1551.01 99.4062 1549.4 96.6475 1548.25 93.4248C1547.12 90.1777 1546.56 86.5156 1546.56 82.4385V80.2778C1546.56 76.2007 1547.12 72.5386 1548.25 69.2915C1549.4 66.0444 1550.99 63.2856 1553.05 61.0151C1555.12 58.7202 1557.57 56.9746 1560.41 55.7783C1563.26 54.5576 1566.41 53.9473 1569.85 53.9473C1573.27 53.9473 1576.4 54.5576 1579.23 55.7783C1582.09 56.9746 1584.55 58.7202 1586.63 61.0151C1588.7 63.2856 1590.31 66.0444 1591.46 69.2915C1592.61 72.5386 1593.18 76.2007 1593.18 80.2778ZM1580.15 82.4385V80.2046C1580.15 77.5679 1579.91 75.2485 1579.45 73.2466C1579.01 71.2202 1578.35 69.5234 1577.47 68.1562C1576.59 66.7891 1575.51 65.7637 1574.21 65.0801C1572.94 64.3721 1571.49 64.0181 1569.85 64.0181C1568.15 64.0181 1566.66 64.3721 1565.39 65.0801C1564.12 65.7637 1563.06 66.7891 1562.2 68.1562C1561.35 69.5234 1560.7 71.2202 1560.26 73.2466C1559.84 75.2485 1559.64 77.5679 1559.64 80.2046V82.4385C1559.64 85.0508 1559.84 87.3701 1560.26 89.3965C1560.7 91.3984 1561.35 93.0952 1562.2 94.4868C1563.08 95.8784 1564.15 96.9282 1565.42 97.6362C1566.72 98.3442 1568.22 98.6982 1569.93 98.6982C1571.56 98.6982 1573.02 98.3442 1574.29 97.6362C1575.56 96.9282 1576.62 95.8784 1577.47 94.4868C1578.35 93.0952 1579.01 91.3984 1579.45 89.3965C1579.91 87.3701 1580.15 85.0508 1580.15 82.4385ZM1621.12 89.9092H1607.87V79.9849H1621.12C1622.93 79.9849 1624.4 79.6797 1625.52 79.0693C1626.64 78.459 1627.46 77.6167 1627.97 76.5425C1628.51 75.4438 1628.78 74.2109 1628.78 72.8438C1628.78 71.3789 1628.51 70.0239 1627.97 68.7788C1627.46 67.5337 1626.64 66.5327 1625.52 65.7759C1624.4 64.9946 1622.93 64.604 1621.12 64.604H1612.7V108H1599.85V54.6797H1621.12C1625.4 54.6797 1629.07 55.4609 1632.15 57.0234C1635.25 58.5859 1637.63 60.7344 1639.29 63.4688C1640.95 66.1787 1641.78 69.2793 1641.78 72.7705C1641.78 76.2129 1640.95 79.2158 1639.29 81.7793C1637.63 84.3428 1635.25 86.3447 1632.15 87.7852C1629.07 89.2012 1625.4 89.9092 1621.12 89.9092ZM1685.39 98.1123V108H1656.98V98.1123H1685.39ZM1661.55 54.6797V108H1648.7V54.6797H1661.55ZM1681.73 75.8467V85.4048H1656.98V75.8467H1681.73ZM1685.5 54.6797V64.604H1656.98V54.6797H1685.5ZM1735.2 54.6797V108H1722.38L1703.52 74.8213V108H1690.67V54.6797H1703.52L1722.38 87.8584V54.6797H1735.2Z" fill="#01381B"/>
</svg>
