<svg width="24" height="20" viewBox="0 0 24 20" fill="none" xmlns="http://www.w3.org/2000/svg">
<path d="M17.3351 8.125H15.8905C15.89 7.62787 15.6615 7.15125 15.2552 6.79972C14.849 6.4482 14.2982 6.2505 13.7236 6.25V5C14.6811 5.00099 15.599 5.33055 16.2761 5.91639C16.9531 6.50222 17.334 7.2965 17.3351 8.125V8.125Z" fill="#057085"/>
<path d="M20.2243 8.12501H18.7797C18.7782 6.96509 18.245 5.85306 17.2971 5.03288C16.3492 4.21269 15.0641 3.75133 13.7236 3.75001V2.50001C15.4471 2.50166 17.0995 3.09482 18.3182 4.14936C19.5369 5.20389 20.2224 6.63367 20.2243 8.12501V8.12501ZM14.6864 13.4263L16.3044 12.0263C16.5209 11.8388 16.7963 11.7105 17.0964 11.6572C17.3964 11.6038 17.708 11.6279 17.9924 11.7263L19.9628 12.4088C20.2532 12.5093 20.5022 12.6828 20.6775 12.907C20.8529 13.1311 20.9466 13.3956 20.9466 13.6663V16.7669C20.9471 16.9512 20.9041 17.1336 20.8203 17.303C20.7365 17.4725 20.6136 17.6253 20.4592 17.7522C20.3048 17.8791 20.122 17.9774 19.9222 18.0411C19.7223 18.1047 19.5095 18.1325 19.2969 18.1225C5.48504 17.3788 2.69551 7.25626 2.17762 3.38001C2.15254 3.1905 2.17411 2.99855 2.24091 2.81678C2.30771 2.63501 2.41822 2.46753 2.56519 2.32537C2.71215 2.1832 2.89224 2.06957 3.0936 1.99195C3.29495 1.91433 3.51302 1.87447 3.73346 1.87501H7.25323C7.56603 1.875 7.87167 1.95609 8.1307 2.10782C8.38974 2.25955 8.59029 2.47496 8.70649 2.72626L9.49452 4.43126C9.60825 4.67736 9.63601 4.94694 9.57439 5.20657C9.51276 5.4662 9.36444 5.70448 9.14782 5.89188L7.52987 7.29188C7.52987 7.29188 8.42696 12.7494 14.6864 13.4263Z" fill="#057085"/>
</svg>
