<svg width="20" height="20" viewBox="0 0 20 20" fill="none" xmlns="http://www.w3.org/2000/svg">
<path d="M5.28613 17.1293L5.61308 17.2909C6.97558 18.0989 8.50144 18.4759 10.0274 18.4759C14.8231 18.4759 18.7468 14.5976 18.7468 9.85747C18.7468 7.59515 17.8203 5.38666 16.1855 3.77067C14.5506 2.15469 12.3707 1.23901 10.0274 1.23901C5.23168 1.23901 1.30785 5.11731 1.36238 9.91137C1.36238 11.5273 1.85285 13.0894 2.67027 14.436L2.88824 14.7592L2.01636 17.9373L5.28613 17.1293Z" fill="#00E676"/>
<path d="M14.9729 11.8948L14.3734 11.6255C14.3734 11.6255 13.5016 11.2484 12.9566 10.9791C12.902 10.9791 12.8476 10.9252 12.793 10.9252C12.6295 10.9252 12.5205 10.9791 12.4116 11.033C12.4116 11.033 12.3571 11.0868 11.5941 11.9486C11.5396 12.0564 11.4306 12.1103 11.3216 12.1103H11.2671C11.2127 12.1103 11.1037 12.0564 11.0491 12.0025L10.7766 11.8948C10.1772 11.6255 9.63227 11.3022 9.19625 10.8714C9.08727 10.7636 8.92375 10.6559 8.81477 10.5482C8.43328 10.1711 8.0518 9.74015 7.77938 9.25537L7.72484 9.14764C7.67039 9.09375 7.67039 9.03992 7.61586 8.9322C7.61586 8.82448 7.61586 8.71676 7.67039 8.66286C7.67039 8.66286 7.88836 8.39351 8.0518 8.23197C8.16086 8.12417 8.21531 7.96263 8.3243 7.8549C8.43328 7.69328 8.48781 7.47784 8.43328 7.31622C8.37883 7.04687 7.72484 5.59251 7.56141 5.26934C7.45234 5.10772 7.34344 5.0539 7.17992 5H6.58047C6.47141 5 6.3625 5.0539 6.25344 5.0539L6.19891 5.10772C6.08992 5.16162 5.98094 5.26934 5.87195 5.32317C5.76297 5.43097 5.70844 5.53861 5.59945 5.64641C5.21797 6.1312 5 6.72371 5 7.31622C5 7.7471 5.10898 8.17807 5.2725 8.55514L5.32703 8.71676C5.8175 9.74015 6.47141 10.6559 7.34344 11.4639L7.56141 11.6793C7.72484 11.8409 7.88836 11.9486 7.99734 12.1102C9.1418 13.0798 10.4497 13.7801 11.9211 14.1571C12.0846 14.211 12.3026 14.211 12.4661 14.2649H13.011C13.2835 14.2649 13.6105 14.1571 13.8285 14.0494C13.992 13.9417 14.1009 13.9417 14.2099 13.834L14.319 13.7262C14.428 13.6185 14.537 13.5646 14.6459 13.4569C14.7549 13.3492 14.8639 13.2415 14.9184 13.1337C15.0274 12.9182 15.0819 12.6489 15.1364 12.3796V12.0025C15.1364 12.0025 15.0819 11.9486 14.9729 11.8948Z" fill="white"/>
</svg>
